<svg xmlns="http://www.w3.org/2000/svg" width="24" height="24" viewBox="0 0 24 24">
  <path d="M12,16.5 C12.8284271,16.5 13.5,17.1715729 13.5,18 C13.5,18.8284271 12.8284271,19.5 12,19.5 C11.1715729,19.5 10.5,18.8284271 10.5,18 C10.5,17.1715729 11.1715729,16.5 12,16.5 Z M12,10.5 C12.8284271,10.5 13.5,11.1715729 13.5,12 C13.5,12.8284271 12.8284271,13.5 12,13.5 C11.1715729,13.5 10.5,12.8284271 10.5,12 C10.5,11.1715729 11.1715729,10.5 12,10.5 Z M12,4.5 C12.8284271,4.5 13.5,5.17157288 13.5,6 C13.5,6.82842712 12.8284271,7.5 12,7.5 C11.1715729,7.5 10.5,6.82842712 10.5,6 C10.5,5.17157288 11.1715729,4.5 12,4.5 Z"/>
</svg>
