<svg xmlns="http://www.w3.org/2000/svg" viewBox="0 0 16 16">
  <path fill-rule="evenodd" d="M5.42855151,12.2889629 C6.17989881,12.7404026 7.0596333,13 8,13 C10.7614237,13 13,10.7614237 13,8 C13,7.0596333 12.7404026,6.17989881 12.2889629,5.42855151 L5.42855151,12.2889629 Z M3.95266062,10.9364267 L10.9364267,3.95266062 C10.111922,3.35343147 9.09723516,3 8,3 C5.23857625,3 3,5.23857625 3,8 C3,9.09723516 3.35343147,10.111922 3.95266062,10.9364267 Z M8,15 C4.13400675,15 1,11.8659932 1,8 C1,4.13400675 4.13400675,1 8,1 C11.8659932,1 15,4.13400675 15,8 C15,11.8659932 11.8659932,15 8,15 Z"/>
</svg>
