<svg xmlns="http://www.w3.org/2000/svg" xmlns:xlink="http://www.w3.org/1999/xlink" width="16" height="16" viewBox="0 0 16 16">

    <path   fill-rule="evenodd"  d="M7.99349428,2 C8.76692631,2 9.45661093,2.39903182 9.83840063,3.07147432 L9.83840063,3.07147432 L13.6957082,9.7515625 C14.079961,10.4166155 14.0774979,11.212216 13.6907819,11.8797322 C13.3016027,12.5521747 12.6094549,12.9536697 11.838486,12.9536697 L11.838486,12.9536697 L4.13372356,12.9536697 C3.36521784,12.9536697 2.67799638,12.557101 2.29374352,11.8969743 C1.90456434,11.2294581 1.90210118,10.4289313 2.28635404,9.75648882 L2.28635404,9.75648882 L6.14858792,3.06901116 C6.53037762,2.40149498 7.22006224,2 7.99349428,2 Z M7.99349428,2.96555847 C7.56983087,2.96555847 7.19543064,3.18231649 6.9860621,3.54932724 L6.9860621,3.54932724 L3.12382822,10.2343417 C2.91199652,10.6038156 2.91445968,11.042258 3.12629138,11.4092687 C3.33565993,11.7713532 3.71252331,11.985648 4.1312604,11.985648 L4.1312604,11.985648 L11.8360229,11.985648 C12.2596863,11.985648 12.6390128,11.7664269 12.8533077,11.396953 C13.0651394,11.0299422 13.0676026,10.5964262 12.8606972,10.2368049 L12.8606972,10.2368049 L9.00092645,3.5517904 C8.79155791,3.18477965 8.41469453,2.96555847 7.99349428,2.96555847 Z M7.99103112,9.69737299 C8.32848395,9.69737299 8.60682096,9.97571 8.592042,10.3279418 C8.60682096,10.6481525 8.31370499,10.9289527 7.99103112,10.9289527 C7.65604144,10.9289527 7.37524128,10.6481525 7.37524128,10.3131628 C7.37524128,9.97817316 7.65604144,9.69737299 7.99103112,9.69737299 Z M7.83831524,5.37452832 C8.1314312,5.30555986 8.42454716,5.44595994 8.55016829,5.72183379 C8.592042,5.82036016 8.60682096,5.91888654 8.60682096,6.02972871 L8.60682096,6.02972871 L8.55016829,6.95341347 L8.55016829,6.95341347 L8.46642087,8.37958274 C8.45164192,8.53476178 8.45164192,8.67516186 8.45164192,8.82787774 C8.43932612,9.08158316 8.24227337,9.27617274 7.99103112,9.27617274 C7.73978886,9.27617274 7.54519927,9.09389895 7.53042032,8.8426567 C7.48854661,8.10124573 7.4466729,7.37461372 7.40479919,6.63320275 C7.39002023,6.43861316 7.37770444,6.24156042 7.36292548,6.04697083 C7.36292548,5.72429695 7.54519927,5.45827574 7.83831524,5.37452832 Z"/>

 
</svg>
