<svg xmlns="http://www.w3.org/2000/svg" viewBox="0 0 624.1 335.9">
  <path d="M0 273.9h622v62H0zM109.5 3.8v33.3L38.4 207.9h71.1v34H0v-33.3L71.1 37.8H3.4v-34h106.1zM169 104.1h51.4v34H169v69.7h64.6v34h-102V3.8h102v34H169v66.3zm125.2 0h51.4v34h-51.4v69.7h64.6v34h-102V3.8h102v34h-64.6v66.3zm199.6-45.5v8.5c0 24.5-7.5 40.1-24.1 48 20.1 7.8 27.9 25.8 27.9 51v19.4c0 36.7-19.4 56.5-56.8 56.5H382V3.8h56.5c38.6 0 55.3 18 55.3 54.8zm-74.5-20.8v62.9H434c13.9 0 22.4-6.1 22.4-25.2V62.3c0-17-5.8-24.5-19-24.5h-18.1zm0 96.9v73.1h21.4c12.6 0 19.4-5.8 19.4-23.5v-20.7c0-22.1-7.1-28.9-24.1-28.9h-16.7zm138.1-30.6h51.4v34h-51.4v69.7H622v34H520V3.8h102v34h-64.6v66.3z"></path>
</svg>
