<?xml version="1.0" encoding="utf-8"?>
<!-- Generator: Adobe Illustrator 21.1.0, SVG Export Plug-In . SVG Version: 6.00 Build 0)  -->
<svg version="1.1" id="Ebene_1" xmlns="http://www.w3.org/2000/svg" xmlns:xlink="http://www.w3.org/1999/xlink" x="0px" y="0px"
	 viewBox="0 0 992.8 277.1" style="enable-background:new 0 0 992.8 277.1;" xml:space="preserve">
<style type="text/css">
	.st0{fill:#0D8DBA;}
	.st1{fill:#868686;}
</style>
<g>
	<path class="st0" d="M121.8,0C54.5,0,0,54.5,0,121.8c0,42.9,22.2,80.7,55.8,102.4c2.3-5.2,6.6-10.1,11.2-14.3l109.3-0.3
		c4.7,4.3,9.2,9.3,11.5,14.6c33.6-21.7,55.8-59.4,55.8-102.4C243.6,54.5,189.1,0,121.8,0z M213.4,137.3c-2.2,0.3-4.1-0.6-5.3-2.2
		c-1.3-1.8-3.4-2.8-5.6-2.8h-2.1c0.2,2.1,0.3,4.2,0.3,6.3c0.1,22.9-10.3,44.1-28.2,58.5l-101,0.3C53.5,183,43,161.9,43,139
		c0-2.3,0.1-4.5,0.3-6.7h-2.1c-2.2,0-4.3,1-5.6,2.8c-1.2,1.6-3.1,2.5-5.3,2.2c-2.8-0.4-4.9-3-4.9-5.8v-12.1c0-2.9,2-5.4,4.9-5.8
		c1.1-0.1,2.1,0,3.1,0.4c6.1-48.2,43.2-85.4,88.2-85.5c16.3,0,31.7,4.8,44.9,13.4l8.4-6.8c-1.3-2.3-1.3-5.3,0.4-7.6
		c2.2-3.1,6.6-3.9,9.8-1.6c3.1,2.2,3.9,6.6,1.6,9.8c-1.5,2.2-4.1,3.2-6.6,2.9l-3.9,10.6c18.1,15.5,30.7,38.5,34.1,64.9
		c0.9-0.4,2-0.6,3.2-0.5c2.8,0.4,4.9,3,4.9,5.8v12.1C218.3,134.3,216.2,136.9,213.4,137.3z"/>
	<path class="st0" d="M121.8,54.7c-0.1,0-0.2,0-0.2,0c-40.3,0.1-74.1,26.9-83.8,62.9c1,0.6,2.2,0.9,3.4,0.9h4.6
		c9.2-32.1,39.6-55.7,75.8-55.8c0.1,0,0.1,0,0.2,0c36.2,0,66.7,23.7,75.9,55.8h4.7c1.2,0,2.4-0.3,3.4-0.9
		C196.1,81.5,162.1,54.7,121.8,54.7z"/>
	<path class="st0" d="M144.8,94.2H98.9C74.7,94.2,55,113.8,55,138v4c0,24.2,19.6,43.8,43.8,43.8h45.9c24.2,0,43.8-19.6,43.8-43.8v-4
		C188.6,113.8,169,94.2,144.8,94.2z M143.1,172.1c-6.6,2.4-15.8,3-22.8,3c-5.7,0-9.9-0.4-10.3-0.4c-1.9-0.2-3.3-1.9-3.2-3.8
		c0.2-1.9,1.9-3.3,3.8-3.2c0.2,0,19.5,1.7,30-2.2c1.8-0.7,3.8,0.3,4.5,2.1C145.9,169.4,144.9,171.4,143.1,172.1z M162.1,148.4
		c-4.5,4.8-10.7,7.4-17.3,7.4c-7.8,0-15.1-3.8-19.5-10.2c-1.1-1.6-0.7-3.8,0.9-4.9c1.6-1.1,3.8-0.7,4.9,0.9
		c3.2,4.5,8.3,7.2,13.8,7.2c4.7,0,9-1.9,12.2-5.3c3.2-3.4,4.8-7.8,4.6-12.5c-0.5-8.6-7.5-15.5-16.1-15.9c-5.1-0.2-9.9,1.9-13.3,5.7
		c-0.8,0.8-1.5,1.9-2.2,3.2l-10.3,19.2c-1.5,2.7-3.3,5-5.3,6.8c-4.3,3.7-9.8,5.8-15.6,5.8c-6.6,0-12.7-2.6-17.3-7.4
		c-4.5-4.8-6.8-11.1-6.5-17.7c0.7-12.1,10.7-22,22.8-22.5c8.5-0.3,16.5,3.9,21,11c1,1.6,0.6,3.8-1.1,4.8c-1.6,1-3.8,0.6-4.8-1.1
		c-3.3-5.1-8.8-8-14.9-7.8c-8.6,0.3-15.7,7.3-16.1,15.9c-0.3,4.7,1.4,9.1,4.6,12.5c3.2,3.4,7.5,5.3,12.2,5.3c4,0,7.9-1.5,11-4.1
		c1.4-1.2,2.7-2.9,3.8-4.8l10.3-19.2c1-1.8,2-3.3,3.1-4.5c4.8-5.4,11.6-8.3,18.8-8c12.1,0.5,22.1,10.4,22.8,22.5
		C169,137.4,166.6,143.6,162.1,148.4z"/>
</g>
<g>
	<path class="st0" d="M392.8,71.5l-62.4,86.6h62.9v25.4H290.6v-10.6L354.8,83h-59.9V59.4h97.9V71.5z"/>
	<path class="st0" d="M478.9,162.8c12.8,0,28.2-4.5,36-13.3l16.9,16.4C519,180.2,497.6,187,478.4,187c-40.8,0-67-25.9-67-65.7
		c0-37.8,26.4-64.7,65.2-64.7c37,0,62.9,21.1,62.9,63.9c0,3.5-0.3,7.3-0.5,11.1H438.4C440.7,150.8,456,162.8,478.9,162.8z
		 M477.4,79.8c-19.1,0-34.5,10.1-38.5,30h75.3C512.4,89.8,498.6,79.8,477.4,79.8z"/>
	<path class="st0" d="M625.5,162.8c12.8,0,28.2-4.5,36-13.3l16.9,16.4C665.5,180.2,644.1,187,625,187c-40.8,0-67-25.9-67-65.7
		c0-37.8,26.4-64.7,65.2-64.7c37,0,62.9,21.1,62.9,63.9c0,3.5-0.3,7.3-0.5,11.1H584.9C587.2,150.8,602.6,162.8,625.5,162.8z
		 M624,79.8c-19.1,0-34.5,10.1-38.5,30h75.3C658.9,89.8,645.1,79.8,624,79.8z"/>
	<path class="st0" d="M738,78.8c8.1-14.9,28.4-22.2,43.6-22.2c35.8,0,62.9,22.4,62.9,64.7c0,41.3-27.4,64.7-63.4,64.7
		c-16.9,0-33.2-6.3-43.1-22.2l-1.5,19.6h-24.4V7.5H738V78.8z M739.5,121.3c0,24.4,17.9,40.5,39.8,40.5c21.4,0,39.3-15.4,39.3-40.5
		c0-25.2-17.9-40.3-39.3-40.3C757.6,81,739.5,97.1,739.5,121.3z"/>
	<path class="st0" d="M932.1,162.8c12.8,0,28.2-4.5,36-13.3l16.9,16.4c-12.8,14.4-34.2,21.1-53.4,21.1c-40.8,0-67-25.9-67-65.7
		c0-37.8,26.4-64.7,65.2-64.7c37,0,62.9,21.1,62.9,63.9c0,3.5-0.3,7.3-0.5,11.1H891.6C893.8,150.8,909.2,162.8,932.1,162.8z
		 M930.6,79.8c-19.1,0-34.5,10.1-38.5,30h75.3C965.6,89.8,951.7,79.8,930.6,79.8z"/>
</g>
<g>
	<path class="st1" d="M583.3,224.8c10,0,16.7,6.5,16.7,18.3c0,11.5-7.8,18.3-17.8,18.3c-5.2,0-9.6-2.1-12.5-6.8l-0.3,6H564V211h5.7
		v20.8C572.3,227,578.4,224.8,583.3,224.8z M570.1,243c0,7.6,4.7,12.8,11.7,12.8c6.8,0,12.3-4.7,12.3-12.7c0-8.6-5.5-12.7-12.3-12.7
		C574.9,230.4,570.1,235.5,570.1,243z"/>
	<path class="st1" d="M610.4,277.1l7.4-17.1l-14.2-34.5h6.7l6.9,18.1l3.9,10.1l3.7-10l7.7-18.2h6.4l-22,51.5H610.4z"/>
	<path class="st1" d="M686.3,261.5c-17.6,0-25.9-12.5-25.9-25.8c0-13.1,8.7-25.8,25.9-25.8c6.6,0,13.1,2.5,18.2,7.5l-4.2,3.9
		c-3.9-3.7-8.9-5.5-13.9-5.5c-13.3,0-19.7,9.8-19.7,20c0.2,10.1,6.3,19.7,19.7,19.7c5,0,10.4-2.1,14.2-5.7l4.3,4.2
		C699.6,259.2,693.1,261.5,686.3,261.5z"/>
	<path class="st1" d="M740.1,254.4c-2.8,4.7-8.1,7-12.9,7c-10.1,0-17.9-6.9-17.9-18.3c0-11.8,8.1-18.3,18-18.3
		c5.5,0,10.3,2.2,13,7.1l0.1-6.4h5.7v35h-5.7L740.1,254.4z M714.9,243.3c0,7.7,5.7,12.8,12.6,12.8c8.5,0,12.7-6.4,12.7-13
		c0-6.4-4.2-12.8-12.7-12.8C720.6,230.3,714.9,235,714.9,243.3z"/>
	<path class="st1" d="M762.5,230.7c2.2-4.2,6.4-5.9,10.3-5.9c4.8,0,9.7,2.1,11.7,7.6c2.6-5.4,7.4-7.6,12.4-7.6
		c9.3,0,14.8,5.9,14.8,15.6v20.2h-5.9v-20.2c0-5.7-3.3-10.1-9.1-10.1c-5.7,0-9.6,4.6-9.6,10.3v20h-5.8v-20c0-5.7-3.6-10.3-9.3-10.3
		c-5.8,0-9.6,4.8-9.6,10.5v19.8h-5.8v-34.9h5.5L762.5,230.7z"/>
	<path class="st1" d="M847.6,254.9c-3.1,4.5-7,6.4-11.9,6.4c-8.9,0-14.4-6-14.4-16.3v-19.5h5.8v19.5c0,6.8,3.1,10.9,9.8,10.9
		c6.4,0,10.5-5.2,10.5-11.7v-18.8h5.9v35h-5.4L847.6,254.9z"/>
	<path class="st1" d="M870.1,225.6l0.3,5.5c3.1-4.5,7.1-6.3,11.8-6.3c8.7,0,14.9,5.8,14.9,16.4v19.4h-5.9v-19.3c0-7-3.4-11-10.1-11
		c-6.4,0-10.5,5.3-10.5,11.5v18.8h-5.7v-34.9H870.1z"/>
	<path class="st1" d="M941.6,260.5h-5.5l-0.3-6.4c-2.8,4.8-7.9,7.3-13.1,7.3c-10,0-17.7-6.4-17.7-18.3c0-11.8,7.7-18.3,17.7-18.3
		c4.9,0,10.5,2.4,13,7.1v-21h5.8l0.1-0.1V260.5z M910.7,243c0,8.6,5.6,12.9,12.4,12.9c7,0,12.4-5.3,12.4-13
		c0-7.5-5.5-12.7-12.5-12.7C916.3,230.2,910.7,234.8,910.7,243z"/>
	<path class="st1" d="M980.8,254.4c-2.8,4.7-8.1,7-12.9,7c-10.1,0-17.9-6.9-17.9-18.3c0-11.8,8.1-18.3,18-18.3
		c5.5,0,10.3,2.2,13,7.1l0.1-6.4h5.7v35h-5.7L980.8,254.4z M955.6,243.3c0,7.7,5.7,12.8,12.6,12.8c8.5,0,12.7-6.4,12.7-13
		c0-6.4-4.2-12.8-12.7-12.8C961.3,230.3,955.6,235,955.6,243.3z"/>
</g>
</svg>
