<!--
  ~ @license Identity
  ~ Copyright Camunda Services GmbH and/or licensed to Camunda Services GmbH under one or more contributor license
  ~ agreements. Licensed under a proprietary license. See the License.txt file for more information. You may not use this
  ~ file except in compliance with the proprietary license.
  -->

<svg id="Layer_1" width="100" height="100" xmlns="http://www.w3.org/2000/svg" viewBox="0 0 512 512">
    <defs>
        <style>.cls-1{fill:#939598;}.cls-2{fill:url(#linear-gradient);}</style>
        <linearGradient id="linear-gradient" x1="71.72" y1="256" x2="440.28" y2="256" gradientUnits="userSpaceOnUse">
            <stop offset="0.11" stop-color="#ff1e00"/>
            <stop offset="0.25" stop-color="#ff2700"/>
            <stop offset="0.48" stop-color="#ff3f00"/>
            <stop offset="0.77" stop-color="#ff6700"/>
            <stop offset="1" stop-color="#ff8b00"/>
        </linearGradient>
    </defs>
    <path class="cls-1"
          d="M256,10a246.06,246.06,0,0,1,95.75,472.67A246.06,246.06,0,0,1,160.25,29.33,244.37,244.37,0,0,1,256,10m0-10C114.62,0,0,114.62,0,256S114.62,512,256,512,512,397.38,512,256,397.38,0,256,0Z"/>
    <path class="cls-2"
          d="M276.34,345.31a20.68,20.68,0,1,1-20.68-20.68A20.68,20.68,0,0,1,276.34,345.31Zm163.94-93v28.48a10.94,10.94,0,0,1-9,8.46,10.67,10.67,0,0,1-1.68.1,10.82,10.82,0,0,1-8.82-4.35A13.37,13.37,0,0,0,410,279.75h-3.75c.35,4,.58,8,.59,12.07a141.73,141.73,0,0,1-3.74,32.8c-10.43,46.9-44.75,85.33-90.21,103.1a156,156,0,0,1-56.88,10.65H256a156,156,0,0,1-56.88-10.65c-45.46-17.77-79.78-56.2-90.21-103.1a141.73,141.73,0,0,1-3.74-32.8c0-4.07.24-8.09.59-12.07H102A13.37,13.37,0,0,0,91.25,285a10.82,10.82,0,0,1-8.82,4.35,10.67,10.67,0,0,1-1.68-.1,10.94,10.94,0,0,1-9-8.46V252.35a10.92,10.92,0,0,1,9-8.46,10.72,10.72,0,0,1,1.69-.1,10.88,10.88,0,0,1,4.42.89,204.75,204.75,0,0,1,19.1-64l.31-.64c.42-.85.85-1.69,1.28-2.53.28-.56.57-1.12.86-1.68l.89-1.68c.47-.87,1-1.74,1.43-2.61l.45-.82A185.82,185.82,0,0,1,152,120.56l-7.38-20.24a13.41,13.41,0,1,1,10-6.6l16,13a157.51,157.51,0,0,1,70.8-24.83l1-.09,2.1-.17,1.73-.12,2.23-.13,2.63-.1,1.28,0,2.57,0h2.2l2.57,0,1.28,0,2.63.1,2.23.13,1.73.12,2.1.17,1,.09a157.51,157.51,0,0,1,70.8,24.83l16-13a13.39,13.39,0,1,1,10,6.6L360,120.56a185.82,185.82,0,0,1,40.79,50.13l.45.82c.48.87,1,1.74,1.43,2.61l.89,1.68c.29.56.58,1.12.86,1.68.43.84.86,1.68,1.28,2.52.1.22.21.44.32.66a205,205,0,0,1,19.09,64,10.88,10.88,0,0,1,4.42-.89,10.72,10.72,0,0,1,1.69.1A10.92,10.92,0,0,1,440.28,252.35ZM299.79,206.79H212.21a83.8,83.8,0,0,0-83.8,83.79v7.58c0,46.28,37.52,102.6,83.8,102.6h87.58c46.28,0,83.8-56.32,83.8-102.6v-7.58A83.8,83.8,0,0,0,299.79,206.79ZM410,253.43a13.57,13.57,0,0,0,6.57-1.71c-18.54-68.94-83.22-120.08-160.12-120.36h-1c-76.9.28-141.58,51.42-160.12,120.36a13.57,13.57,0,0,0,6.57,1.71h8.62c17.61-61.46,76-106.71,145.14-106.77h.56c69.13.06,127.53,45.31,145.14,106.77ZM234.79,293.08l-16.62-16.62,16.62-16.62a9.4,9.4,0,0,0-13.3-13.29l-16.61,16.62-16.62-16.62A9.4,9.4,0,0,0,175,259.84l16.61,16.62L175,293.08a9.4,9.4,0,0,0,13.29,13.29l16.62-16.62,16.61,16.62a9.4,9.4,0,1,0,13.3-13.29ZM336.3,246.55a9.41,9.41,0,0,0-13.3,0l-16.61,16.62-16.62-16.62a9.4,9.4,0,0,0-13.29,13.29l16.62,16.62-16.62,16.62a9.4,9.4,0,0,0,13.29,13.29l16.62-16.62L323,306.37a9.4,9.4,0,0,0,13.3-13.29l-16.62-16.62,16.62-16.62A9.4,9.4,0,0,0,336.3,246.55Z"/>
</svg>
