<svg viewBox="0 0 17 15" fill="none" xmlns="http://www.w3.org/2000/svg">
<path fill-rule="evenodd" clip-rule="evenodd" d="M9.7219 5.2691C8.6668 4.2126 7.7435 2.4757 7.0638 1.00772C7.0445 1.00316 7.0206 1 6.9941 1C6.9675 1 6.9436 1.00316 6.9243 1.00773C6.2447 2.4757 5.322 4.2122 4.2662 5.2687C3.2106 6.325 1.47501 7.2485 0.00802994 7.9287C0.00328994 7.9483 0 7.9728 0 8C0 8.0271 0.00324982 8.0515 0.00793982 8.071C1.47467 8.751 3.2101 9.6743 4.2659 10.7311C5.322 11.7875 6.2448 13.5244 6.9245 14.9923C6.9437 14.9969 6.9675 15 6.994 15C7.0205 15 7.0444 14.9968 7.0636 14.9923C7.7433 13.5244 8.666 11.7877 9.7215 10.7315M9.7215 10.7315C10.773 9.6791 12.4531 8.7468 13.8721 8.0577C13.8756 8.0415 13.878 8.0217 13.878 7.9998C13.878 7.9779 13.8756 7.9582 13.8721 7.942C12.4537 7.2529 10.7734 6.3207 9.7219 5.2691" fill="currentColor"/>
<path fill-rule="evenodd" clip-rule="evenodd" d="M15.4808 1.52468C15.104 1.14737 14.7742 0.52704 14.5315 0.00275993C14.5246 0.00112993 14.5161 0 14.5066 0C14.4971 0 14.4885 0.00112993 14.4817 0.00275993C14.2389 0.52705 13.9094 1.14721 13.5323 1.52455C13.1553 1.9018 12.5355 2.2316 12.0116 2.4745C12.0099 2.4815 12.0087 2.4903 12.0087 2.5C12.0087 2.5097 12.0099 2.5184 12.0115 2.5254C12.5354 2.7682 13.1552 3.098 13.5322 3.4754C13.9094 3.8527 14.239 4.473 14.4817 4.9972C14.4886 4.9989 14.4971 5 14.5066 5C14.516 5 14.5246 4.9989 14.5314 4.9972C14.7742 4.473 15.1037 3.8528 15.4806 3.4755M15.4806 3.4755C15.8562 3.0997 16.4562 2.7667 16.963 2.5206C16.9643 2.5148 16.9651 2.5078 16.9651 2.4999C16.9651 2.4921 16.9643 2.4851 16.963 2.4793C16.4565 2.2332 15.8563 1.90026 15.4808 1.52468" fill="currentColor"/>
</svg>
