<svg xmlns="http://www.w3.org/2000/svg" width="26" height="26" fill="none"><path fill-rule="evenodd" clip-rule="evenodd" d="M4.707 9.499C6.05 6.229 9.46 3.953 12.997 4c1.38-.002 2.76.32 3.996.936 3.156 1.526 5.217 5.02 4.99 8.524-.135 3.565-2.625 6.877-5.998 8.026-3.255 1.188-7.14.256-9.5-2.283C4.035 16.7 3.306 12.71 4.708 9.5Zm16.01 1.3c-.901-3.376-4.225-5.886-7.72-5.826-3.168-.037-6.19 1.971-7.395 4.9-1.39 3.167-.42 7.16 2.288 9.32 2.688 2.292 6.909 2.444 9.755.351 2.74-1.883 4.017-5.565 3.073-8.745Zm-8.96 2.2c-.385 1.337-.77 2.674-1.24 3.984.431-.43.836-.885 1.24-1.34.404-.455.808-.91 1.24-1.34l2.48 2.68a540.75 540.75 0 0 1-1.24-3.985c-.41-1.329-.819-2.658-1.24-3.984-.47 1.31-.855 2.647-1.24 3.984Zm1.939-.149c-.225-.73-.45-1.46-.681-2.187-.259.72-.47 1.456-.682 2.191-.199.69-.397 1.38-.635 2.057-.037.164.29-.21.644-.616.25-.286.514-.589.673-.728l1.362 1.47c-.232-.727-.456-1.457-.681-2.187Z" /></svg>