<svg xmlns="http://www.w3.org/2000/svg" width="26" height="26" viewBox="0 0 26 26">
  <path fill-rule="evenodd" d="M13,22 C8.02943725,22 4,17.9705627 4,13 C4,8.02943725 8.02943725,4 13,4 C17.9705627,4 22,8.02943725 22,13 C22,17.9705627 17.9705627,22 13,22 Z M13,20 C16.8659932,20 20,16.8659932 20,13 C20,9.13400675 16.8659932,6 13,6 C9.13400675,6 6,9.13400675 6,13 C6,16.8659932 9.13400675,20 13,20 Z M8,17.0106615 L11.3517668,8.56707086 L14.7184665,12.9004374 L17.2115936,8 L17.6247992,8.12815801 L15.3697474,16.8450768 L11.7937986,12.6726639 L10.8946132,13.8202263 L9.80527009,15.2065255 L8.59901585,16.8450768 L8,17.0106615 Z"/>
</svg>
