<svg xmlns="http://www.w3.org/2000/svg" width="26" height="26" viewBox="0 0 26 26" fill="none">
<path fill-rule="evenodd" clip-rule="evenodd" d="M4.70711 9.49915C6.04925 6.2302 9.45858 3.95275 12.9969 4.00074C14.3777 3.99877 15.7576 4.32038 16.9933 4.9371C20.149 6.4632 22.21 9.95852 21.983 13.462C21.8476 17.0274 19.3576 20.3401 15.9847 21.4888C12.7303 22.6768 8.84437 21.7449 6.48586 19.2058C4.03363 16.7009 3.30523 12.711 4.70711 9.49915ZM20.7179 10.8002C19.8156 7.42354 16.4918 4.9128 12.9969 4.97358C9.82913 4.93641 6.80607 6.9446 5.60176 9.87296C4.21227 13.0406 5.18168 17.035 7.88989 19.1945C10.5778 21.4872 14.7987 21.6386 17.645 19.5463C20.3851 17.6626 21.6618 13.9805 20.7179 10.8002ZM12.997 8.78589L9.16962 15.6566H16.8243L12.997 8.78589ZM15.9966 15.1701L12.997 9.78535L9.99731 15.1701H15.9966Z"/>
</svg>