<svg xmlns="http://www.w3.org/2000/svg" width="26" height="26" viewBox="0 0 26 26">
  <path fill-rule="evenodd" d="M15,0 L13.343796,0.972660371 L13.0597761,1.14261939 C11.9545328,1.8165572 11.2170504,2.42124212 10.765525,2.94391913 C10.2755334,3.51112157 10.1206182,3.95669814 10.1157304,4.35611523 C10.1073411,5.04181086 10.6402915,5.76395204 11.3535822,6.52387334 L11.694284,6.87729372 L11.694284,6.87729372 L12.3660224,7.55581652 C13.035329,8.25050432 13.6469857,9.00819492 13.7478083,9.95945846 C13.815657,10.5995821 13.6035473,11.2814554 13.0821369,11.9331899 C12.6055971,12.5288357 11.8803332,13.121546 10.8299966,13.7550398 L10.412078,14 L0,14 L1.6870506,13.0254955 C2.82976539,12.3653689 3.54450868,11.7757687 3.93832573,11.2835187 C4.33380665,10.7891914 4.41955758,10.4281815 4.38146108,10.0687428 C4.3266488,9.55159592 3.88495743,8.95544043 3.30219181,8.31793343 L2.97180624,7.9663277 L2.97180624,7.9663277 L2.304997,7.2839251 L2.304997,7.2839251 L1.98936492,6.94884385 C1.31531048,6.20914658 0.731057863,5.37517314 0.743680253,4.34347964 C0.751974512,3.66554642 1.04370249,2.96230685 1.64705708,2.26387713 C2.20322967,1.62006372 3.02374125,0.961931315 4.18987148,0.2518481 L4.61310631,0 L15,0 Z M11.1561601,1.29230769 L4.95949398,1.29230769 C3.80536406,1.96701655 3.04104414,2.57140097 2.58421431,3.08947253 C2.11070079,3.62646443 1.9609933,4.0483091 1.95599324,4.42645154 C1.94691673,5.17549868 2.63400638,5.970446 3.48170302,6.81330904 L3.96824892,7.29244496 L3.96824892,7.29244496 L4.29114694,7.62143686 C4.87275818,8.23422747 5.37689718,8.90580065 5.46621113,9.73134649 C5.53177601,10.3373757 5.3267624,10.9828947 4.82288462,11.5999162 C4.61338864,11.8564537 4.35237279,12.1123996 4.03569076,12.37159 L3.78767705,12.5666512 L10.0001853,12.5666512 C11.0354442,11.969191 11.6945664,11.4336504 12.0610722,10.9848481 C12.4432523,10.5168498 12.5260839,10.1750701 12.4892684,9.83477401 C12.426667,9.25614201 11.8419409,8.57305166 11.1270878,7.84433631 L10.4827068,7.19828402 L10.4827068,7.19828402 L10.1776854,6.88105164 C9.52628832,6.18075576 8.96165815,5.39120323 8.97385534,4.41445186 C8.98187115,3.77262678 9.26375093,3.10684359 9.84681549,2.44561389 C10.1235382,2.13179465 10.4693302,1.81444435 10.8927352,1.48875816 L11.1561601,1.29230769 Z M10.7584615,10.2083185 L10.7584615,11.330143 L6.41160838,11.330143 L6.41160838,10.2083185 L10.7584615,10.2083185 Z M10.4324475,7.92014402 L10.4324475,9.0420581 L6.0855944,9.0420581 L6.0855944,7.92014402 L10.4324475,7.92014402 Z M8.42293355,5.3621198 L8.42293355,6.48403405 L3.96740908,6.48403405 L3.96740908,5.3621198 L8.42293355,5.3621198 Z M8.25902097,2.9390431 L8.25902097,4.0609569 L3.8034965,4.0609569 L3.8034965,2.9390431 L8.25902097,2.9390431 Z" transform="translate(5.5 6)"/>
</svg>
