<svg xmlns="http://www.w3.org/2000/svg" width="26" height="26" fill="none"><path fill-rule="evenodd" clip-rule="evenodd" d="M12.818 4c-4.35.004-8.349 3.629-8.76 7.964-.44 3.693 1.639 7.553 5.03 9.122 3.15 1.54 7.194 1.052 9.807-1.318 2.658-2.3 3.82-6.222 2.652-9.567-1.11-3.412-4.388-6.025-7.997-6.183A10.418 10.418 0 0 0 12.818 4Zm.178 2.816c3.204-.093 6.14 2.732 6.178 5.937.139 2.932-2.064 5.81-4.986 6.302-2.827.567-5.963-1.067-6.952-3.812-1.066-2.714.021-6.147 2.614-7.571a6.234 6.234 0 0 1 3.146-.856ZM11.76 12.99c.385-1.336.77-2.672 1.24-3.98.42 1.324.83 2.652 1.239 3.98.409 1.328.818 2.656 1.239 3.98L13 14.295a29.29 29.29 0 0 0-1.24 1.338c-.403.455-.807.91-1.239 1.339.47-1.309.855-2.645 1.24-3.981Z" /></svg>