<?xml version="1.0" encoding="UTF-8"?>
<svg width="26px" height="26px" viewBox="0 0 26 26" version="1.1" xmlns="http://www.w3.org/2000/svg" xmlns:xlink="http://www.w3.org/1999/xlink">
<path fill-rule="evenodd" d="M12.1585543,7.00014722 C11.9401542,7.00539832 11.7378665,7.08758313 11.5645202,7.19935801 L11.5642337,7.19954909 L11.5639471,7.19974017 C10.6009393,7.82334137 7.30419522,10.1112345 6.57950604,10.6086455 L6.57947425,10.6086773 L6.57944229,10.6086773 C5.92480553,11.0581384 5.48383458,11.7365212 5.23031145,12.5402514 L5.23027966,12.5404106 L5.23024787,12.540538 C4.96631972,13.3796974 5.00017647,14.2938291 5.00272849,15.059427 L5.00276028,15.05965 L5.00276028,15.059841 C5.00535159,15.6363167 5.01908028,16.1393891 5.16859952,16.7495019 C5.16860962,16.749554 5.168653,16.7496095 5.1686631,16.7496616 C5.38479419,17.6375659 5.7899099,18.3434001 6.37322597,18.8216006 C6.95651775,19.2997815 7.70593801,19.5368698 8.55317668,19.5395045 C11.525613,19.5506627 14.4998106,19.5546538 17.4738454,19.5395045 L17.4740998,19.5395045 L17.4743558,19.5395045 C17.7945196,19.5374046 18.10503,19.4148791 18.304315,19.177957 C18.5035852,18.9410529 18.5844093,18.6287099 18.5886107,18.2834189 C18.5914182,18.0636271 18.5621841,17.8563696 18.4934313,17.6713944 L18.8130408,17.6713944 C19.1414332,17.6713944 19.4406859,17.5637476 19.6468542,17.362516 C19.8529541,17.1613512 19.9570337,16.8981655 20.0126684,16.6246456 C20.0126733,16.6246252 20.0126652,16.6246023 20.0126684,16.6245818 C20.0933277,16.2293934 20.0506218,15.8366613 19.8891174,15.5073967 C20.2603265,15.4702691 20.5726743,15.268804 20.7470994,14.9971101 C20.9391113,14.6980237 20.9988626,14.3453618 20.999989,13.9944646 C21.0011306,13.6279847 20.9133286,13.2722534 20.7127719,12.9838265 C20.5122169,12.6953996 20.1704817,12.4837812 19.7757235,12.4832202 L19.775629,12.4832202 L19.7755328,12.4832202 C19.6314896,12.4831 19.4767594,12.482651 19.3085852,12.4824561 C19.4145478,12.2511003 19.4608111,11.9894752 19.4599666,11.7186978 L19.4599666,11.7181248 L19.4599666,11.7175197 C19.4576498,11.3536444 19.3637894,11.0129606 19.1506105,10.7506659 C18.9374364,10.488376 18.5986277,10.3294187 18.2282094,10.3294128 C16.0052485,10.3254288 14.0845872,10.3466458 11.9561273,10.3408764 C11.8785486,10.3406487 11.8381886,10.3398664 11.7696538,10.3395071 C11.8701162,10.2384801 11.9678492,10.1397993 12.075189,10.0330486 C12.4055141,9.70453632 12.7229919,9.39496842 12.8869984,9.18274076 C13.2790918,8.67809524 13.3376151,7.9943779 13.0075248,7.49145519 C12.8334923,7.22558511 12.5782732,7.04570937 12.3042686,7.00826728 C12.2700072,7.00358551 12.2360646,7.0009422 12.2024661,7.00014722 C12.1877666,6.99995093 12.1731143,6.99995093 12.1585543,7.00014722 Z M12.186035,7.71202026 C12.193846,7.71202026 12.2011352,7.7126714 12.2078794,7.71359304 C12.2618324,7.72096558 12.3196053,7.7402253 12.4119939,7.88143845 L12.4121533,7.88172491 L12.4123123,7.88197973 C12.5413835,8.07852307 12.5356813,8.47490048 12.3246164,8.74629849 L12.324266,8.74677619 L12.3239158,8.74722193 C12.2471701,8.84657747 11.9023506,9.20097173 11.5732135,9.52830282 C11.2440761,9.85563375 10.9311568,10.1577474 10.7763384,10.3463535 C10.6264266,10.5289829 10.6826397,10.6775932 10.7219504,10.7720965 C10.7612609,10.8665995 10.804413,10.9795662 11.0136018,11.0292618 C11.074787,11.0437967 11.0781571,11.0396262 11.0977633,11.0409799 C11.1173693,11.042334 11.1376454,11.0432621 11.1614814,11.0441324 C13.5376634,11.0710642 16.0390177,11.0400312 18.2275735,11.0412985 L18.2278914,11.0412985 L18.2282094,11.0412985 C18.4170224,11.0412985 18.5141876,11.0963307 18.5981646,11.1996545 C18.6820798,11.3029053 18.74645,11.4792566 18.748082,11.7215639 C18.7487521,11.9730997 18.6845433,12.1778389 18.5966044,12.2986255 C18.5085922,12.4195103 18.4172833,12.4767767 18.2336874,12.4772974 C16.5654951,12.4764051 14.8973091,12.4727596 13.2291212,12.4688589 L13.2291212,13.1840245 C15.4109943,13.1875025 17.5928641,13.1930828 19.7747372,13.1951058 C19.9405034,13.1953415 20.0341339,13.2547837 20.1283235,13.3902408 C20.2225116,13.5256978 20.2888595,13.7466573 20.2880937,13.9922037 L20.2880937,13.9922355 C20.2872569,14.2549579 20.2311331,14.4831003 20.1480347,14.6125403 C20.0649348,14.7419801 19.9889482,14.8019762 19.770883,14.8034719 C17.5024699,14.802522 15.3162682,14.7976384 13.2290894,14.8003194 L13.2290894,15.5150709 C15.0919407,15.5151318 16.9547797,15.5177547 18.8176271,15.5158032 C19.0069586,15.5207424 19.1262691,15.6038245 19.2238826,15.7693066 C19.3242595,15.9394766 19.3723229,16.2023235 19.3151767,16.4822749 L19.3151767,16.482434 L19.3151767,16.4825615 C19.2768402,16.6711496 19.2154389,16.7888802 19.1496551,16.853089 C19.0838713,16.9172979 19.0046925,16.9595082 18.8131044,16.9595082 L13.2281022,16.9595082 C13.2287938,17.1988481 13.2295425,17.438201 13.2302676,17.6775392 C14.6431744,17.6780528 16.0561402,17.6678206 17.4689739,17.6765203 L17.4690702,17.6765203 L17.4691647,17.6765203 C17.6281877,17.6775572 17.6963551,17.7171165 17.7595742,17.7968236 C17.8227935,17.8765324 17.8800243,18.030167 17.8768843,18.2744388 L17.8768843,18.2745675 L17.8768843,18.2746947 C17.8739968,18.5127092 17.8174149,18.6510085 17.7596069,18.7197334 C17.7018315,18.7884193 17.6355439,18.8264885 17.4700565,18.8276183 C14.4991616,18.8427514 11.5271515,18.8387733 8.55594701,18.8276183 L8.55581968,18.8276183 L8.55569235,18.8276183 C7.836566,18.8254238 7.2684311,18.6349656 6.82453901,18.2710639 C6.38064709,17.9071638 6.04896127,17.3563483 5.86029653,16.5811796 L5.860201,16.5808932 L5.86013725,16.5805747 C5.72925101,16.0467399 5.71717014,15.6245107 5.71461405,15.0570389 L5.71461405,15.0566249 C5.7120141,14.2779247 5.69708317,13.4289904 5.90933496,12.7541418 C6.12688397,12.0646231 6.47870909,11.5413847 6.98235373,11.1955786 L6.98238569,11.1955466 C7.71587119,10.6920976 11.0322704,8.39218352 11.9503001,7.79765897 L11.950332,7.79762718 C12.0365311,7.74205245 12.1079574,7.71840671 12.161038,7.7131791 C12.1698864,7.71230782 12.1782239,7.71202026 12.186035,7.71202026 Z" id="Mask"></path>
</svg>
