<svg width="26" height="26" viewBox="0 0 26 26" xmlns="http://www.w3.org/2000/svg">
  <path d="M13,4 C17.9705627,4 22,8.02943725 22,13 C22,17.9705627 17.9705627,22 13,22 C8.02943725,22 4,17.9705627 4,13 C4,8.02943725 8.02943725,4 13,4 Z M13,6 C9.13400675,6 6,9.13400675 6,13 C6,16.8659932 9.13400675,20 13,20 C16.8659932,20 20,16.8659932 20,13 C20,9.13400675 16.8659932,6 13,6 Z M13,7 C16.3137085,7 19,9.6862915 19,13 C19,16.3137085 16.3137085,19 13,19 C9.6862915,19 7,16.3137085 7,13 C7,9.6862915 9.6862915,7 13,7 Z"/>
</svg>