<svg xmlns="http://www.w3.org/2000/svg" width="26" height="26" viewBox="0 0 26 26">
  <path d="M17,10.5523424 L17,10 L13,12.7911695 L9,10 L9,11.1046849 L13,14 L17,11.1046849 L17,10.5523424 L17,16 L9,16 L9,10 L17,10 L17,10.5523424 Z M13,23 C7.4771525,23 3,18.5228475 3,13 C3,7.4771525 7.4771525,3 13,3 C18.5228475,3 23,7.4771525 23,13 C23,18.5228475 18.5228475,23 13,23 Z M13,20 C16.8659932,20 20,16.8659932 20,13 C20,9.13400675 16.8659932,6 13,6 C9.13400675,6 6,9.13400675 6,13 C6,16.8659932 9.13400675,20 13,20 Z"/>
</svg>
