<svg xmlns="http://www.w3.org/2000/svg" width="26" height="26" viewBox="0 0 26 26">
  <path fill-rule="evenodd" d="M14,8.16666667 L11.5196463,8.16666667 C11.4320907,8.50684392 11.3071425,8.83200975 11.1494444,9.13752136 L11.0251027,9.36289737 L12.8456229,11.1834175 L11.1957071,12.8333333 L9.37834717,11.0159734 C9.07956606,11.1932999 8.75930133,11.338232 8.42239298,11.4459299 L8.16666667,11.5196463 L8.16666667,14 L5.83333333,14 L5.83333333,11.5196463 C5.49078041,11.4314792 5.16344931,11.3053955 4.85608077,11.1461357 L4.62937143,11.0205444 L2.81658249,12.8333333 L1.16666667,11.1834175 L2.97945561,9.37062857 C2.8039041,9.07353761 2.66034343,8.75529891 2.55351432,8.42065319 L2.48035373,8.16666667 L0,8.16666667 L0,5.83333333 L2.48035373,5.83333333 C2.59056252,5.40514218 2.76001623,5.00073513 2.97945561,4.62937143 L1.16666667,2.81658249 L2.81658249,1.16666667 L4.62937143,2.97945561 C5.00073513,2.76001623 5.40514218,2.59056252 5.83333333,2.48035373 L5.83333333,0 L8.16666667,0 L8.16666667,2.48035373 C8.59782623,2.59132653 9.00487079,2.76236853 9.37834717,2.98402656 L11.1957071,1.16666667 L12.8456229,2.81658249 L11.0251027,4.63710263 C11.2423313,5.00634555 11.4102018,5.40811177 11.5196463,5.83333333 L14,5.83333333 L14,8.16666667 Z M7,4.66666667 C6.11851774,4.66666667 5.35119952,5.15546099 4.95430284,5.8767921 L4.89993927,5.98182912 L4.82828838,6.14499893 L4.80223206,6.21436156 C4.77760659,6.28324258 4.7561274,6.35361952 4.73796761,6.42531929 L4.70856015,6.55754911 L4.69825851,6.61512487 C4.68777828,6.6782701 4.67983362,6.74227204 4.67453267,6.80702256 L4.66666667,7 L4.67836081,7.2350717 L4.67836081,7.2350717 L4.69819097,7.38446799 L4.7085834,7.442572 C4.72012085,7.50266363 4.73396344,7.56193564 4.75001559,7.62029243 L4.80216598,7.78545358 L4.86826324,7.95018553 L4.89975734,8.01779625 C5.27782665,8.79650649 6.07622201,9.33333333 7,9.33333333 C7.89102737,9.33333333 8.66540489,8.8338959 9.0584599,8.09969366 L9.13190818,7.94980143 L9.1663484,7.86848877 L9.1663484,7.86848877 L9.19783402,7.78545358 C9.22239341,7.71675742 9.2438726,7.64638048 9.26203239,7.57468071 L9.29143985,7.44245089 L9.31554664,7.28952827 L9.31554664,7.28952827 L9.32170291,7.2344339 C9.32939474,7.15733275 9.33333333,7.07912633 9.33333333,7 L9.32163919,6.7649283 L9.32163919,6.7649283 L9.30180903,6.61553201 L9.2914166,6.557428 C9.27921049,6.49385371 9.2644243,6.4311968 9.24717122,6.36957048 L9.19783402,6.21454642 L9.17177969,6.14517171 C8.83072667,5.27938449 7.98691729,4.66666667 7,4.66666667 Z" transform="translate(6 6)"/>
</svg>
