<svg xmlns="http://www.w3.org/2000/svg" width="26" height="26" fill="none"><path fill-rule="evenodd" clip-rule="evenodd" d="M4.07 11.878c.456-4.363 4.54-7.966 8.916-7.876.23 0 .46.009.69.026 3.512.202 6.687 2.723 7.822 6.035 1.235 3.36.12 7.348-2.55 9.692-2.642 2.434-6.774 2.916-9.961 1.313-3.375-1.608-5.398-5.5-4.917-9.19Zm16.913.307c-.314-4.012-4.086-7.364-8.099-7.212-2.327.008-4.6 1.137-6.08 2.923-2.314 2.683-2.395 6.905-.356 9.765 1.987 2.93 6.025 4.114 9.314 2.896 3.384-1.166 5.607-4.832 5.221-8.372Zm-7.94-6.337C9.332 5.73 5.917 8.994 5.85 12.711c-.164 3.36 2.322 6.657 5.644 7.297 3.078.675 6.516-.909 7.89-3.775 1.42-2.8.784-6.526-1.639-8.571-1.283-1.139-2.982-1.812-4.7-1.814Zm6.157 7.098c.053-3.28-2.928-6.23-6.2-6.144a6.228 6.228 0 0 0-3.156.864c-2.48 1.372-3.61 4.581-2.75 7.246.822 2.796 3.831 4.63 6.686 4.254 3.04-.306 5.478-3.188 5.42-6.22ZM14 9.108v2.003H9.505v3.781H14v2.003l3.278-3.893L14 9.108Zm2.58 3.875-2.031-2.419v1.108h-4.433v2.64h4.433v1.09l2.03-2.42Z"/></svg>