<?xml version="1.0" encoding="UTF-8"?>
<svg width="26px" height="26px" viewBox="0 0 26 26" version="1.1" xmlns="http://www.w3.org/2000/svg" xmlns:xlink="http://www.w3.org/1999/xlink">
<path d="M13,3 L23,13 L13,22.7989899 L3,13 L13,3 Z M13,5.8 L5.8,13 L13,20.2 L20.2,13 L13,5.8 Z M13,9 C15.209139,9 17,10.790861 17,13 C17,15.209139 15.209139,17 13,17 C10.790861,17 9,15.209139 9,13 C9,10.790861 10.790861,9 13,9 Z M13,10.2 C11.4536027,10.2 10.2,11.4536027 10.2,13 C10.2,14.5463973 11.4536027,15.8 13,15.8 C14.5463973,15.8 15.8,14.5463973 15.8,13 C15.8,11.4536027 14.5463973,10.2 13,10.2 Z"/>
</svg>
