<svg width="26" height="26" viewBox="0 0 26 26" fill="none" xmlns="http://www.w3.org/2000/svg">
<g id="compensation-start-event">
<path id="path4481" fill-rule="evenodd" clip-rule="evenodd" d="M12.4968 3.00079C8.76184 2.95012 5.1631 5.3541 3.7464 8.80465C2.26663 12.1949 3.0355 16.4065 5.62397 19.0506C8.11351 21.7307 12.2153 22.7144 15.6506 21.4604C19.2108 20.2479 21.8391 16.7512 21.982 12.9877C22.2217 9.28955 20.0462 5.60005 16.7152 3.98916C15.4108 3.33817 13.9543 2.9987 12.4968 3.00079ZM12.4966 4.028C16.1856 3.96383 19.6941 6.61406 20.6466 10.1783C21.6429 13.5353 20.2953 17.422 17.403 19.4103C14.3985 21.6188 9.94308 21.459 7.10588 19.039C4.24722 16.7595 3.22394 12.5432 4.69063 9.19956C5.96185 6.10851 9.15285 3.98876 12.4966 4.028ZM7.7583 12.4983L12.1608 9.38965V12.3936L16.4139 9.38965V15.609C15.8742 15.2275 15.3345 14.8462 14.7947 14.4649C13.9166 13.8445 13.0384 13.2242 12.1608 12.6032V15.609L10.4995 14.4351L7.7583 12.4983ZM11.6467 10.3794V14.6136L8.64697 12.4964L11.6467 10.3794ZM15.9015 14.6175V10.3794L12.9019 12.4984L15.9015 14.6175Z" />
</g>
</svg>
