<svg width="26" height="26" viewBox="0 0 26 26" fill="none" xmlns="http://www.w3.org/2000/svg">
<path fill-rule="evenodd" clip-rule="evenodd" d="M12.9843 3.00181C8.12162 2.9024 3.58402 6.90569 3.0782 11.7538C2.54366 15.854 4.7913 20.1787 8.54104 21.9656C12.0818 23.7475 16.6731 23.2109 19.6096 20.5067C22.5751 17.902 23.814 13.4697 22.4421 9.73675C21.1807 6.05733 17.6528 3.25505 13.7508 3.0309C13.4958 3.01207 13.2401 3.00181 12.9843 3.00181ZM12.8711 4.08085C17.3301 3.91269 21.5209 7.63647 21.8703 12.0956C22.2995 16.0282 19.8288 20.1024 16.069 21.3984C12.4142 22.7519 7.92782 21.4361 5.72042 18.1804C3.45484 15.0021 3.54482 10.3107 6.11547 7.32892C7.76077 5.34412 10.2853 4.09048 12.8711 4.08085ZM5.05392 12.6801C5.12844 8.54883 8.9233 4.92194 13.0482 5.05338C14.9581 5.05547 16.8449 5.80347 18.2714 7.06894C20.9636 9.34151 21.6693 13.4817 20.0914 16.5928C18.5657 19.7783 14.7449 21.5376 11.3253 20.788C7.63474 20.0769 4.87208 16.4133 5.05392 12.6801ZM12.9997 6.11385C16.6359 6.01758 19.9477 9.29484 19.8893 12.9401C19.9536 16.31 17.2454 19.5128 13.867 19.8526C10.695 20.2697 7.35066 18.2326 6.43872 15.1249C5.48282 12.164 6.73871 8.5977 9.4935 7.07313C10.5497 6.44997 11.7732 6.11186 12.9997 6.11385ZM8.01953 13.0017L12.65 9.72748V12.8913L17.1234 9.72748V16.278C16.5573 15.8773 15.991 15.4767 15.4248 15.0761C14.4997 14.4217 13.5746 13.7673 12.65 13.1121V16.278C12.24 15.9879 11.8301 15.6978 11.4201 15.4077C10.2866 14.6056 9.15315 13.8036 8.01953 13.0017Z" fill="black"/>
</svg>
