<svg xmlns="http://www.w3.org/2000/svg" fill="none" width="26" height="26" viewBox="0 0 26 26"><path fill="currentColor" fill-rule="evenodd" d="M12.91 4h.07a9 9 0 0 1 8.91 7.66 9.1 9.1 0 0 1-4.12 8.95 9.05 9.05 0 0 1-10.07-.35 9.1 9.1 0 0 1-3.45-9.37A9.06 9.06 0 0 1 12.9 4m.17.97h-.2a8.1 8.1 0 0 0-6.74 3.85 8.1 8.1 0 0 0 1.04 9.71 8.1 8.1 0 0 0 9.63 1.53 8.1 8.1 0 0 0 4.08-8.51 8.1 8.1 0 0 0-7.81-6.58m-.04.88h-.2A7.2 7.2 0 0 0 5.9 12.1a7.2 7.2 0 0 0 4.62 7.6 7.2 7.2 0 0 0 8.23-2.46 7.2 7.2 0 0 0-.34-8.9 7.2 7.2 0 0 0-5.37-2.5m.09.96H13a6.2 6.2 0 0 0-3.8 1.29 6.26 6.26 0 0 0-1.69 7.8 6.3 6.3 0 0 0 7.17 3.07 6.26 6.26 0 0 0 4.49-6.57c-.24-3.03-3-5.59-6.04-5.59M9.99 9.2v7.58H16V9.2zm5.54.48h-5.06v6.61h5.06z" clip-rule="evenodd"/><path fill="currentColor" d="M10.98 12.76v.48H15v-.48zm0 1.18v.49H15v-.49zm0-2.37v.49H15v-.49zm0 3.55v.5H15v-.5zm0-4.73v.49H15v-.5z"/></svg>