<svg xmlns="http://www.w3.org/2000/svg" width="26" height="26" fill="none"><path fill="currentColor" fill-rule="evenodd" d="M4 13c0-4.965 4.035-9 9-9s9 4.035 9 9-4.035 9-9 9-9-4.035-9-9m17.027 0A8.02 8.02 0 0 0 13 4.973 8.02 8.02 0 0 0 4.973 13 8.02 8.02 0 0 0 13 21.027 8.02 8.02 0 0 0 21.027 13M9.984 9.205v7.59h6.033v-7.59zm5.545.487h-5.06v6.616h5.06z" clip-rule="evenodd"/><path fill="currentColor" d="M10.984 12.756v.488H15v-.488zM10.984 13.94v.487H15v-.487zM10.984 11.573v.487H15v-.487zM10.984 15.124v.487H15v-.487zM10.984 10.389v.487H15v-.487zM10.991 16.308v.487h4.016v-.487z"/></svg>