<svg xmlns="http://www.w3.org/2000/svg" width="26" height="26" viewBox="0 0 26 26">
  <path fill-rule="evenodd" d="M14,12.3914297 L17.2826309,14.5231952 L16.1933528,16.2005363 L12.0348916,13.5 L12,13.5 L12,9 L14,9 L14,12.3914297 Z M13,20 C9.13400675,20 6,16.8659932 6,13 C6,9.13400675 9.13400675,6 13,6 C16.8659932,6 20,9.13400675 20,13 C20,16.8659932 16.8659932,20 13,20 Z M13,19 C16.3137085,19 19,16.3137085 19,13 C19,9.6862915 16.3137085,7 13,7 C9.6862915,7 7,9.6862915 7,13 C7,16.3137085 9.6862915,19 13,19 Z M13,21 C17.418278,21 21,17.418278 21,13 C21,8.581722 17.418278,5 13,5 C8.581722,5 5,8.581722 5,13 C5,17.418278 8.581722,21 13,21 Z M13,22 C8.02943725,22 4,17.9705627 4,13 C4,8.02943725 8.02943725,4 13,4 C17.9705627,4 22,8.02943725 22,13 C22,17.9705627 17.9705627,22 13,22 Z"/>
</svg>
