<svg xmlns="http://www.w3.org/2000/svg" width="26" height="26" viewBox="0 0 26 26">
<path d="M4 6H22C22.5523 6 23 6.44772 23 7V19C23 19.5523 22.5523 20 22 20H4C3.44772 20 3 19.5523 3 19V7C3 6.44772 3.44772 6 4 6ZM5 8V18H21V8H5Z" />
<path d="M8 12.7003C8 12.6949 8.00093 12.6893 8.00268 12.6842C8.70624 10.6094 9.76422 9.85075 10.8649 10.0167C12.2327 10.152 13.4355 11.9633 14.7055 13.0275C15.4147 13.6014 16.2018 13.2692 16.8305 12.2918C17.2001 11.7841 17.5925 11.0676 17.8988 10.2765C17.9191 10.2241 18 10.2383 18 10.2944C18 11.2475 18 12.6389 18 13.4904C18 13.4969 17.9987 13.5032 17.9963 13.5092C17.3387 15.1206 16.4663 15.8716 15.5388 15.9352C14.7091 16.091 13.8943 15.5164 13.1421 14.6776C12.2368 13.7368 11.3079 12.4345 10.2953 12.692C9.41922 12.9261 8.74729 14.4528 8.09433 15.8056C8.07129 15.8533 8 15.8368 8 15.7838V12.7003Z" />
</svg>