<svg xmlns="http://www.w3.org/2000/svg" width="26" height="26" viewBox="0 0 26 26">
  <path d="M6 9L7 9L7 11L6 11L6 9Z"/>
  <path d="M6 6L7 6L7 8L6 8L6 6Z"/>
  <path d="M7 13.5L8.5 13.5L8.5 14.5L7 14.5C6.4477 14.5 6 14.0523 6 13.5L6 12L7 12L7 13.5Z"/>
  <path d="M11.5 13.5L11.5 14.5L9.5 14.5L9.5 13.5L11.5 13.5Z"/>
  <path d="M14.5 13.5L14.5 14.5L12.5 14.5L12.5 13.5L14.5 13.5Z"/>
  <path d="M15 9L20 14L15 19L14.293 18.2929L18.086 14.5L15.5 14.5L15.5 13.5L18.086 13.5L14.293 9.70705L15 9Z"/>
</svg>
