<svg xmlns="http://www.w3.org/2000/svg" width="26" height="26" viewBox="0 0 26 26">
  <path fill-rule="evenodd" d="M13,20 C9.13400675,20 6,16.8659932 6,13 C6,9.13400675 9.13400675,6 13,6 C16.8659932,6 20,9.13400675 20,13 C20,16.8659932 16.8659932,20 13,20 Z M13,19 C16.3137085,19 19,16.3137085 19,13 C19,9.6862915 16.3137085,7 13,7 C9.6862915,7 7,9.6862915 7,13 C7,16.3137085 9.6862915,19 13,19 Z M13,21 C17.418278,21 21,17.418278 21,13 C21,8.581722 17.418278,5 13,5 C8.581722,5 5,8.581722 5,13 C5,17.418278 8.581722,21 13,21 Z M13,22 C8.02943725,22 4,17.9705627 4,13 C4,8.02943725 8.02943725,4 13,4 C17.9705627,4 22,8.02943725 22,13 C22,17.9705627 17.9705627,22 13,22 Z M9,16.6318486 L11.8025987,9.43891285 L14.7725183,13.3771727 L16.9543253,9 L17.3017462,9.12150037 L15.351674,16.6318486 L12.1815488,13.0520169 L9.43772135,16.6318486 L9,16.6318486 Z M11.9940533,10.8049655 L10.15014,15.0197278 L12.1538647,12.1261298 L15.0021156,15.4464371 L16.3798567,11.0923289 L14.8338224,14.2130042 L11.9940533,10.8049655 Z"/>
</svg>
