<svg xmlns="http://www.w3.org/2000/svg" width="26" height="26" viewBox="0 0 26 26" >
<path fill-rule="evenodd" clip-rule="evenodd" d="M3 13C3 7.47715 7.47715 3 13 3C18.5228 3 23 7.47715 23 13C23 18.5228 18.5228 23 13 23C7.47715 23 3 18.5228 3 13ZM13 6C9.13401 6 6 9.13401 6 13C6 16.866 9.13401 20 13 20C16.866 20 20 16.866 20 13C20 9.13401 16.866 6 13 6Z" />
<path d="M9.34277 15.5688L13.0003 8.83789L16.6578 15.5688H9.34277Z" />
<path fill-rule="evenodd" clip-rule="evenodd" d="M13.0001 8L17.3301 15.9687H8.66992L13.0001 8ZM10.0151 15.1687H15.985L13 9.67555L10.0151 15.1687Z" />
</svg>