<svg xmlns="http://www.w3.org/2000/svg" width="26" height="26" fill="none"><path fill-rule="evenodd" clip-rule="evenodd" d="M4.07 11.867c.456-4.357 4.54-7.955 8.916-7.865.23 0 .46.009.69.026 3.512.201 6.687 2.72 7.822 6.026 1.235 3.355.12 7.338-2.55 9.678-2.642 2.43-6.774 2.913-9.961 1.311-3.375-1.605-5.398-5.492-4.917-9.176Zm16.913.307c-.314-4.008-4.086-7.354-8.099-7.203-2.327.009-4.6 1.135-6.08 2.92-2.314 2.679-2.395 6.895-.356 9.75 1.987 2.926 6.025 4.109 9.314 2.893 3.384-1.165 5.608-4.826 5.221-8.36Zm-7.94-6.329C9.331 5.727 5.916 8.986 5.85 12.7c-.164 3.355 2.322 6.647 5.644 7.286 3.077.674 6.516-.907 7.89-3.77 1.42-2.796.784-6.516-1.639-8.558-1.284-1.138-2.982-1.81-4.7-1.812Zm6.158 7.088c.052-3.276-2.929-6.221-6.201-6.135a6.235 6.235 0 0 0-3.156.862c-2.48 1.37-3.61 4.575-2.75 7.236.822 2.793 3.832 4.623 6.686 4.248 3.04-.305 5.478-3.183 5.42-6.211Zm-7.437.056c-.385 1.336-.77 2.672-1.24 3.98.432-.428.836-.883 1.24-1.338.404-.455.808-.91 1.239-1.338l2.478 2.677c-.42-1.325-.83-2.654-1.24-3.982a467.517 467.517 0 0 0-1.238-3.98c-.47 1.308-.855 2.645-1.24 3.98Zm1.937-.15c-.225-.728-.45-1.457-.68-2.184-.259.72-.47 1.455-.682 2.19a36.925 36.925 0 0 1-.634 2.055c-.037.164.29-.21.643-.615.25-.287.514-.59.673-.728l1.36 1.47c-.23-.728-.455-1.458-.68-2.188Z" /></svg>