<svg xmlns="http://www.w3.org/2000/svg" width="26" height="26" viewBox="0 0 26 26">
  <path fill-rule="evenodd" d="M13,23 C7.4771525,23 3,18.5228475 3,13 C3,7.4771525 7.4771525,3 13,3 C18.5228475,3 23,7.4771525 23,13 C23,18.5228475 18.5228475,23 13,23 Z M13,20 C16.8659932,20 20,16.8659932 20,13 C20,9.13400675 16.8659932,6 13,6 C9.13400675,6 6,9.13400675 6,13 C6,16.8659932 9.13400675,20 13,20 Z M8,17.0106615 L11.3517668,8.56707086 L14.7184665,12.9004374 L17.2115936,8 L17.6247992,8.12815801 L15.3697474,16.8450768 L11.7937986,12.6726639 L10.8946132,13.8202263 L9.80527009,15.2065255 L8.59901585,16.8450768 L8,17.0106615 Z"/>
</svg>
