<svg xmlns="http://www.w3.org/2000/svg" width="26" height="26" fill="none"><path fill="currentColor" fill-rule="evenodd" d="M13 4h-.112l-.108.003h-.006l-.106.003h-.006l-.105.005h-.003l-.109.006h-.005l-.105.008h-.006l-.105.009h-.006l-.105.01h-.006l-.104.011H12l-.003.001-.104.012h-.003l-.003.001-.104.014h-.005l-.104.015h-.003l-.003.001-.103.016h-.003l-.003.001-.106.018h-.003l-.103.02h-.006l-.102.02h-.003l-.003.001-.102.021h-.003l-.003.001-.102.023h-.003l-.107.025-.003.001-.104.025-.098.026-.086.03-.078.047-.068.06-.056.07-.042.081-.026.087-.01.09.008.09.024.088.04.081.054.073.067.061.077.048.085.033.089.017h.09l.075-.014.093-.024.094-.023.096-.022.097-.022.097-.02.095-.018.097-.018.096-.016.1-.015.096-.014.098-.013.098-.011.099-.01.099-.01.099-.008.099-.007.099-.005.1-.004.097-.004.1-.001.1-.001h.1l.1.002.098.004.099.004.1.005.098.007.1.008.098.01.099.01.098.011.098.013.097.014.099.015.096.016.097.018.095.018.097.02.087.02.09.01.09-.005.088-.023.082-.038.074-.053.062-.066.05-.076.034-.084.018-.09v-.09l-.015-.09-.032-.084-.047-.077-.06-.068-.073-.055-.081-.04-.072-.022-.09-.02h-.005l-.105-.022-.003-.001-.102-.02h-.003l-.106-.02h-.003l-.109-.018h-.003l-.103-.017h-.006l-.104-.016h-.006l-.103-.014h-.006l-.104-.013h-.006l-.104-.012h-.006l-.105-.01h-.006l-.105-.009h-.006l-.105-.008h-.006l-.105-.006h-.003l-.108-.005h-.006l-.106-.003h-.003L13.115 4h-.003zM9.984 9.205h6.032v7.59H9.984zm5.545.487h-5.06v6.616h5.06zm2.451-4.039.091-.002.09.015.085.031.078.047.028.02.002.002.003.002.084.063.002.001.002.002.083.064.003.002.087.068.002.002.081.066.005.004.08.067.003.002.002.002.08.068.003.002.002.002.08.07.002.001.002.002.08.072.003.002.077.072.003.002.002.002.077.072.002.002.002.002.076.073.002.002.003.003.075.074.002.002.002.002.074.075.002.003.003.002.073.076.002.002.002.002.072.077.002.002.002.003.074.08.002.002.07.078.002.002.073.084.002.002.068.08.002.003.002.002.069.083.002.002.066.082.002.002.001.003.067.084.002.003.064.083.002.002.066.089.002.002.061.084.002.003.062.087.002.003.002.002.06.086.001.002.002.003.058.086.002.003.002.002.057.087.001.003.002.002.056.088.002.003.058.093.002.003.054.089.003.005.053.09.001.002.002.003.051.09.003.005.05.09.002.003.002.003.05.091v.003l.002.003.048.092.002.002.001.003.047.092.002.003.001.003.024.047.028.07.019.089.002.09-.015.09-.03.085-.047.078-.06.068-.071.056-.08.042-.088.025-.09.01-.09-.008-.088-.024-.081-.04-.073-.055-.06-.067-.048-.077-.023-.046-.044-.087-.046-.085-.047-.088-.047-.085-.049-.085-.05-.083-.05-.085-.053-.084-.053-.082-.054-.082-.055-.083-.056-.08-.057-.08-.058-.08-.059-.078-.061-.08-.061-.077-.062-.076-.064-.077-.063-.075-.066-.075-.066-.074-.067-.073-.068-.072-.07-.072-.07-.071-.07-.07-.072-.069-.072-.068-.074-.068-.073-.065-.075-.066-.076-.064-.076-.063-.076-.062-.08-.062-.076-.06-.08-.06-.025-.018-.058-.049-.057-.07-.044-.079-.029-.086-.012-.09.005-.09.022-.089.038-.082.052-.074.065-.063.076-.05.084-.035zm-10.248.192-.091.004-.088.02-.083.038-.063.042-.025.02-.002.001-.082.066-.002.002-.002.002-.083.069-.003.002-.08.068-.002.002-.002.002-.08.07-.002.001-.002.002-.078.07-.003.002-.002.002-.078.072-.002.002-.002.002-.077.072-.002.002-.002.002-.076.073-.002.002-.08.079-.079.08-.002.002-.073.076-.002.002-.076.081-.074.08-.002.002-.002.003-.07.078-.002.002-.002.003-.071.081-.002.002-.07.083-.069.083-.002.002-.002.002-.066.082-.002.002-.001.003-.065.082-.002.002-.002.003-.066.085-.001.002-.063.084-.002.003-.065.089-.064.09-.002.002-.06.086-.001.002-.062.092-.002.002-.057.087-.002.003-.001.002-.056.088-.002.003-.057.09-.001.003-.002.003-.054.089-.001.002-.002.003-.053.09-.001.002-.002.003-.051.09-.003.005-.051.09-.001.003-.002.003-.05.091v.003l-.002.003-.049.092v.002l-.05.095v.003l-.002.003-.046.093-.002.002v.003l-.046.094-.001.002-.001.003-.044.094-.003.006-.025.056-.03.086-.012.09.004.09.02.088.037.083.052.075.064.064.075.05.083.036.089.02.09.003.09-.014.086-.03.078-.045.069-.06.056-.07.036-.067.024-.053.042-.09.042-.088.044-.088.044-.087.045-.085.048-.088.047-.085.049-.085.05-.083.05-.085.053-.084.053-.082.054-.082.055-.083.056-.08.057-.08.058-.08.059-.078.061-.08.06-.077.063-.076.063-.077.064-.075.066-.075.066-.074.066-.073.069-.072.07-.072.069-.071.071-.07.072-.069.072-.068.074-.068.073-.065.075-.066.076-.064.076-.063.076-.062.021-.016.066-.063.053-.074.038-.082.022-.088.006-.09-.011-.09-.028-.087-.043-.08-.057-.07-.07-.058-.079-.045-.086-.029zM13 5.849h.089l.088.002h.004l.085.003h.003l.085.003h.004l.085.005h.003l.082.006h.006l.082.007h.006l.082.008h.006l.081.01h.006l.082.01h.006l.081.011h.003l.003.001.081.012h.006l.08.013h.004l.003.001.08.014h.003l.087.016h.002l.08.016h.007l.08.017.002.001h.003l.08.018h.003l.003.001.08.019h.002l.003.001.08.02h.002l.082.021.006.002.078.021.003.001.081.023h.003l.003.002.08.024.081.025h.003l.08.027h.003l.083.029h.003l.076.027.003.001.082.03.079.03.003.001.078.031.003.001.003.001.075.03.003.002.002.001.075.032.006.002.002.001.066.035.072.056.06.068.047.078.03.085.016.09-.002.09-.019.089-.035.083-.05.076-.063.065-.074.053-.082.037-.088.022-.09.005-.09-.012-.083-.027-.004-.001-.069-.03-.07-.028-.069-.027-.07-.027-.072-.026-.072-.025-.07-.024-.073-.023-.071-.022-.073-.022-.073-.02-.072-.02-.073-.02-.073-.017-.074-.017-.074-.016-.074-.015-.074-.015-.075-.013-.075-.013-.075-.012-.074-.01-.076-.01-.076-.01-.076-.007-.076-.007-.074-.006-.077-.005-.076-.005-.077-.003-.076-.002-.077-.002h-.154l-.077.002-.076.002-.077.003-.076.005-.077.005-.074.006-.076.007-.026.003-.075.002-.09-.013-.086-.03-.079-.044-.069-.06-.057-.07-.043-.08-.027-.086-.011-.09.006-.09.022-.088.039-.082.053-.074.066-.062.076-.05.084-.033.09-.018.027-.003h.006l.082-.008h.006l.085-.008h.003l.085-.006h.003l.082-.004h.006l.083-.004h.006l.082-.003h.003l.09-.002zm-3.083.768-.091.004-.088.021-.07.03-.036.02H9.63l-.072.04h-.002l-.003.002-.071.04-.003.001-.002.002-.07.04-.003.002-.003.001-.07.042-.003.001-.002.002-.07.042-.002.001-.075.047-.002.001L9.108 7l-.002.002-.003.002-.068.045-.003.001-.002.002-.068.046-.002.001-.003.002-.067.046-.002.002-.072.051-.07.052-.003.002-.066.049-.002.002-.067.051-.003.002-.069.055-.002.002-.064.051-.002.002-.003.002-.065.054-.002.002-.065.056-.067.058-.002.002-.062.055-.002.002-.002.002-.06.055-.003.003-.002.002-.063.058-.002.002-.06.058-.002.002-.002.002-.059.058-.002.002-.002.002-.058.06-.002.001-.06.062-.002.002-.058.063-.002.002-.003.002-.055.061-.002.002-.002.002-.055.062-.002.002-.058.067-.002.002-.054.063-.002.002-.001.002-.053.063-.002.003-.002.002-.051.064-.002.002-.002.003-.05.064-.003.002-.053.07-.002.002-.05.066-.001.002-.05.069-.002.002-.002.003-.049.069-.002.002-.046.067-.002.003-.047.07-.002.002-.002.003-.038.058-.042.08-.027.086-.01.09.006.091.023.088.039.082.054.073.066.062.076.048.084.034.09.017h.09l.09-.015.084-.033.077-.048.067-.06.046-.06.037-.056.042-.062.043-.063.044-.06.045-.063.045-.06.047-.06.047-.06.048-.06.048-.058.05-.058.05-.058.051-.057.052-.057.052-.055.053-.055.053-.054.055-.054.056-.054.055-.052.057-.052.057-.051.057-.05.06-.05.057-.048.06-.048.06-.047.06-.046.06-.046.061-.045.062-.043.062-.043.063-.043.063-.042.064-.04.063-.04.065-.04.065-.038.066-.038.066-.036.067-.037.03-.016.077-.05.065-.062.053-.074.038-.082.022-.088.005-.09-.011-.09-.028-.087-.043-.08-.058-.07-.07-.058-.079-.044-.085-.029zm7.823 1.19.09.013.086.028.08.045.069.058.052.053.002.002.002.003.058.06.002.001.002.003.056.06.002.002.002.002.058.063.002.002.055.062.002.002.002.002.054.062.002.003.002.002.053.063.002.002.002.002.055.066.002.002.051.064.002.002.053.067.002.002.002.003.05.065.001.002.002.002.051.068.002.003.048.066.002.002.002.003.047.066.002.003.001.002.047.067.002.003.001.002.046.068.002.002.001.003.045.068.002.003.002.002.044.069.001.002.046.075.002.002.042.07.002.002.001.003.042.07.001.003.002.002.04.07.002.003.001.003.04.071.001.003.002.002.038.072.002.002.001.003.038.072.041.08.001.003.037.073v.003l.037.076.002.002v.003l.035.074.003.005.033.074.002.006.033.074.001.003.001.003.032.075v.002l.002.003.03.075.002.003v.003l.03.075.003.006.029.076v.003l.002.003.027.076.001.003.002.002.026.077.001.003.001.003.026.077.002.006.025.077.001.003.001.003.024.077.001.003.001.003.023.078.001.003v.003l.014.046.015.074.002.09-.014.09-.03.085-.046.078-.06.069-.071.056-.08.041-.088.027-.09.01-.09-.008-.088-.024-.081-.04-.073-.054-.061-.067-.048-.077-.033-.084-.012-.043-.022-.073-.022-.071-.023-.073-.025-.072-.024-.07-.026-.071-.027-.071-.028-.07-.028-.07-.03-.069-.03-.07-.03-.068-.032-.068-.033-.069-.033-.066-.035-.068-.034-.066-.036-.066-.037-.066-.037-.065-.04-.066-.038-.065-.04-.063-.04-.064-.043-.064-.042-.062-.044-.063-.043-.06-.045-.063-.045-.06-.047-.06-.047-.06-.048-.06-.048-.058-.05-.058-.05-.058-.051-.057-.052-.057-.052-.055-.053-.055-.05-.051-.05-.058-.045-.078-.03-.085-.015-.09.003-.09.019-.089.036-.083.05-.076.063-.065.075-.051.082-.038.089-.02zM6.503 11.215h-.09l-.09.019-.084.034-.076.049-.066.062-.053.074-.038.082-.02.072-.015.074v.003l-.015.084v.003l-.015.083v.003l-.014.084v.006l-.012.081v.006l-.011.081v.003l-.01.085-.001.003v.003l-.01.081v.006l-.007.082v.006l-.007.082v.006l-.006.082v.006l-.005.082v.003l-.004.086v.003l-.003.085v.003l-.002.086v.184l.002.085v.004l.003.085v.003l.003.085v.004l.005.082v.003l.006.085v.006l.007.082v.006l.008.082v.006l.01.081v.006l.01.082v.006l.011.081v.003l.001.003.012.081v.006l.013.08v.004l.001.003.014.08v.006l.016.084v.003l.016.08v.006l.017.08.001.002v.003l.018.08v.003l.001.003.019.08v.002l.021.085.022.085.022.081.001.003.024.084V15l.024.078v.003l.002.003.024.077v.003l.011.034.036.083.051.075.064.064.074.052.083.037.089.02.09.005.09-.013.086-.03.079-.044.069-.059.057-.07.043-.08.028-.087.01-.09-.005-.09-.018-.073-.01-.029-.021-.071-.022-.073-.02-.072-.02-.073-.019-.072-.018-.075-.017-.073-.016-.074-.015-.073-.015-.075-.013-.075-.013-.075-.012-.074-.01-.077-.01-.074-.01-.076-.007-.076-.007-.074-.006-.078-.006-.075-.004-.076-.003-.078-.002-.075-.002-.077v-.154l.002-.077.002-.075.003-.078.005-.076.005-.075.006-.078.007-.074.008-.076.009-.076.01-.074.01-.077.012-.074.013-.075.013-.075.014-.07.009-.091-.008-.09-.025-.088-.04-.08-.055-.073-.068-.06-.077-.048-.085-.032zm14.927.906.09-.006.09.012.087.028.08.043.07.058.058.07.044.079.029.086.012.09.004.081v.006l.003.106v.006l.002.108v.003l.001.106v.115l-.003.108v.006l-.003.106v.006l-.005.105-.006.114v.003l-.008.105v.006l-.009.105v.006l-.01.104v.006l-.011.105V14l-.001.003-.012.104v.003l-.001.003-.014.104v.006l-.015.103v.003l-.001.003-.016.103v.003l-.001.003-.018.103v.006l-.02.103v.006l-.02.102v.003l-.001.003-.021.102v.003l-.002.003-.022.102v.002l-.025.105v.003l-.001.003-.025.1v.004l-.001.003-.026.1-.001.003v.003l-.028.1-.001.006-.029.1-.002.006-.03.1v.002l-.001.003-.03.1-.002.002v.003l-.033.1-.002.005-.033.098v.003l-.002.003-.034.098-.002.005-.036.098v.003l-.039.1v.002l-.002.003-.038.097v.002l-.042.102-.001.003-.04.096-.002.002v.003l-.044.098v.002l-.044.095v.003l-.002.003-.044.094-.001.003-.046.096-.002.003v.002l-.047.093-.05.098-.04.064-.059.068-.071.056-.08.042-.088.026-.09.01-.09-.008-.088-.024-.081-.04-.073-.055-.06-.067-.049-.077-.032-.084-.017-.09v-.09l.018-.09.034-.083.045-.09.044-.088.042-.087.042-.09.04-.088.039-.091.038-.09.037-.092.035-.09.035-.092.033-.09.033-.093.032-.094.03-.092.029-.094.028-.095.027-.095.025-.093.024-.094.024-.098.022-.095.021-.096.02-.096.019-.096.017-.097.017-.098.015-.096.014-.098.013-.098.011-.098.01-.099.01-.097.008-.1.007-.098.005-.1.004-.099.003-.1.002-.1V12.9l-.002-.1-.003-.1-.003-.077.002-.076.019-.088.035-.084.05-.076.062-.066.074-.052.082-.038zm-16.902.316h-.091l-.089.018-.084.034-.076.05-.066.061-.054.074-.038.082-.023.088-.007.075v.193l.003.111.003.112.005.108v.006l.006.108v.003l.008.108v.003l.009.105v.006l.01.104v.006l.011.105V14l.001.003.012.104v.003l.001.003.014.104v.006l.016.106v.003l.016.103v.003l.018.106v.003l.001.003.019.103v.003l.001.003.02.102v.003l.001.003.021.102v.003l.024.105v.002l.001.004.024.101v.003l.026.104v.003l.027.103v.003l.03.106.03.106.03.103.001.002v.003l.032.1.002.005.032.102.035.101v.003l.036.1.001.004.038.103.039.102.039.1.002.005.04.1.001.002.042.098.042.098.002.003v.002l.043.095.002.003v.003l.046.097.001.002.046.097.002.002.046.093.001.003.002.003.011.022.049.077.062.066.073.054.082.038.087.024.09.006.09-.01.087-.027.08-.043.071-.056.06-.069.045-.078.03-.086.013-.09-.003-.09-.02-.089-.03-.07-.01-.018-.043-.089-.042-.087-.042-.09-.04-.088-.039-.091-.038-.09-.037-.092-.035-.09-.035-.092-.033-.09-.033-.093-.032-.094-.03-.092-.029-.094-.028-.095-.027-.095-.025-.093-.025-.094-.023-.098-.022-.095-.022-.096-.02-.096-.018-.096-.018-.097-.016-.098-.015-.096-.014-.098-.013-.098-.011-.098-.01-.099-.01-.097-.008-.1-.007-.098-.005-.1-.004-.099-.004-.1-.001-.1-.001-.1v-.074l-.007-.09-.025-.088-.04-.081-.055-.073-.067-.06-.077-.048-.085-.032zM19.51 13.58l.09-.005.09.013.087.029.079.044.07.059.056.07.044.08.028.086.011.09-.005.09-.001.004v.003l-.001.003-.014.08v.006l-.015.08v.004l-.001.003-.016.08v.006l-.018.08v.005l-.018.08v.003l-.001.003-.019.08v.002l-.001.003-.02.08v.002l-.001.003-.02.079-.001.003v.003l-.022.078-.001.003v.003l-.023.078-.002.006-.023.078v.003l-.002.003-.024.077v.003l-.002.003-.025.077v.003l-.002.003-.026.077v.003l-.002.003-.026.076-.003.006-.027.076-.001.003-.001.003-.03.079-.001.003-.03.075-.001.003-.001.003-.032.078-.001.002-.032.075v.003l-.002.003-.032.074-.002.003-.001.003-.033.074-.002.002v.003l-.035.074-.001.003-.002.002-.035.074-.001.002-.001.003-.037.073-.04.08-.002.003-.038.072-.001.003-.002.002-.038.072-.002.002-.001.003-.04.07-.003.006-.04.07-.002.003-.001.003-.042.07-.003.005-.042.07-.002.002-.001.003-.043.07-.002.002-.001.002-.044.069-.002.002-.047.071-.001.003-.002.002-.046.068-.001.002-.002.003-.047.067-.001.002-.002.003-.047.066-.002.003-.002.002-.048.066-.002.003-.002.002-.049.066-.002.002-.002.002-.05.065-.001.003-.002.002-.027.035-.052.055-.072.055-.08.041-.087.025-.09.009-.091-.009-.087-.024-.081-.041-.072-.055-.061-.068-.047-.077-.032-.085-.015-.09v-.09l.02-.089.033-.084.05-.076.025-.032.047-.061.045-.06.045-.062.044-.06.043-.064.043-.063.041-.063.041-.064.04-.064.039-.064.038-.065.038-.065.037-.067.035-.065.035-.067.035-.068.033-.067.033-.069.032-.067.03-.069.03-.07.03-.068.028-.07.028-.07.027-.071.026-.071.024-.07.025-.073.023-.072.022-.071.022-.073.02-.072.02-.073.019-.072.018-.075.017-.073.016-.074.015-.073.015-.075.013-.075.013-.075v-.003l.017-.07.036-.084.05-.076.064-.064.074-.052.083-.037zM7.848 16.774l-.09.014-.085.03-.08.045-.068.059-.057.07-.042.08-.027.087-.01.09.006.09.023.089.039.081.043.062.023.027.001.002.002.002.056.065.002.002.054.063.002.002.002.002.057.064.002.002.055.06.003.003.002.002.056.06.002.003.002.002.058.06.002.002.002.002.06.06.002.003.06.058.001.002.003.002.06.058.001.002.003.002.06.056.002.002.002.003.06.055.003.002.002.002.062.055.002.002.002.002.062.054.003.002.002.002.063.053.002.002.002.002.063.053.003.002.002.002.064.051.002.002.003.002.066.053.003.002.065.05.002.001.002.002.066.05.002.001.003.002.066.048.002.002.003.002.066.047.003.002.002.001.067.047.003.002.002.001.068.046.002.002.003.001.068.045.003.002.002.002.069.044.002.001.003.002.072.044.002.002.07.042.002.002.003.001.07.042.005.003.07.04.003.002.003.001.071.04.003.001.002.002.072.038.002.002.003.001.072.038.08.041.003.001.073.037h.003l.002.002.074.035.002.002h.003l.074.035.005.003.074.033.003.001.003.001.074.033.003.001.003.001.075.032.083.034h.003l.072.03.087.024.09.01.09-.01.088-.024.081-.04.072-.056.06-.068.048-.077.032-.085.015-.09-.001-.09-.018-.089-.035-.084-.049-.076-.062-.065-.074-.053-.068-.033-.07-.028-.07-.028-.069-.03-.069-.03-.067-.03-.07-.032-.068-.033-.067-.033-.068-.034-.066-.035-.066-.036-.067-.037-.065-.038-.065-.038-.065-.04-.063-.039-.065-.041-.063-.042-.062-.042-.062-.043-.063-.044-.061-.046-.062-.045-.06-.046-.058-.047-.06-.048-.059-.049-.057-.048-.058-.052-.057-.05-.056-.051-.056-.053-.055-.053-.056-.055-.052-.053-.055-.057-.052-.055-.052-.057-.05-.056-.05-.058-.05-.058-.02-.024-.064-.064-.075-.052-.083-.036-.089-.02zm8.383 1.528.09-.008.09.009.087.026.081.041.072.056.06.068.046.078.031.085.015.09-.002.09-.02.089-.034.083-.05.076-.063.065-.074.052-.037.021-.005.003-.071.04-.003.001-.002.002-.072.038-.003.002-.002.001-.072.038-.003.001-.08.041-.073.037h-.003l-.003.002-.073.035-.002.002h-.003l-.074.035-.002.001-.003.002-.074.033-.003.001-.003.001-.074.033-.003.001-.003.001-.075.032h-.002l-.003.002-.075.03-.003.002h-.003l-.075.03-.003.002h-.003l-.076.03h-.003l-.003.002-.076.027-.003.002h-.003l-.076.027-.006.002-.077.026-.003.001-.003.001-.077.025-.003.001-.003.001-.077.024-.003.001-.003.001-.078.023-.003.001h-.003l-.078.023-.006.002-.078.021h-.003l-.003.002-.079.02h-.003l-.003.001-.079.02h-.003l-.003.001-.08.018-.002.001h-.003l-.08.018h-.003l-.002.002-.08.016-.006.001-.083.016h-.003l-.08.015h-.004l-.003.001-.08.014h-.006l-.081.013h-.003l-.003.001-.081.012h-.006l-.081.011h-.003l-.003.001-.082.01h-.006l-.081.009h-.006l-.082.008h-.006l-.082.007h-.006l-.082.006h-.003l-.085.005h-.006l-.083.004h-.006l-.082.003h-.007l-.081.002-.076-.005-.088-.02-.083-.037-.075-.051-.063-.065-.051-.075-.036-.083-.02-.089-.003-.09.014-.09.03-.085.045-.079.06-.069.07-.056.08-.042.087-.027.09-.01.08-.002.076-.002.075-.003.077-.005.078-.005.074-.006.076-.007.078-.008.074-.009.076-.01.074-.01.076-.012.074-.013.073-.013.075-.014.076-.016.073-.016.074-.017.073-.018.073-.019.074-.02.07-.02.073-.021.074-.023.07-.023.073-.025.07-.024.071-.026.07-.027.07-.028.071-.028.069-.03.069-.03.067-.03.07-.032.068-.033.067-.033.067-.034.067-.035.066-.036.067-.037.033-.02.068-.032zm-8.67.783-.09.013-.086.03-.079.045-.068.06-.057.07-.043.08-.027.086-.01.09.006.09.023.089.039.082.053.073.054.052.018.015.002.002.002.002.082.066.002.002.085.066.002.002.003.002.083.064.002.002.002.001.084.063.003.002.002.002.084.061.003.002.002.002.085.06.003.002.002.002.088.061.003.002.086.058.003.002.002.002.087.057.003.001.002.002.088.056.003.002.093.058.003.002.089.054.002.001.003.002.09.053.002.001.003.002.09.051.002.002.003.001.09.05.003.002.003.002.091.05.006.002.092.049.1.05.003.002.093.046.002.002h.003l.094.046.002.001.003.001.094.044.006.003.094.042.003.001.003.002.095.041.003.001.002.001.096.04.003.002h.003l.096.04.002.001.003.001.097.038.003.001.1.038.002.001.003.001.098.036h.002l.003.002.098.034.006.002.098.034h.003l.003.001.099.032.002.001.003.001.1.031h.002l.003.002.1.03h.003l.003.001.1.028.003.001.002.001.1.027.004.001h.003l.1.027.006.001.101.025h.003l.003.001.101.024h.003l.003.001.09.02.09.01.09-.005.088-.023.082-.038.074-.053.062-.066.05-.076.034-.084.018-.089v-.09l-.015-.09-.032-.085-.047-.077-.06-.067-.073-.055-.081-.04-.072-.023-.087-.019-.094-.021-.096-.024-.096-.025-.095-.025-.093-.027-.095-.028-.093-.029-.093-.03-.094-.032-.091-.032-.093-.034-.09-.034-.093-.036-.09-.037-.09-.038-.09-.04-.089-.04-.089-.04-.088-.043-.088-.043-.086-.044-.088-.047-.085-.046-.087-.048-.085-.049-.085-.05-.083-.05-.083-.052-.084-.054-.081-.054-.082-.055-.081-.056-.08-.057-.08-.058-.078-.059-.079-.06-.078-.062-.076-.062-.016-.013-.074-.05-.083-.037-.089-.02zm10.718.055.09-.006.09.012.086.028.08.043.07.058.058.07.044.079.029.086.012.09-.004.09-.021.088-.038.083-.052.074-.065.064-.04.033-.003.001-.082.065-.002.002-.003.002-.083.064-.005.003-.083.063-.003.002-.002.002-.084.061-.003.002-.002.002-.085.06-.003.002-.002.002-.086.06-.003.001-.002.002-.086.058-.003.002-.002.002-.09.058-.003.002-.087.056-.003.002-.093.058-.003.002-.089.054-.002.001-.003.002-.09.053-.002.001-.003.002-.09.051-.005.003-.09.05-.003.002-.003.002-.091.05-.006.002-.092.048-.002.002-.1.051-.094.046-.002.002-.1.047-.002.001-.094.044-.003.001-.003.002-.095.042-.002.001-.003.002-.095.041-.003.001-.003.001-.095.04-.003.002h-.003l-.099.041-.002.001-.097.038-.003.001-.002.001-.098.037-.002.001-.003.001-.098.036-.005.002-.098.034-.006.002-.098.034h-.003l-.003.001-.099.032-.003.001-.002.001-.1.031h-.002l-.003.002-.1.03h-.003l-.003.001-.1.028-.006.002-.1.027-.003.001h-.003l-.1.027h-.003l-.003.001-.101.025h-.003l-.105.025h-.002l-.003.001-.102.022-.003.001h-.003l-.064.014-.075.01-.09-.005-.089-.02-.083-.037-.074-.052-.064-.064-.05-.076-.037-.083-.02-.088-.002-.091.014-.09.03-.085.046-.078.06-.069.07-.056.08-.042.087-.027.063-.013.095-.02.094-.023.096-.023.095-.025.095-.025.094-.027.095-.028.093-.029.093-.03.094-.032.091-.032.093-.034.09-.034.093-.036.09-.037.09-.038.09-.04.089-.04.088-.04.089-.043.087-.043.087-.044.087-.047.086-.046.087-.048.085-.049.085-.05.083-.05.083-.052.084-.054.081-.054.082-.055.081-.056.08-.057.08-.058.078-.059.079-.06.078-.062.035-.029.062-.043.083-.038z" clip-rule="evenodd"/><path fill="currentColor" d="M10.984 12.756v.488H15v-.488zM10.984 13.94v.487H15v-.487zM10.984 11.573v.487H15v-.487zM10.984 15.124v.487H15v-.487zM10.984 10.389v.487H15v-.487z"/></svg>