<svg width="26" height="26" viewBox="0 0 26 26" fill="none" xmlns="http://www.w3.org/2000/svg">
<g id="compensation-end-event">
<path id="path4481" fill-rule="evenodd" clip-rule="evenodd" d="M12.8134 3.00027C7.97234 3.00435 3.52192 7.03827 3.06519 11.8636C2.57509 15.9735 4.88804 20.2692 8.6631 22.0149C12.1689 23.7284 16.6687 23.1861 19.5763 20.5478C22.5348 17.9878 23.8274 13.6242 22.5279 9.90154C21.2921 6.10359 17.645 3.19595 13.6282 3.01997C13.357 3.00224 13.0851 2.99891 12.8134 3.00027ZM13.0118 6.13392C16.577 6.03022 19.8455 9.17465 19.8873 12.7413C20.0415 16.0041 17.5902 19.2081 14.3386 19.7552C11.1921 20.3854 7.70242 18.567 6.60108 15.5123C5.41543 12.4916 6.62506 8.67155 9.51101 7.08609C10.5662 6.46652 11.7878 6.1324 13.0118 6.13392ZM8.02411 13.004L12.6616 9.72979V12.8938L17.1418 9.72979V16.2804C16.5732 15.8785 16.0044 15.4768 15.4357 15.075C14.5108 14.4217 13.586 13.7685 12.6616 13.1145V16.2804C12.0787 15.8686 11.4958 15.4567 10.9129 15.0449C9.94997 14.3645 8.98709 13.6842 8.02411 13.004Z" fill="black"/>
</g>
</svg>
