<svg xmlns="http://www.w3.org/2000/svg" width="26" height="26" fill="none"><path fill-rule="evenodd" clip-rule="evenodd" d="M12.986 4.002c-4.377-.09-8.46 3.508-8.916 7.865-.48 3.684 1.542 7.57 4.917 9.176 3.187 1.602 7.319 1.12 9.962-1.31 2.669-2.341 3.784-6.324 2.549-9.68-1.135-3.306-4.31-5.824-7.822-6.025a9.377 9.377 0 0 0-.69-.027Zm-.102.97c4.013-.152 7.785 3.194 8.1 7.202.386 3.534-1.838 7.195-5.222 8.36-3.29 1.216-7.327.033-9.314-2.892-2.039-2.856-1.958-7.072.356-9.752 1.48-1.784 3.753-2.91 6.08-2.919ZM5.85 12.698c.067-3.713 3.482-6.972 7.194-6.854 1.72.002 3.417.674 4.701 1.812 2.423 2.042 3.058 5.762 1.638 8.558-1.373 2.863-4.812 4.444-7.89 3.77-3.32-.639-5.807-3.931-5.643-7.286Zm7.15-5.9c3.273-.087 6.254 2.858 6.202 6.134.057 3.028-2.38 5.906-5.42 6.212-2.855.374-5.865-1.456-6.686-4.249-.86-2.66.27-5.866 2.75-7.236A6.235 6.235 0 0 1 13 6.798Zm-1.235 6.19c.384-1.337.769-2.673 1.239-3.981.42 1.324.83 2.652 1.239 3.98.41 1.328.818 2.657 1.24 3.982l-2.479-2.677c-.431.429-.835.883-1.24 1.338-.403.455-.807.91-1.239 1.339.47-1.31.855-2.645 1.24-3.981Z" /></svg>