<svg xmlns="http://www.w3.org/2000/svg" fill="none" width="26" height="26" viewBox="0 0 26 26"><path fill="currentColor" fill-rule="evenodd" d="M13 4h-.33l-.11.01h-.12l-.1.02h-.12l-.1.01h-.01l-.1.02h-.12l-.1.02h-.01l-.1.02h-.01l-.1.02h-.01l-.1.01h-.01l-.1.02-.11.02-.1.03h-.01l-.1.02h-.01l-.1.03h-.01l-.1.02-.1.03-.09.03-.08.04-.06.06-.06.07-.04.09-.03.08v.18l.02.09.04.08.06.07.06.07.08.04.09.04.09.01h.09l.07-.01.1-.02.09-.03.1-.02.1-.02.09-.02.1-.02.09-.02.1-.01.1-.02.1-.01.09-.02h.1l.1-.02h.1l.1-.01.1-.01h.1l.1-.01h.79l.1.02h.1l.1.01.1.01.09.01.1.02.1.01.1.02.09.01.1.02.1.02.09.02.09.02h.18l.08-.02.09-.04.07-.05.06-.07.05-.07.04-.09.01-.09v-.09l-.01-.09-.03-.08-.05-.08-.06-.07-.07-.05-.08-.04-.08-.02-.09-.02-.1-.02-.11-.03-.11-.02-.11-.01-.1-.02h-.01l-.1-.02h-.01l-.1-.01h-.01l-.1-.01H14l-.1-.02h-.12l-.1-.01h-.01l-.11-.01h-.11L13.34 4h-.11L13.1 4zM9.98 9.2h6.04v7.6H9.98zm5.55.5h-5.06v6.6h5.06zm2.45-4.05h.1l.08.02.09.03.07.04.03.02.1.07.08.07.09.07.08.07.09.07.08.07.09.07.08.08.08.07.08.08.08.07v.01l.08.07.08.08.08.08.07.08v.01l.08.08.07.08.08.09.07.08.07.09.07.08.07.09.07.08.06.1.07.08.06.1.06.08.07.1.06.09.06.09.06.1.05.09.06.1.05.09.05.1.06.09.05.1.05.1.03.05.02.07.02.09v.09l-.01.09-.03.08-.05.08-.06.07-.07.05-.08.04-.09.03-.09.01h-.09l-.08-.03-.09-.04-.07-.06-.06-.06-.05-.08-.02-.05-.04-.08-.05-.09-.05-.09-.04-.08-.05-.09-.05-.08-.05-.09-.06-.08-.05-.08-.05-.08-.06-.09-.05-.08-.06-.08-.06-.08-.06-.07-.06-.08-.06-.08-.06-.08-.07-.07-.06-.08-.06-.07-.07-.08-.07-.07-.07-.07-.07-.08-.07-.07-.07-.07-.07-.07-.07-.06-.07-.07-.08-.07-.07-.06-.08-.07-.07-.06-.08-.06-.08-.06-.08-.06-.08-.06-.02-.02-.06-.05-.06-.07-.04-.08-.03-.09-.01-.09v-.09l.03-.08.03-.09.06-.07.06-.06.08-.05.08-.04zm-10.25.2h-.09l-.09.02-.08.04-.06.04-.03.02-.08.07-.09.07-.08.07-.09.07-.08.08-.08.07-.08.08-.08.07-.08.09-.08.08-.08.07-.08.09-.07.08-.07.08-.08.09-.07.08-.07.08-.07.09-.07.09-.07.09-.06.08-.07.1-.06.08-.06.1L5.5 8l-.06.09-.06.09-.05.1-.06.09-.06.1-.05.09-.06.1-.05.09-.05.1-.05.1-.05.1-.05.1-.04.1-.03.05-.03.09-.01.09v.09l.02.09.04.08.05.08.07.06.07.05.08.04.1.01h.18l.08-.04.08-.04.07-.06.05-.07.04-.07.02-.05.04-.1.05-.08.04-.09.04-.08.05-.09.05-.09.04-.08.05-.09.05-.08.05-.09.06-.08.05-.08.05-.08.06-.09.05-.08.06-.08.06-.08.06-.07.06-.08.06-.08.06-.08.06-.07.07-.08.06-.07.07-.08.07-.07.06-.07.07-.08.07-.07.07-.07.08-.07.07-.06.07-.07.08-.07.07-.06.08-.07.07-.06.08-.06L8 6.7l.07-.06.05-.07.04-.09.02-.08v-.18l-.03-.1-.05-.07-.05-.07-.07-.06-.08-.04-.09-.03zm5.27 0h.35l.1.01h.08l.09.02h.09l.08.01.09.01.09.01.08.02.09.01.09.01.09.02.08.02.09.01.08.02.09.02.08.02.09.03.08.02.08.02.09.03.08.02.08.03.09.03.08.03.08.03.08.03.08.03.08.03.08.04h.01l.07.03.07.06.06.07.05.08.03.08.01.1v.08l-.02.09-.03.08-.05.08-.07.06-.07.06-.08.03-.09.03h-.09l-.09-.01-.08-.03-.08-.03-.07-.03-.06-.02-.07-.03-.08-.03-.07-.02-.07-.03-.07-.02-.07-.02-.08-.02-.07-.02-.07-.02L14.5 7l-.08-.02-.07-.02-.07-.01-.08-.02-.07-.01-.08-.02H14l-.08-.02-.07-.01-.08-.01-.07-.01h-.08l-.08-.01-.07-.01h-.08l-.07-.01h-.77l-.07.02h-.28l-.08-.04-.08-.04-.06-.06-.06-.07-.04-.08-.03-.09-.01-.09V6.3l.03-.08.03-.09.06-.07.06-.06.08-.05.08-.03.1-.02h.02l.09-.01.09-.01h.09l.08-.01h.18l.1-.01zm-3.08.77h-.1l-.08.02-.07.03-.04.02-.07.04-.08.04-.07.05-.08.04-.07.05-.08.04L9.1 7l-.07.05h-.01l-.07.05-.07.05-.07.05-.07.05-.07.05-.07.06-.07.05-.07.06-.07.05-.07.06-.06.06-.07.06-.06.06-.07.06-.06.06-.07.06-.06.06-.06.07-.06.06-.06.07-.06.06-.06.07-.05.07-.06.07-.06.06-.05.07-.06.08-.05.06-.05.07-.05.08-.05.07-.05.07L7 9.1l-.04.08-.03.09v.18l.02.09.04.08.05.07.07.07.07.04.09.04.09.01h.09l.09-.01.08-.03.08-.05.07-.06.04-.06.04-.06.04-.06.04-.06.05-.06.04-.07.05-.06.05-.06.04-.06.05-.06.05-.05.05-.06.05-.06.05-.06.05-.05.05-.06.06-.05.05-.06.05-.05.06-.06.06-.05.05-.05.06-.05.06-.05.06-.05.05-.05.06-.05.06-.04.06-.05.06-.05.06-.04.07-.04.06-.05.06-.04.06-.04.07-.04.06-.04.07-.04.06-.04.07-.04.06-.03.07-.04.03-.02.08-.05.06-.06.06-.07.03-.08.03-.1V7.1l-.01-.1-.03-.08-.04-.08-.06-.07-.07-.06-.08-.04-.08-.03zm7.82 1.19.09.01.09.03.08.04.06.06.06.05.06.07.06.06.06.07.06.06.06.07.05.07.06.07.05.06.06.07.05.07.06.08.05.06.05.08.05.07.05.07.05.07.04.08.05.07.04.08.05.07.04.08.05.07.04.08.04.08.04.08.04.07.03.08.04.08.04.08.03.08.04.08.03.08.03.08.03.08v.01l.03.08.03.08.03.08.02.08v.01l.03.08.03.08.01.05.02.08v.09l-.02.09-.03.08-.04.08-.06.07-.07.06-.08.04-.1.02-.08.01h-.1l-.08-.03-.08-.04-.07-.05-.06-.07-.05-.08-.04-.08v-.04l-.03-.08-.02-.07-.02-.07-.03-.07-.02-.07-.03-.07-.03-.07-.02-.07-.03-.07-.03-.07-.03-.07-.03-.07-.03-.07-.04-.07-.03-.06-.04-.07-.03-.07-.04-.06-.03-.07-.04-.07-.04-.06-.04-.07-.04-.06-.04-.06-.04-.07-.04-.06-.05-.06-.04-.06-.04-.07-.05-.06-.05-.06-.04-.06-.05-.06-.05-.05-.05-.06-.05-.06-.05-.06-.05-.05-.05-.06-.06-.05-.05-.05-.05-.06-.04-.08-.03-.09-.02-.09v-.09l.02-.08.04-.09.05-.07.06-.07.08-.05.08-.04.09-.02zM6.5 11.2h-.09l-.09.02-.08.04-.08.05-.06.06-.06.07-.03.09-.02.07-.02.07-.01.09-.02.08-.01.1-.01.08-.02.08v.1l-.02.08v.09l-.01.09v.09l-.01.08v.18l-.01.09v.44l.01.09v.09l.02.09v.09l.01.08.01.09.01.09.02.08.01.09.02.09.01.09.02.08.01.09.02.08.02.09.02.08.03.09.02.08.02.09.03.08.02.08.01.04.04.08.05.08.07.06.07.05.08.04.1.02h.18l.08-.04.08-.04.07-.06.05-.07.05-.08.02-.09.01-.09v-.09l-.02-.07-.01-.03-.02-.07-.02-.07-.02-.08-.02-.07-.02-.07-.02-.08-.02-.07-.01-.07-.02-.08-.01-.07-.02-.08V14l-.02-.08-.01-.07-.01-.08-.01-.07v-.08l-.01-.07-.01-.08v-.08l-.01-.07v-.77l.02-.07v-.08l.01-.07v-.08l.02-.07v-.08L6.9 12l.01-.07.02-.08.01-.07.01-.09v-.09l-.03-.08-.04-.08-.06-.08-.07-.06-.07-.05-.09-.03zm14.93.91h.18l.09.04.08.04.07.06.05.07.05.08.03.08.01.1v.3l.01.1v.34l-.01.11v.12l-.01.1v.01l-.01.1v.01l-.01.1v.01l-.02.1v.12l-.02.1v.01l-.02.1v.01l-.02.1v.01l-.01.1v.01l-.02.1-.02.11-.03.1v.01l-.02.1-.03.11v.01l-.02.1-.03.1v.01l-.03.1-.03.1v.02l-.03.1-.03.1-.04.1v.01l-.03.1-.04.1-.03.1-.04.1v.01l-.04.1-.05.1-.04.1-.04.1-.05.1-.04.1-.05.1-.05.1-.05.1-.04.06-.06.07-.07.06-.08.04-.09.02-.09.01h-.09l-.08-.03-.09-.04-.07-.05-.06-.07-.05-.08-.03-.08-.02-.1v-.08l.02-.1.04-.07.04-.1.04-.08.05-.09.04-.09.04-.09.04-.09.04-.09.03-.09.04-.09.03-.1.04-.08.03-.1.03-.09.03-.1.03-.08.03-.1.03-.1.02-.09.02-.1.03-.09.02-.1.02-.1.02-.09.02-.1.02-.09.01-.1.02-.1.01-.1.02-.09v-.1l.02-.1v-.1l.02-.1v-.2l.01-.1v-.74l.02-.1.03-.07.05-.08.07-.07.07-.05.08-.04zm-16.9.32h-.1l-.08.02-.09.03-.07.05-.07.06-.05.07-.04.09-.02.08-.01.08v.42l.01.1v.12l.01.1v.01l.01.1v.01l.01.1v.01l.01.1V14l.02.1v.01l.01.1v.01l.02.1v.01l.01.1.02.11v.01l.02.1.02.11.03.1v.01l.02.1v.01l.03.1.02.11.03.1v.01l.03.1.03.11.03.1v.01l.03.1.04.1.03.1v.01l.04.1.04.1.03.11.04.1.05.1.04.1.04.1.05.1.04.1.05.1.05.1.01.03.05.08.06.06.08.06.08.03.09.03h.18l.08-.03.08-.05.07-.05.06-.07.05-.08.03-.09.01-.09v-.09l-.02-.08-.03-.07-.01-.02-.04-.1-.05-.08-.04-.09-.04-.09-.04-.09-.04-.09-.03-.09-.04-.09-.03-.1-.04-.08-.03-.1-.03-.09-.03-.1-.03-.08-.03-.1-.02-.1-.03-.09-.02-.1-.03-.09-.02-.1-.02-.1-.02-.09-.02-.1-.02-.09-.01-.1-.02-.1-.01-.1-.02-.09v-.1L5 13.8v-.1L5 13.6l-.01-.1v-.1l-.01-.1v-.37l-.01-.09-.03-.08-.04-.08-.05-.08-.07-.06-.08-.04-.08-.04zm14.98 1.14h.18l.09.04.08.04.07.06.05.07.05.08.02.09.02.09-.01.09-.02.09-.01.08-.02.09-.02.08v.01l-.01.08-.02.09-.03.08-.02.09-.02.08-.02.08-.03.09-.02.08-.03.08-.03.09-.03.08-.03.08-.03.09-.03.07-.03.09-.04.07v.01l-.03.07v.01l-.04.07-.03.08-.04.08-.04.08-.04.08-.04.08-.04.07-.05.08-.04.07-.04.08-.05.07-.04.08-.05.07-.05.07v.01l-.05.07-.05.07-.05.07-.05.07-.05.07-.06.07-.03.04-.05.06-.07.05-.08.04-.09.03h-.18l-.09-.03-.08-.04-.07-.05-.06-.07-.05-.08-.03-.08-.01-.1v-.08l.02-.1.03-.08.05-.07.02-.03.05-.06.05-.06.04-.07.04-.06.05-.06.04-.06.04-.07.04-.06.04-.06.04-.07.04-.06.04-.07.03-.07.04-.06.03-.07.04-.07.03-.06.04-.07.03-.07.03-.07.03-.07.03-.07.03-.07.02-.07.03-.07.03-.07.02-.07.03-.07.02-.07.02-.07.02-.08.02-.07.02-.07.02-.07.02-.08.02-.07.01-.08.02-.07.01-.07.02-.08V14l.03-.08.03-.08.05-.08.07-.06.07-.05.08-.04zm-11.66 3.2h-.1l-.08.04-.08.04-.07.06-.05.07-.04.08-.03.09-.01.09v.09l.03.09.04.08.04.06.02.03.06.07.06.06.06.07.06.06.06.07.06.06.06.07.06.06.07.06.06.06.07.06.06.06.07.06.07.05.07.06.06.05.08.06.06.05.07.06.07.05.08.05.07.05.07.05.07.05.08.04.07.05.08.04.07.05.08.04.07.05.08.04.08.04.08.04.07.04.08.03.08.04.08.04.08.03.08.04.08.03.08.03.09.02.09.01h.09l.08-.03.09-.04.07-.06.06-.06.05-.08.03-.09.01-.09v-.09l-.02-.09-.03-.08-.05-.08-.06-.06-.08-.05-.06-.04-.07-.02-.07-.03-.07-.03-.07-.03-.07-.03-.07-.03-.07-.04-.06-.03-.07-.03-.07-.04-.06-.04-.07-.03-.07-.04-.06-.04-.07-.04-.06-.04-.06-.04-.07-.04-.06-.04-.06-.05-.06-.04-.07-.05-.06-.04-.06-.05-.06-.04-.06-.05-.05-.05-.06-.05-.06-.05-.06-.05-.05-.05-.06-.05-.05-.06-.06-.05-.05-.06-.06-.05-.05-.06-.05-.05-.05-.06-.05-.06-.05-.06-.02-.02-.06-.06-.08-.06-.08-.03-.1-.02zm8.38 1.52h.18l.09.03.08.04.07.06.06.06.05.08.03.09.01.09v.09l-.02.09-.03.08-.05.07-.07.07-.07.05-.04.02-.07.05-.08.04-.08.04-.08.04-.07.04-.08.03-.08.04-.08.04-.08.03-.08.04-.08.03-.08.03-.08.03h-.01l-.08.03-.08.03-.08.03-.08.03h-.01l-.08.02-.08.03-.09.02-.08.02-.08.03h-.01l-.08.02-.09.02-.08.01-.09.02-.08.02-.09.01-.08.02h-.01l-.08.01-.09.02h-.09l-.08.02h-.09l-.09.01-.09.01h-.08l-.1.01h-.17l-.09.01h-.07l-.1-.02-.07-.04-.08-.05-.06-.07-.05-.07-.04-.08-.02-.1v-.08l.01-.1.03-.08.05-.08.06-.07.07-.05.08-.04.08-.03.1-.01h.22l.08-.01h.08l.07-.01.08-.01.08-.01h.07l.08-.02h.07l.08-.02.07-.01.07-.02.08-.01.08-.02.07-.01.07-.02.08-.02.07-.02.07-.02.07-.02.08-.02.07-.02.07-.02.07-.03.07-.02.07-.03.07-.03.07-.02.07-.03.07-.03.07-.03.07-.03.07-.03.07-.04.06-.03.07-.03.07-.04.06-.03.07-.04.03-.02.07-.03zm-8.67.78-.09.02-.09.03-.07.04-.07.06-.06.07-.04.08-.03.09v.18l.02.09.04.08.05.07.06.06.01.01.09.07.09.07.08.07.1.06.08.07.1.06.08.07.1.06.09.06.09.06.1.06.09.05.1.06.09.05.1.05.09.06.1.05.1.05.1.05.1.05.1.04.1.05.1.04.1.04.1.04.1.04.1.04.1.04.1.04h.01l.1.03.1.04h.01l.1.03.1.03h.01l.1.03.1.03h.01l.1.03.11.02.1.03h.01l.1.02.08.01h.1l.08-.03.08-.04.08-.05.06-.07.05-.07.03-.09.02-.08v-.1l-.01-.08-.04-.09-.04-.08-.06-.06-.08-.06-.08-.04-.07-.02-.09-.02-.09-.02-.1-.03-.1-.02-.09-.03-.09-.02-.1-.03-.09-.03-.1-.03-.08-.03-.1-.03-.09-.04-.09-.03-.1-.04-.08-.03-.1-.04-.08-.04-.1-.04-.08-.04-.09-.05-.09-.04-.08-.04-.09-.05-.08-.04-.1-.05-.08-.05-.08-.05-.08-.05-.09-.05-.08-.06-.08-.05-.08-.06-.09-.05-.08-.06-.08-.06-.07-.06-.08-.06-.08-.06-.08-.06-.01-.01-.08-.05-.08-.04-.09-.02zm10.72.06h.18l.08.03.08.05.07.05.06.07.05.08.03.09v.18l-.02.09-.04.08-.05.07-.06.07-.04.03-.09.07-.09.07-.08.06-.1.07-.08.06-.1.06-.08.07-.1.06-.09.06-.1.06-.09.05-.1.06-.09.05-.1.05-.09.06-.1.05-.1.05-.1.05-.1.05-.1.04-.1.05-.1.04-.1.04-.1.05-.1.03-.1.04-.1.04-.1.04h-.01l-.1.03-.1.04h-.01l-.1.03-.1.03h-.01l-.1.03-.1.03h-.01l-.1.03-.11.02-.1.03h-.01l-.1.02h-.01l-.06.02h-.17l-.09-.02-.08-.04-.08-.05-.06-.06-.05-.08-.04-.08-.02-.09v-.09l.02-.09.03-.08.04-.08.06-.07.07-.06.08-.04.09-.03h.06l.1-.03.09-.02.1-.03.1-.02.09-.03.09-.02.1-.03.09-.03.1-.03.09-.03.09-.03.09-.04.09-.03.1-.04.08-.03.1-.04.08-.04.1-.04.08-.04.09-.05.09-.04.08-.04.09-.05.09-.05.08-.04.09-.05.08-.05.09-.05.08-.05.08-.06.08-.05.09-.06.08-.05.08-.06.08-.06.07-.06.08-.06.08-.06.04-.03.06-.04.08-.04z" clip-rule="evenodd"/><path fill="currentColor" d="M10.98 12.76v.48H15v-.48zm0 1.18v.49H15v-.49zm0-2.37v.49H15v-.49zm0 3.55v.5H15v-.5zm0-4.73v.49H15v-.5z"/></svg>