<svg width="26" height="26" viewBox="0 0 26 26" fill="none" xmlns="http://www.w3.org/2000/svg">
<g id="compensation-intermediate-event-catch">
<path id="path4481-5-4" fill-rule="evenodd" clip-rule="evenodd" d="M12.9843 3.00181C8.12162 2.90241 3.58402 6.9054 3.0782 11.7531C2.54366 15.853 4.7913 20.1775 8.54104 21.9642C12.0818 23.746 16.6731 23.2094 19.6096 20.5054C22.5751 17.9009 23.814 13.469 22.4421 9.73625C21.1807 6.05711 17.6528 3.25503 13.7508 3.0309C13.4958 3.01207 13.2401 3.00181 12.9843 3.00181ZM12.8712 4.08076C17.3302 3.91261 21.521 7.63612 21.8704 12.0949C22.2996 16.0273 19.8289 20.1011 16.0691 21.397C12.4143 22.7504 7.92793 21.4347 5.72053 18.1792C3.45495 15.0012 3.54493 10.3101 6.11558 7.32859C7.76088 5.34394 10.2854 4.09039 12.8712 4.08076ZM5.05396 12.6793C5.12848 8.54838 8.92334 4.92176 13.0482 5.05318C14.9582 5.05528 16.845 5.80322 18.2715 7.0686C20.9636 9.341 21.6693 13.4809 20.0914 16.5917C18.5658 19.777 14.7449 21.5362 11.3254 20.7866C7.63478 20.0756 4.87212 16.4123 5.05396 12.6793ZM12.9998 6.11369C16.636 6.01743 19.9478 9.29445 19.8895 12.9395C19.9537 16.3091 17.2455 19.5116 13.8671 19.8514C10.6951 20.2685 7.35077 18.2316 6.43883 15.1241C5.48294 12.1634 6.73882 8.59736 9.49361 7.0729C10.5498 6.44979 11.7734 6.11171 12.9998 6.11369ZM8.01932 13.0006L12.6498 9.7266V12.8902L17.1232 9.7266V16.2767C16.5583 15.8768 15.9933 15.4772 15.4283 15.0775L15.4264 15.0761L15.4245 15.0748L15.4227 15.0736C14.4983 14.4196 13.5738 13.7657 12.6498 13.111V16.2767L11.4114 15.4004C10.2807 14.6004 9.15009 13.8004 8.01932 13.0006ZM12.1091 10.7688V15.2281L8.95406 12.9985L12.1091 10.7688ZM16.5845 15.2323V10.7688L13.4295 13.0006L16.5845 15.2323Z" fill="black"/>
</g>
</svg>
