<svg xmlns="http://www.w3.org/2000/svg" width="26" height="26" fill="none"><path fill="currentColor" fill-rule="evenodd" d="M12.912 4h.071c.737 0 1.473.088 2.188.267 3.466.812 6.214 3.882 6.722 7.393.565 3.46-1.155 7.11-4.12 8.953-3.019 1.959-7.193 1.78-10.076-.35-2.9-2.06-4.3-5.93-3.45-9.375.88-3.91 4.654-6.92 8.665-6.888m.164.972-.195-.002c-2.71.01-5.34 1.533-6.742 3.846C4.249 11.804 4.726 16 7.177 18.53c2.39 2.593 6.55 3.228 9.628 1.533 3.011-1.569 4.72-5.19 4.085-8.515-.6-3.68-4.087-6.613-7.814-6.575m-.036.872q-.098 0-.197.003c-3.432 0-6.576 2.84-6.945 6.251-.439 3.198 1.572 6.532 4.623 7.606 2.89 1.092 6.422.056 8.226-2.464 1.947-2.579 1.835-6.49-.335-8.905-1.328-1.546-3.332-2.488-5.371-2.491m.088.955-.131-.002a6.23 6.23 0 0 0-3.789 1.29c-2.37 1.738-3.08 5.246-1.695 7.81 1.288 2.537 4.452 3.856 7.17 3.063 2.82-.739 4.8-3.683 4.483-6.568-.232-3.03-3-5.593-6.038-5.593M9.986 9.197v7.584h6.028V9.197zm5.54.487h-5.055v6.61h5.056z" clip-rule="evenodd"/><path fill="currentColor" d="M10.984 12.756v.488H15v-.488zM10.984 13.94v.487H15v-.487zM10.984 11.573v.487H15v-.487zM10.984 15.124v.487H15v-.487zM10.984 10.389v.487H15v-.487z"/></svg>