<svg xmlns="http://www.w3.org/2000/svg" width="26" height="26" fill="none"><path fill-rule="evenodd" clip-rule="evenodd" d="M10.548 4.345c.808-.267 1.677-.336 2.526-.345a8.912 8.912 0 0 1 1.924.21c.503.16.347.978-.178.942-1.288-.254-2.632-.245-3.906.08-.516.16-.847-.638-.366-.887Zm2.451 4.63c-.47 1.31-.854 2.646-1.24 3.983-.384 1.336-.768 2.673-1.239 3.982.432-.43.836-.884 1.24-1.34.404-.454.808-.909 1.24-1.338l2.479 2.678a464.23 464.23 0 0 1-1.24-3.982c-.41-1.329-.818-2.658-1.24-3.983Zm.019 1.648c.23.728.455 1.457.68 2.187.225.73.45 1.459.68 2.186l-1.36-1.47c-.16.14-.423.441-.673.728-.354.405-.68.78-.643.616.237-.678.435-1.367.634-2.057.211-.735.423-1.47.682-2.19Zm5.043-5.06c-.524-.057-.71.725-.24.936 1.049.768 1.813 1.855 2.432 2.979.347.415 1.055-.081.787-.55-.666-1.28-1.58-2.466-2.77-3.3a.486.486 0 0 0-.21-.066ZM6.944 6.26c.216-.211.436-.428.74-.46.247.01.458.224.462.472-.017.283-.228.447-.44.612a1.754 1.754 0 0 0-.314.285c-.668.67-1.202 1.465-1.65 2.295-.092.343-.468.66-.814.418-.381-.246-.157-.694.017-.995.49-.867 1.053-1.706 1.763-2.408.08-.067.158-.142.236-.219Zm14.567 5.771c-.434-.019-.565.461-.49.809.072 1.347-.266 2.698-.91 3.88-.185.492.554.876.851.441a8.031 8.031 0 0 0 .991-4.804.487.487 0 0 0-.442-.325ZM4.017 13.197c-.071-.35.074-.825.51-.791a.493.493 0 0 1 .444.389 8.962 8.962 0 0 0 .941 3.867c.186.493-.553.877-.85.442a9.39 9.39 0 0 1-1.045-3.906Zm14.33 5.856c-.258.034-.46.198-.662.363a2.177 2.177 0 0 1-.417.29c-.852.563-1.821.918-2.8 1.176-.486.238-.173 1.044.346.895a9.269 9.269 0 0 0 3.889-1.924c.263-.294.04-.799-.355-.8Zm-11 .94c-.408-.226-.253-.915.223-.916.184-.015.321.1.453.21l.047.039c.892.736 1.984 1.17 3.093 1.459.362.017.689.393.49.746-.205.368-.606.242-.937.139a5.595 5.595 0 0 0-.129-.04c-1.177-.317-2.303-.85-3.24-1.638Z" /></svg>