<svg xmlns="http://www.w3.org/2000/svg" width="370" height="294" fill="none">
  <path fill="#161616" d="m1 10.24 1.072-.094c.051.43.168.784.352 1.061.187.273.476.496.867.668.39.168.83.252 1.318.252a3.16 3.16 0 0 0 1.149-.193c.332-.13.578-.305.738-.528.164-.226.246-.472.246-.738 0-.27-.078-.504-.234-.703-.156-.203-.414-.373-.774-.51-.23-.09-.74-.228-1.529-.416-.789-.191-1.342-.371-1.658-.539-.41-.215-.717-.48-.92-.797a1.99 1.99 0 0 1-.299-1.072c0-.434.123-.838.37-1.213.245-.379.605-.666 1.077-.861a4.09 4.09 0 0 1 1.577-.293c.636 0 1.197.103 1.681.31.488.203.863.504 1.125.903A2.6 2.6 0 0 1 7.58 6.83l-1.09.082c-.058-.543-.258-.953-.597-1.23-.336-.278-.834-.416-1.495-.416-.687 0-1.189.127-1.505.38-.313.25-.47.553-.47.909 0 .308.112.562.335.761.219.2.789.405 1.71.616.927.207 1.561.388 1.905.545.5.23.87.523 1.107.878.239.352.358.758.358 1.22 0 .456-.131.888-.393 1.294-.261.402-.638.717-1.13.944-.489.222-1.04.333-1.653.333-.777 0-1.43-.113-1.957-.34a2.764 2.764 0 0 1-1.236-1.019A2.929 2.929 0 0 1 1 10.24Zm10.559 1.817.152.931a3.911 3.911 0 0 1-.797.094c-.383 0-.68-.06-.89-.182a1.02 1.02 0 0 1-.446-.474c-.086-.2-.129-.616-.129-1.248v-3.58h-.773v-.82h.773V5.235l1.049-.632v2.173h1.06v.82h-1.06v3.64c0 .3.018.493.053.58.039.085.1.154.181.204.086.051.208.077.364.077.117 0 .271-.014.463-.041Zm5.097.175c-.39.333-.767.567-1.13.704-.36.136-.747.205-1.16.205-.684 0-1.21-.166-1.577-.498-.367-.336-.55-.764-.55-1.284 0-.304.068-.582.204-.832.141-.254.323-.457.545-.609.227-.152.48-.268.762-.346.207-.054.52-.107.938-.158.851-.101 1.478-.223 1.88-.363l.006-.276c0-.43-.1-.732-.299-.908-.27-.238-.67-.357-1.2-.357-.497 0-.864.088-1.102.263-.235.172-.409.479-.522.92l-1.031-.14c.094-.442.248-.797.463-1.067.215-.273.525-.482.932-.627.406-.148.876-.222 1.412-.222.53 0 .962.062 1.294.187.332.125.577.283.733.475.156.187.265.426.328.715.035.18.053.504.053.972v1.407c0 .98.021 1.601.064 1.863.047.258.137.506.27.744h-1.102a2.237 2.237 0 0 1-.21-.768Zm-.088-2.355c-.383.156-.957.289-1.722.398-.434.063-.74.133-.92.211a.911.911 0 0 0-.563.844c0 .281.106.516.317.703.215.188.527.282.937.282.406 0 .768-.088 1.084-.264.317-.18.549-.424.697-.733.114-.238.17-.59.17-1.054v-.387ZM19.264 13V6.777h.949v.944c.242-.442.465-.733.668-.873.207-.141.433-.211.68-.211.355 0 .716.113 1.084.34l-.364.978a1.509 1.509 0 0 0-.773-.228c-.23 0-.438.07-.621.21a1.111 1.111 0 0 0-.393.575 4.111 4.111 0 0 0-.176 1.23V13h-1.054Zm6.31-.943.153.931a3.912 3.912 0 0 1-.797.094c-.383 0-.68-.06-.89-.182a1.02 1.02 0 0 1-.446-.474c-.086-.2-.13-.616-.13-1.248v-3.58h-.773v-.82h.774V5.235l1.049-.632v2.173h1.06v.82h-1.06v3.64c0 .3.017.493.052.58.04.085.1.154.182.204.086.051.207.077.363.077.117 0 .272-.014.463-.041Zm8.637-1.06 1.09.134c-.172.637-.49 1.13-.955 1.482-.465.352-1.059.528-1.781.528-.91 0-1.633-.28-2.168-.838-.532-.563-.797-1.35-.797-2.362 0-1.046.27-1.859.808-2.437.54-.578 1.238-.867 2.098-.867.832 0 1.512.283 2.039.85.527.566.79 1.363.79 2.39 0 .062-.001.156-.005.281h-4.64c.038.684.232 1.207.58 1.57.347.364.78.545 1.3.545.387 0 .717-.101.99-.304.274-.203.49-.528.65-.973ZM30.748 9.29h3.475c-.047-.523-.18-.916-.399-1.178a1.616 1.616 0 0 0-1.306-.61c-.485 0-.893.163-1.225.487-.328.324-.51.758-.545 1.301ZM38.359 13l-2.367-6.223h1.114l1.335 3.727c.145.402.278.82.399 1.254.094-.328.224-.723.392-1.184l1.383-3.797H41.7L39.344 13h-.985Zm8.532-2.004 1.09.135c-.172.637-.49 1.13-.956 1.482-.465.352-1.058.528-1.78.528-.911 0-1.634-.28-2.169-.838-.531-.563-.797-1.35-.797-2.362 0-1.046.27-1.859.809-2.437.539-.578 1.238-.867 2.097-.867.833 0 1.512.283 2.04.85.527.566.79 1.363.79 2.39 0 .062-.001.156-.005.281h-4.64c.038.684.232 1.207.58 1.57.347.364.78.545 1.3.545.387 0 .717-.101.99-.304.274-.203.49-.528.65-.973Zm-3.463-1.705h3.474c-.047-.523-.18-.916-.398-1.178a1.616 1.616 0 0 0-1.307-.61c-.484 0-.892.163-1.224.487-.328.324-.51.758-.545 1.301ZM49.31 13V6.777h.949v.885c.457-.683 1.117-1.025 1.98-1.025.375 0 .719.068 1.032.205.316.133.552.308.709.527.156.219.265.479.328.78.039.195.058.537.058 1.025V13h-1.054V9.215c0-.43-.041-.75-.123-.961a.996.996 0 0 0-.44-.51 1.357 1.357 0 0 0-.732-.193c-.45 0-.838.142-1.166.428-.325.285-.487.826-.487 1.623V13H49.31Zm8.982-.943.152.931a3.912 3.912 0 0 1-.797.094c-.382 0-.68-.06-.89-.182a1.02 1.02 0 0 1-.446-.474c-.085-.2-.128-.616-.128-1.248v-3.58h-.774v-.82h.774V5.235l1.048-.632v2.173h1.061v.82h-1.06v3.64c0 .3.017.493.052.58.04.085.1.154.182.204.086.051.207.077.363.077.117 0 .272-.014.463-.041ZM316.408 13V4.41h6.211v1.014h-5.074v2.63h4.752v1.008h-4.752v2.924h5.273V13h-6.41Zm7.846 0V6.777h.949v.885c.457-.683 1.117-1.025 1.981-1.025.375 0 .718.068 1.031.205.316.133.553.308.709.527.156.219.265.479.328.78.039.195.059.537.059 1.025V13h-1.055V9.215c0-.43-.041-.75-.123-.961a.996.996 0 0 0-.44-.51 1.356 1.356 0 0 0-.732-.193 1.72 1.72 0 0 0-1.166.428c-.324.285-.486.826-.486 1.623V13h-1.055Zm10.717 0v-.785c-.395.617-.975.926-1.741.926-.496 0-.953-.137-1.371-.41a2.724 2.724 0 0 1-.966-1.143c-.227-.492-.34-1.057-.34-1.693 0-.622.103-1.184.31-1.688.207-.508.518-.896.932-1.166.414-.27.877-.404 1.389-.404.375 0 .709.08 1.002.24.293.156.531.361.714.615V4.41h1.049V13h-.978Zm-3.334-3.105c0 .796.168 1.392.504 1.787.336.394.732.591 1.189.591.461 0 .852-.187 1.172-.562.324-.379.486-.955.486-1.729 0-.851-.164-1.476-.492-1.875-.328-.398-.732-.597-1.213-.597-.469 0-.861.191-1.178.574-.312.383-.468.986-.468 1.81Zm13.576 1.101 1.09.135c-.172.637-.491 1.13-.955 1.482-.465.352-1.059.528-1.782.528-.91 0-1.632-.28-2.168-.838-.531-.563-.796-1.35-.796-2.362 0-1.046.269-1.859.808-2.437.539-.578 1.238-.867 2.098-.867.832 0 1.512.283 2.039.85.527.566.791 1.363.791 2.39 0 .062-.002.156-.006.281h-4.641c.039.684.233 1.207.58 1.57.348.364.782.545 1.301.545.387 0 .717-.101.99-.304.274-.203.491-.528.651-.973Zm-3.463-1.705h3.475c-.047-.523-.18-.916-.399-1.178a1.615 1.615 0 0 0-1.306-.61c-.485 0-.893.163-1.225.487-.328.324-.51.758-.545 1.301ZM349.361 13l-2.367-6.223h1.113l1.336 3.727c.145.402.278.82.399 1.254.094-.328.224-.723.392-1.184l1.383-3.797h1.084L350.346 13h-.985Zm8.532-2.004 1.089.135c-.171.637-.49 1.13-.955 1.482-.465.352-1.058.528-1.781.528-.91 0-1.633-.28-2.168-.838-.531-.563-.797-1.35-.797-2.362 0-1.046.27-1.859.809-2.437.539-.578 1.238-.867 2.098-.867.832 0 1.511.283 2.039.85.527.566.791 1.363.791 2.39 0 .062-.002.156-.006.281h-4.641c.039.684.233 1.207.58 1.57.348.364.781.545 1.301.545.387 0 .717-.101.99-.304.274-.203.49-.528.651-.973Zm-3.463-1.705h3.474c-.047-.523-.179-.916-.398-1.178a1.617 1.617 0 0 0-1.307-.61c-.484 0-.892.163-1.224.487-.329.324-.51.758-.545 1.301ZM360.312 13V6.777h.95v.885c.457-.683 1.117-1.025 1.98-1.025.375 0 .719.068 1.031.205.317.133.553.308.709.527.157.219.266.479.329.78.039.195.058.537.058 1.025V13h-1.055V9.215c0-.43-.041-.75-.123-.961a.994.994 0 0 0-.439-.51 1.356 1.356 0 0 0-.732-.193c-.45 0-.838.142-1.166.428-.325.285-.487.826-.487 1.623V13h-1.055Zm8.983-.943.152.931a3.909 3.909 0 0 1-.797.094c-.382 0-.679-.06-.89-.182a1.022 1.022 0 0 1-.446-.474c-.085-.2-.128-.616-.128-1.248v-3.58h-.774v-.82h.774V5.235l1.048-.632v2.173h1.061v.82h-1.061v3.64c0 .3.018.493.053.58.039.085.1.154.182.204.086.051.207.077.363.077.117 0 .272-.014.463-.041Z"/>
  <g fill="#fff" filter="url(#a)">
    <path d="m180.5 96 6-6 6 6h-12Z"/>
    <rect width="201" height="190" x="86" y="96" rx="2"/>
    <path d="M86 96h201v190H86z"/>
  </g>
  <path fill="#fff" d="M0 0h169v32H0z" style="mix-blend-mode:multiply" transform="translate(102 166)"/>
  <path fill="#0F62FE" d="m125.42 187-.98-2.884h-3.948l-.98 2.884h-1.19l3.416-9.772h1.498l3.416 9.772h-1.232Zm-2.926-8.68h-.07l-1.652 4.76h3.374l-1.652-4.76Zm10.445 7.504h-.056c-.439.896-1.144 1.344-2.114 1.344-.448 0-.854-.089-1.218-.266a2.7 2.7 0 0 1-.938-.756 3.64 3.64 0 0 1-.588-1.19 5.8 5.8 0 0 1-.196-1.568 5.8 5.8 0 0 1 .196-1.568 3.64 3.64 0 0 1 .588-1.19 2.7 2.7 0 0 1 .938-.756c.364-.177.77-.266 1.218-.266.504 0 .933.112 1.288.336.364.215.639.551.826 1.008h.056v-4.312h1.12V187h-1.12v-1.176Zm-1.862.336c.252 0 .49-.033.714-.098a1.89 1.89 0 0 0 .602-.28c.168-.131.298-.285.392-.462.102-.187.154-.397.154-.63v-2.688c0-.196-.052-.378-.154-.546a1.293 1.293 0 0 0-.392-.448 1.89 1.89 0 0 0-.602-.28 2.234 2.234 0 0 0-.714-.112c-.635 0-1.134.201-1.498.602-.364.392-.546.91-.546 1.554v1.232c0 .644.182 1.167.546 1.568.364.392.863.588 1.498.588Zm10.143-.336h-.056c-.439.896-1.143 1.344-2.114 1.344-.448 0-.854-.089-1.218-.266a2.7 2.7 0 0 1-.938-.756 3.64 3.64 0 0 1-.588-1.19 5.8 5.8 0 0 1-.196-1.568 5.8 5.8 0 0 1 .196-1.568 3.64 3.64 0 0 1 .588-1.19 2.7 2.7 0 0 1 .938-.756c.364-.177.77-.266 1.218-.266.504 0 .933.112 1.288.336.364.215.639.551.826 1.008h.056v-4.312h1.12V187h-1.12v-1.176Zm-1.862.336c.252 0 .49-.033.714-.098a1.89 1.89 0 0 0 .602-.28c.168-.131.299-.285.392-.462.103-.187.154-.397.154-.63v-2.688c0-.196-.051-.378-.154-.546a1.283 1.283 0 0 0-.392-.448 1.89 1.89 0 0 0-.602-.28 2.234 2.234 0 0 0-.714-.112c-.635 0-1.134.201-1.498.602-.364.392-.546.91-.546 1.554v1.232c0 .644.182 1.167.546 1.568.364.392.863.588 1.498.588Z"/>
  <path fill="#fff" d="M0 0h16v16H0z" style="mix-blend-mode:multiply" transform="translate(239 174)"/>
  <path fill="#0F62FE" d="M247.5 181.5V178h-1v3.5H243v1h3.5v3.5h1v-3.5h3.5v-1h-3.5Z"/>
  <path fill="#fff" d="M0 0h169v32H0z" style="mix-blend-mode:multiply" transform="translate(102 202)"/>
  <path fill="#0F62FE" d="M122.746 223.168c-1.241 0-2.207-.42-2.898-1.26-.691-.849-1.036-2.095-1.036-3.738 0-1.643.345-2.903 1.036-3.78.691-.887 1.657-1.33 2.898-1.33.821 0 1.507.187 2.058.56.56.373.994.901 1.302 1.582l-.952.574a2.67 2.67 0 0 0-.896-1.204c-.401-.308-.905-.462-1.512-.462-.42 0-.798.079-1.134.238a2.366 2.366 0 0 0-.84.686 3.145 3.145 0 0 0-.518 1.05 4.698 4.698 0 0 0-.182 1.358v1.456c0 1.008.233 1.797.7 2.366.467.569 1.125.854 1.974.854.625 0 1.148-.159 1.568-.476.42-.327.728-.756.924-1.288l.938.588c-.308.691-.751 1.237-1.33 1.638-.579.392-1.279.588-2.1.588Zm10.549-.168c-.42 0-.723-.112-.91-.336a1.708 1.708 0 0 1-.336-.84h-.07c-.158.448-.42.784-.784 1.008-.364.224-.798.336-1.302.336-.765 0-1.362-.196-1.792-.588-.42-.392-.63-.924-.63-1.596 0-.681.248-1.204.742-1.568.504-.364 1.284-.546 2.338-.546h1.428v-.714c0-.513-.14-.905-.42-1.176-.28-.271-.709-.406-1.288-.406-.438 0-.807.098-1.106.294a2.454 2.454 0 0 0-.728.784l-.672-.63c.196-.392.509-.723.938-.994.43-.28.971-.42 1.624-.42.878 0 1.559.215 2.044.644.486.429.728 1.027.728 1.792v3.976h.826v.98h-.63Zm-3.22-.784c.28 0 .537-.033.77-.098a1.88 1.88 0 0 0 .602-.28c.168-.121.299-.261.392-.42a.997.997 0 0 0 .14-.518v-1.19h-1.484c-.644 0-1.115.093-1.414.28a.908.908 0 0 0-.434.812v.294c0 .355.126.63.378.826.262.196.612.294 1.05.294Zm5.609.784v-7.224h1.12v1.176h.056c.177-.411.424-.737.742-.98.326-.243.76-.364 1.302-.364.746 0 1.334.243 1.764.728.438.476.658 1.153.658 2.03V223h-1.12v-4.438c0-1.297-.546-1.946-1.638-1.946-.224 0-.444.028-.658.084-.206.056-.392.14-.56.252a1.289 1.289 0 0 0-.406.434c-.094.168-.14.369-.14.602V223h-1.12Zm10.805.168a3.33 3.33 0 0 1-1.358-.266 2.834 2.834 0 0 1-1.022-.756 3.514 3.514 0 0 1-.63-1.19 5.449 5.449 0 0 1-.21-1.568c0-.579.07-1.101.21-1.568.149-.467.359-.863.63-1.19.28-.327.621-.579 1.022-.756a3.33 3.33 0 0 1 1.358-.266c.719 0 1.293.159 1.722.476.439.308.765.714.98 1.218l-.938.476a1.7 1.7 0 0 0-.644-.868c-.299-.205-.672-.308-1.12-.308-.336 0-.63.056-.882.168a1.623 1.623 0 0 0-.63.448 1.812 1.812 0 0 0-.378.686 2.826 2.826 0 0 0-.126.868v1.232c0 .635.168 1.157.504 1.568.345.401.849.602 1.512.602.905 0 1.559-.42 1.96-1.26l.812.546a2.847 2.847 0 0 1-1.05 1.246c-.457.308-1.031.462-1.722.462Zm7.147 0c-.495 0-.943-.089-1.344-.266a2.996 2.996 0 0 1-1.022-.756 3.776 3.776 0 0 1-.658-1.19 5.141 5.141 0 0 1-.224-1.568c0-.569.075-1.087.224-1.554.159-.467.378-.863.658-1.19.289-.336.63-.593 1.022-.77a3.294 3.294 0 0 1 1.344-.266c.485 0 .919.089 1.302.266.383.177.709.425.98.742.271.308.476.677.616 1.106.149.429.224.901.224 1.414v.532h-5.194v.336c0 .308.047.597.14.868.103.261.243.49.42.686.187.196.411.35.672.462.271.112.574.168.91.168.457 0 .854-.107 1.19-.322.345-.215.611-.523.798-.924l.798.574a2.814 2.814 0 0 1-1.092 1.204c-.495.299-1.083.448-1.764.448Zm0-6.622c-.308 0-.588.056-.84.168a1.883 1.883 0 0 0-.658.448 2.348 2.348 0 0 0-.574 1.568v.098h3.99v-.154c0-.644-.177-1.157-.532-1.54-.345-.392-.807-.588-1.386-.588Zm6.317 6.454c-.392 0-.69-.107-.896-.322-.196-.224-.294-.504-.294-.84v-9.198h1.12v9.38h1.064v.98h-.994Zm11.503 0c-.42 0-.723-.112-.91-.336a1.708 1.708 0 0 1-.336-.84h-.07c-.158.448-.42.784-.784 1.008-.364.224-.798.336-1.302.336-.765 0-1.362-.196-1.792-.588-.42-.392-.63-.924-.63-1.596 0-.681.248-1.204.742-1.568.504-.364 1.284-.546 2.338-.546h1.428v-.714c0-.513-.14-.905-.42-1.176-.28-.271-.709-.406-1.288-.406-.438 0-.807.098-1.106.294a2.454 2.454 0 0 0-.728.784l-.672-.63c.196-.392.509-.723.938-.994.43-.28.971-.42 1.624-.42.878 0 1.559.215 2.044.644.486.429.728 1.027.728 1.792v3.976h.826v.98h-.63Zm-3.22-.784c.28 0 .537-.033.77-.098a1.88 1.88 0 0 0 .602-.28c.168-.121.299-.261.392-.42a.997.997 0 0 0 .14-.518v-1.19h-1.484c-.644 0-1.115.093-1.414.28a.908.908 0 0 0-.434.812v.294c0 .355.126.63.378.826.262.196.612.294 1.05.294Zm6.799.784c-.392 0-.691-.107-.896-.322-.196-.224-.294-.504-.294-.84v-9.198h1.12v9.38h1.064v.98h-.994Zm3.906 0c-.392 0-.691-.107-.896-.322-.196-.224-.294-.504-.294-.84v-9.198h1.12v9.38h1.064v.98h-.994Z"/>
  <path fill="#fff" d="M0 0h16v16H0z" style="mix-blend-mode:multiply" transform="translate(239 210)"/>
  <path fill="#0F62FE" d="M240 218a7.002 7.002 0 0 0 8.366 6.865 7.001 7.001 0 0 0 5.101-9.544A7 7 0 0 0 240 218Zm11.575 3.875-8.45-8.45a6 6 0 0 1 8.45 8.45Zm-8.455.705a6.003 6.003 0 0 1-.7-8.445l8.445 8.445a6.001 6.001 0 0 1-7.745 0Z"/>
  <path fill="#fff" d="M0 0h169v32H0z" style="mix-blend-mode:multiply" transform="translate(102 238)"/>
  <path fill="#0F62FE" d="M126.918 250.768h-.07l-.826 1.638-2.338 4.256-2.338-4.256-.826-1.638h-.07V259h-1.148v-9.772h1.568l2.8 5.264h.07l2.814-5.264h1.512V259h-1.148v-8.232Zm6.523 8.4c-.485 0-.928-.089-1.33-.266a2.973 2.973 0 0 1-1.036-.756 3.776 3.776 0 0 1-.658-1.19 4.87 4.87 0 0 1-.238-1.568c0-.569.08-1.087.238-1.554.159-.467.378-.863.658-1.19.29-.336.635-.593 1.036-.77a3.264 3.264 0 0 1 1.33-.266c.486 0 .924.089 1.316.266.402.177.747.434 1.036.77.29.327.514.723.672 1.19.159.467.238.985.238 1.554 0 .579-.079 1.101-.238 1.568a3.6 3.6 0 0 1-.672 1.19 2.955 2.955 0 0 1-1.036.756 3.16 3.16 0 0 1-1.316.266Zm0-.994c.607 0 1.102-.187 1.484-.56.383-.373.574-.943.574-1.708v-1.036c0-.765-.191-1.335-.574-1.708-.382-.373-.877-.56-1.484-.56-.606 0-1.101.187-1.484.56-.382.373-.574.943-.574 1.708v1.036c0 .765.192 1.335.574 1.708.383.373.878.56 1.484.56Zm6.751.826-2.534-7.224h1.12l1.26 3.584.784 2.464h.07l.784-2.464 1.288-3.584h1.078L141.494 259h-1.302Zm8.061.168a3.3 3.3 0 0 1-1.344-.266 3.006 3.006 0 0 1-1.022-.756 3.776 3.776 0 0 1-.658-1.19 5.141 5.141 0 0 1-.224-1.568c0-.569.075-1.087.224-1.554.159-.467.378-.863.658-1.19.29-.336.63-.593 1.022-.77a3.3 3.3 0 0 1 1.344-.266c.486 0 .92.089 1.302.266.383.177.71.425.98.742.271.308.476.677.616 1.106.15.429.224.901.224 1.414v.532h-5.194v.336c0 .308.047.597.14.868.103.261.243.49.42.686.187.196.411.35.672.462.271.112.574.168.91.168.458 0 .854-.107 1.19-.322.346-.215.612-.523.798-.924l.798.574a2.814 2.814 0 0 1-1.092 1.204c-.494.299-1.082.448-1.764.448Zm0-6.622c-.308 0-.588.056-.84.168a1.883 1.883 0 0 0-.658.448 2.195 2.195 0 0 0-.42.7 2.369 2.369 0 0 0-.154.868v.098h3.99v-.154c0-.644-.177-1.157-.532-1.54-.345-.392-.807-.588-1.386-.588ZM162.099 259c-.42 0-.723-.112-.91-.336a1.708 1.708 0 0 1-.336-.84h-.07c-.158.448-.42.784-.784 1.008-.364.224-.798.336-1.302.336-.765 0-1.362-.196-1.792-.588-.42-.392-.63-.924-.63-1.596 0-.681.248-1.204.742-1.568.504-.364 1.284-.546 2.338-.546h1.428v-.714c0-.513-.14-.905-.42-1.176-.28-.271-.709-.406-1.288-.406-.438 0-.807.098-1.106.294a2.454 2.454 0 0 0-.728.784l-.672-.63c.196-.392.509-.723.938-.994.43-.28.971-.42 1.624-.42.878 0 1.559.215 2.044.644.486.429.728 1.027.728 1.792v3.976h.826v.98h-.63Zm-3.22-.784c.28 0 .537-.033.77-.098a1.88 1.88 0 0 0 .602-.28c.168-.121.299-.261.392-.42a.997.997 0 0 0 .14-.518v-1.19h-1.484c-.644 0-1.115.093-1.414.28a.908.908 0 0 0-.434.812v.294c0 .355.126.63.378.826.262.196.612.294 1.05.294Zm6.799.784c-.392 0-.691-.107-.896-.322-.196-.224-.294-.504-.294-.84v-9.198h1.12v9.38h1.064v.98h-.994Zm3.906 0c-.392 0-.691-.107-.896-.322-.196-.224-.294-.504-.294-.84v-9.198h1.12v9.38h1.064v.98h-.994Z"/>
  <path fill="#fff" d="M0 0h16v16H0z" style="mix-blend-mode:multiply" transform="translate(239 246)"/>
  <path fill="#0F62FE" d="m248 249-.715.697 3.79 3.803H241v1h10.075l-3.79 3.786.715.714 5-5-5-5Z"/>
  <path fill="#525252" d="M103.148 120v-9.772h6.286v1.638h-4.438v2.366h3.864v1.638h-3.864V120h-1.848Zm9.92 0c-.616 0-1.069-.154-1.358-.462-.289-.308-.434-.742-.434-1.302v-8.596h1.792v8.932h.966V120h-.966Zm5.381.168a3.61 3.61 0 0 1-1.414-.266 3.002 3.002 0 0 1-1.064-.77 3.604 3.604 0 0 1-.672-1.204 5.047 5.047 0 0 1-.238-1.596c0-.588.08-1.115.238-1.582a3.45 3.45 0 0 1 .672-1.19 3.002 3.002 0 0 1 1.064-.77 3.61 3.61 0 0 1 1.414-.266c.523 0 .994.089 1.414.266.42.177.775.434 1.064.77.299.327.528.723.686 1.19.159.467.238.994.238 1.582 0 .588-.079 1.12-.238 1.596a3.45 3.45 0 0 1-.686 1.204 2.835 2.835 0 0 1-1.064.77c-.42.177-.891.266-1.414.266Zm0-1.442c.476 0 .85-.145 1.12-.434.271-.289.406-.714.406-1.274v-1.358c0-.551-.135-.971-.406-1.26-.27-.289-.644-.434-1.12-.434-.466 0-.835.145-1.106.434-.27.289-.406.709-.406 1.26v1.358c0 .56.136.985.406 1.274.271.289.64.434 1.106.434Zm4.314-6.034h1.722l.742 3.01.574 2.506h.056l.672-2.506.854-3.01h1.624l.882 3.01.686 2.506h.056l.574-2.506.728-3.01h1.666L131.597 120h-1.932l-.938-3.22-.546-1.988h-.042l-.532 1.988-.924 3.22h-1.904l-2.016-7.308Zm18.725 2.296-1.008-2.03h-.042V120h-1.75v-9.772h2.03l2.94 5.012 1.008 2.03h.042v-7.042h1.75V120h-2.03l-2.94-5.012Zm10.209 5.18c-.523 0-.994-.089-1.414-.266a2.984 2.984 0 0 1-1.064-.77 3.57 3.57 0 0 1-.672-1.204 5.019 5.019 0 0 1-.238-1.596c0-.588.079-1.115.238-1.582.158-.467.382-.863.672-1.19a2.984 2.984 0 0 1 1.064-.77c.42-.177.891-.266 1.414-.266.522 0 .994.089 1.414.266.42.177.774.434 1.064.77.298.327.527.723.686 1.19.158.467.238.994.238 1.582 0 .588-.08 1.12-.238 1.596a3.481 3.481 0 0 1-.686 1.204c-.29.336-.644.593-1.064.77a3.61 3.61 0 0 1-1.414.266Zm0-1.442c.476 0 .849-.145 1.12-.434.27-.289.406-.714.406-1.274v-1.358c0-.551-.136-.971-.406-1.26-.271-.289-.644-.434-1.12-.434-.467 0-.836.145-1.106.434-.271.289-.406.709-.406 1.26v1.358c0 .56.135.985.406 1.274.27.289.639.434 1.106.434Zm9.686.056h-.07c-.13.42-.378.756-.742 1.008a2.181 2.181 0 0 1-1.274.378c-.924 0-1.633-.331-2.128-.994-.485-.663-.728-1.61-.728-2.842 0-1.223.243-2.161.728-2.814.495-.663 1.204-.994 2.128-.994.486 0 .91.126 1.274.378.364.243.612.574.742.994h.07v-4.256h1.792V120h-1.792v-1.218Zm-1.512-.098c.43 0 .789-.103 1.078-.308.29-.205.434-.499.434-.882v-2.324a1.01 1.01 0 0 0-.434-.854c-.289-.215-.648-.322-1.078-.322-.466 0-.844.159-1.134.476-.28.308-.42.723-.42 1.246v1.26c0 .523.14.938.42 1.246.29.308.668.462 1.134.462Zm8.485 1.484a3.79 3.79 0 0 1-1.456-.266 3.21 3.21 0 0 1-1.078-.77 3.604 3.604 0 0 1-.672-1.204 5.019 5.019 0 0 1-.238-1.596c0-.579.075-1.101.224-1.568a3.45 3.45 0 0 1 .672-1.19 2.835 2.835 0 0 1 1.064-.77c.42-.187.896-.28 1.428-.28.569 0 1.064.098 1.484.294.42.196.765.462 1.036.798s.471.728.602 1.176c.14.439.21.91.21 1.414v.588h-4.858v.182c0 .532.149.961.448 1.288.299.317.742.476 1.33.476.448 0 .812-.093 1.092-.28a3.11 3.11 0 0 0 .77-.714l.966 1.078c-.299.42-.709.751-1.232.994-.513.233-1.111.35-1.792.35Zm-.028-6.3c-.476 0-.854.159-1.134.476-.28.317-.42.728-.42 1.232v.112h2.996v-.126c0-.504-.126-.91-.378-1.218-.243-.317-.597-.476-1.064-.476Zm15.999-.882h-.056l-.756 1.554-2.002 3.696-2.002-3.696-.756-1.554h-.056V120h-1.75v-9.772h2.086l2.506 4.774h.056l2.478-4.774h2.002V120h-1.75v-7.014Zm6.998 7.182c-.523 0-.994-.089-1.414-.266a2.993 2.993 0 0 1-1.064-.77 3.604 3.604 0 0 1-.672-1.204 5.019 5.019 0 0 1-.238-1.596c0-.588.079-1.115.238-1.582a3.45 3.45 0 0 1 .672-1.19 2.993 2.993 0 0 1 1.064-.77c.42-.177.891-.266 1.414-.266.523 0 .994.089 1.414.266.42.177.775.434 1.064.77.299.327.527.723.686 1.19.159.467.238.994.238 1.582 0 .588-.079 1.12-.238 1.596a3.465 3.465 0 0 1-.686 1.204 2.835 2.835 0 0 1-1.064.77c-.42.177-.891.266-1.414.266Zm0-1.442c.476 0 .849-.145 1.12-.434.271-.289.406-.714.406-1.274v-1.358c0-.551-.135-.971-.406-1.26-.271-.289-.644-.434-1.12-.434-.467 0-.835.145-1.106.434-.271.289-.406.709-.406 1.26v1.358c0 .56.135.985.406 1.274.271.289.639.434 1.106.434Zm9.687.056h-.07c-.131.42-.378.756-.742 1.008a2.183 2.183 0 0 1-1.274.378c-.924 0-1.634-.331-2.128-.994-.486-.663-.728-1.61-.728-2.842 0-1.223.242-2.161.728-2.814.494-.663 1.204-.994 2.128-.994.485 0 .91.126 1.274.378.364.243.611.574.742.994h.07v-4.256h1.792V120h-1.792v-1.218Zm-1.512-.098c.429 0 .788-.103 1.078-.308.289-.205.434-.499.434-.882v-2.324c0-.355-.145-.639-.434-.854-.29-.215-.649-.322-1.078-.322-.467 0-.845.159-1.134.476-.28.308-.42.723-.42 1.246v1.26c0 .523.14.938.42 1.246.289.308.667.462 1.134.462Zm6.426-7.056c-.373 0-.644-.084-.812-.252a.9.9 0 0 1-.238-.644v-.28a.9.9 0 0 1 .238-.644c.168-.168.439-.252.812-.252.364 0 .63.084.798.252a.873.873 0 0 1 .252.644v.28a.873.873 0 0 1-.252.644c-.168.168-.434.252-.798.252Zm-.896 1.064h1.792V120h-1.792v-7.308Zm4.393 1.414h-1.078v-1.414h1.078v-1.05c0-.644.168-1.139.504-1.484.346-.345.85-.518 1.512-.518h1.274v1.428h-1.498v1.624h4.508V120h-1.792v-5.894h-2.716V120h-1.792v-5.894Zm5.404-2.478c-.373 0-.644-.084-.812-.252a.904.904 0 0 1-.238-.644v-.28c0-.261.08-.476.238-.644.168-.168.439-.252.812-.252.364 0 .63.084.798.252a.873.873 0 0 1 .252.644v.28a.873.873 0 0 1-.252.644c-.168.168-.434.252-.798.252Zm6.013 8.54c-.542 0-1.022-.089-1.442-.266a2.835 2.835 0 0 1-1.064-.77 3.535 3.535 0 0 1-.644-1.204 5.297 5.297 0 0 1-.224-1.596c0-.588.074-1.115.224-1.582.149-.467.364-.863.644-1.19a2.835 2.835 0 0 1 1.064-.77c.42-.177.9-.266 1.442-.266.737 0 1.344.163 1.82.49a2.74 2.74 0 0 1 1.05 1.358l-1.47.658a1.467 1.467 0 0 0-.476-.756c-.224-.205-.532-.308-.924-.308-.504 0-.882.159-1.134.476-.243.317-.364.733-.364 1.246v1.33c0 .513.121.929.364 1.246.252.308.63.462 1.134.462.429 0 .76-.107.994-.322.233-.224.415-.499.546-.826l1.372.658c-.243.644-.612 1.129-1.106 1.456-.495.317-1.097.476-1.806.476Zm9.829-.168c-.392 0-.704-.112-.938-.336-.224-.233-.364-.541-.42-.924h-.084c-.121.476-.368.835-.742 1.078-.373.233-.835.35-1.386.35-.746 0-1.32-.196-1.722-.588-.401-.392-.602-.915-.602-1.568 0-.756.271-1.316.812-1.68.542-.373 1.312-.56 2.31-.56h1.246v-.532c0-.411-.107-.728-.322-.952-.214-.224-.56-.336-1.036-.336-.42 0-.76.093-1.022.28a2.644 2.644 0 0 0-.644.644l-1.064-.952c.271-.42.63-.756 1.078-1.008.448-.261 1.041-.392 1.778-.392.99 0 1.741.224 2.254.672.514.448.77 1.092.77 1.932v3.444h.728V120h-.994Zm-2.968-1.134c.402 0 .742-.089 1.022-.266.28-.177.42-.439.42-.784v-.966h-1.148c-.933 0-1.4.299-1.4.896v.238c0 .299.094.523.28.672.196.14.472.21.826.21Zm7.8 1.134c-.616 0-1.087-.159-1.414-.476-.317-.327-.476-.789-.476-1.386v-4.018h-1.078v-1.428h.56c.271 0 .453-.061.546-.182.103-.131.154-.322.154-.574v-1.246h1.61v2.002h1.498v1.428h-1.498v4.452h1.386V120h-1.288Zm4.01-8.372c-.373 0-.644-.084-.812-.252a.904.904 0 0 1-.238-.644v-.28c0-.261.08-.476.238-.644.168-.168.439-.252.812-.252.364 0 .63.084.798.252a.873.873 0 0 1 .252.644v.28a.873.873 0 0 1-.252.644c-.168.168-.434.252-.798.252Zm-.896 1.064h1.792V120h-1.792v-7.308Zm6.927 7.476a3.61 3.61 0 0 1-1.414-.266 3.002 3.002 0 0 1-1.064-.77 3.604 3.604 0 0 1-.672-1.204 5.047 5.047 0 0 1-.238-1.596c0-.588.08-1.115.238-1.582a3.45 3.45 0 0 1 .672-1.19 3.002 3.002 0 0 1 1.064-.77 3.61 3.61 0 0 1 1.414-.266c.523 0 .994.089 1.414.266.42.177.775.434 1.064.77.299.327.528.723.686 1.19.159.467.238.994.238 1.582 0 .588-.079 1.12-.238 1.596a3.45 3.45 0 0 1-.686 1.204 2.835 2.835 0 0 1-1.064.77c-.42.177-.891.266-1.414.266Zm0-1.442c.476 0 .85-.145 1.12-.434.271-.289.406-.714.406-1.274v-1.358c0-.551-.135-.971-.406-1.26-.27-.289-.644-.434-1.12-.434-.466 0-.835.145-1.106.434-.27.289-.406.709-.406 1.26v1.358c0 .56.136.985.406 1.274.271.289.64.434 1.106.434Zm5.151 1.274v-7.308h1.792v1.218h.07c.149-.392.383-.719.7-.98.327-.271.775-.406 1.344-.406.756 0 1.335.247 1.736.742s.602 1.199.602 2.114V120h-1.792v-4.438c0-.523-.093-.915-.28-1.176-.187-.261-.495-.392-.924-.392a1.8 1.8 0 0 0-.546.084 1.415 1.415 0 0 0-.462.224 1.102 1.102 0 0 0-.322.364.962.962 0 0 0-.126.504V120h-1.792Zm10.785.168c-.7 0-1.288-.117-1.764-.35a4.16 4.16 0 0 1-1.26-.994l1.092-1.064c.27.308.564.551.882.728.326.177.7.266 1.12.266.429 0 .737-.075.924-.224a.732.732 0 0 0 .294-.616c0-.215-.07-.383-.21-.504-.131-.131-.36-.219-.686-.266l-.728-.098c-.794-.103-1.4-.327-1.82-.672-.411-.355-.616-.868-.616-1.54 0-.355.065-.672.196-.952a1.95 1.95 0 0 1 .56-.728c.242-.205.532-.359.868-.462a3.705 3.705 0 0 1 1.148-.168c.354 0 .667.028.938.084.28.047.532.121.756.224.224.093.429.215.616.364.186.14.368.299.546.476l-1.05 1.05a2.78 2.78 0 0 0-.77-.56 2.168 2.168 0 0 0-.98-.224c-.392 0-.677.07-.854.21a.677.677 0 0 0-.252.546c0 .243.07.429.21.56.149.121.396.21.742.266l.742.098c1.577.224 2.366.943 2.366 2.156 0 .355-.075.681-.224.98-.14.289-.341.541-.602.756a3.063 3.063 0 0 1-.952.49 4.186 4.186 0 0 1-1.232.168ZM105.468 147.144c-.68 0-1.26-.128-1.74-.384a3.757 3.757 0 0 1-1.224-1.08l.744-.624c.296.392.624.692.984.9.36.2.784.3 1.272.3.6 0 1.056-.144 1.368-.432.32-.288.48-.672.48-1.152 0-.4-.12-.708-.36-.924-.24-.216-.636-.388-1.188-.516l-.684-.156c-.768-.176-1.356-.44-1.764-.792-.4-.36-.6-.864-.6-1.512 0-.368.068-.696.204-.984.136-.288.324-.528.564-.72.248-.192.54-.336.876-.432.344-.104.72-.156 1.128-.156.632 0 1.172.116 1.62.348.456.232.84.572 1.152 1.02l-.756.552a2.606 2.606 0 0 0-.84-.756c-.328-.184-.736-.276-1.224-.276-.536 0-.96.116-1.272.348-.304.224-.456.564-.456 1.02 0 .4.128.704.384.912.264.2.66.36 1.188.48l.684.156c.824.184 1.42.464 1.788.84.368.376.552.876.552 1.5 0 .384-.068.732-.204 1.044a2.082 2.082 0 0 1-.564.792 2.641 2.641 0 0 1-.912.504 3.71 3.71 0 0 1-1.2.18Zm7.173 0a2.82 2.82 0 0 1-1.152-.228 2.578 2.578 0 0 1-.876-.648 3.228 3.228 0 0 1-.564-1.02 4.398 4.398 0 0 1-.192-1.344c0-.488.064-.932.192-1.332.136-.4.324-.74.564-1.02.248-.288.54-.508.876-.66a2.82 2.82 0 0 1 1.152-.228c.416 0 .788.076 1.116.228.328.152.608.364.84.636.232.264.408.58.528.948.128.368.192.772.192 1.212v.456h-4.452v.288c0 .264.04.512.12.744.088.224.208.42.36.588.16.168.352.3.576.396.232.096.492.144.78.144.392 0 .732-.092 1.02-.276.296-.184.524-.448.684-.792l.684.492c-.2.424-.512.768-.936 1.032-.424.256-.928.384-1.512.384Zm0-5.676c-.264 0-.504.048-.72.144a1.608 1.608 0 0 0-.564.384 2.019 2.019 0 0 0-.492 1.344v.084h3.42v-.132c0-.552-.152-.992-.456-1.32-.296-.336-.692-.504-1.188-.504Zm5.598 5.532c-.336 0-.592-.092-.768-.276a1.054 1.054 0 0 1-.252-.72v-7.884h.96v8.04h.912v.84h-.852Zm4.897.144a2.82 2.82 0 0 1-1.152-.228 2.578 2.578 0 0 1-.876-.648 3.228 3.228 0 0 1-.564-1.02 4.398 4.398 0 0 1-.192-1.344c0-.488.064-.932.192-1.332.136-.4.324-.74.564-1.02.248-.288.54-.508.876-.66a2.82 2.82 0 0 1 1.152-.228c.416 0 .788.076 1.116.228.328.152.608.364.84.636.232.264.408.58.528.948.128.368.192.772.192 1.212v.456h-4.452v.288c0 .264.04.512.12.744.088.224.208.42.36.588.16.168.352.3.576.396.232.096.492.144.78.144.392 0 .732-.092 1.02-.276.296-.184.524-.448.684-.792l.684.492c-.2.424-.512.768-.936 1.032-.424.256-.928.384-1.512.384Zm0-5.676c-.264 0-.504.048-.72.144a1.608 1.608 0 0 0-.564.384 2.019 2.019 0 0 0-.492 1.344v.084h3.42v-.132c0-.552-.152-.992-.456-1.32-.296-.336-.692-.504-1.188-.504Zm6.882 5.676c-.432 0-.82-.076-1.164-.228a2.433 2.433 0 0 1-.876-.648 3.022 3.022 0 0 1-.54-1.02 4.67 4.67 0 0 1-.18-1.344c0-.496.06-.944.18-1.344.128-.4.308-.74.54-1.02.24-.28.532-.496.876-.648a2.851 2.851 0 0 1 1.164-.228c.616 0 1.108.136 1.476.408.376.264.656.612.84 1.044l-.804.408a1.457 1.457 0 0 0-.552-.744c-.256-.176-.576-.264-.96-.264-.288 0-.54.048-.756.144a1.389 1.389 0 0 0-.54.384c-.144.16-.252.356-.324.588a2.422 2.422 0 0 0-.108.744v1.056c0 .544.144.992.432 1.344.296.344.728.516 1.296.516.776 0 1.336-.36 1.68-1.08l.696.468c-.2.448-.5.804-.9 1.068-.392.264-.884.396-1.476.396Zm5.419-.144c-.336 0-.592-.092-.768-.276-.168-.192-.252-.44-.252-.744v-4.332h-1.02v-.84h.576c.208 0 .348-.04.42-.12.08-.088.12-.236.12-.444v-1.152h.864v1.716h1.356v.84h-1.356v4.512h1.26v.84h-1.2Zm5.44.144a2.82 2.82 0 0 1-1.152-.228 2.578 2.578 0 0 1-.876-.648 3.228 3.228 0 0 1-.564-1.02 4.398 4.398 0 0 1-.192-1.344c0-.488.064-.932.192-1.332.136-.4.324-.74.564-1.02.248-.288.54-.508.876-.66a2.82 2.82 0 0 1 1.152-.228c.416 0 .788.076 1.116.228.328.152.608.364.84.636.232.264.408.58.528.948.128.368.192.772.192 1.212v.456h-4.452v.288c0 .264.04.512.12.744.088.224.208.42.36.588.16.168.352.3.576.396.232.096.492.144.78.144.392 0 .732-.092 1.02-.276.296-.184.524-.448.684-.792l.684.492c-.2.424-.512.768-.936 1.032-.424.256-.928.384-1.512.384Zm0-5.676c-.264 0-.504.048-.72.144a1.608 1.608 0 0 0-.564.384 2.019 2.019 0 0 0-.492 1.344v.084h3.42v-.132c0-.552-.152-.992-.456-1.32-.296-.336-.692-.504-1.188-.504Zm8.538 4.524h-.048c-.376.768-.98 1.152-1.812 1.152-.384 0-.732-.076-1.044-.228a2.324 2.324 0 0 1-.804-.648 3.12 3.12 0 0 1-.504-1.02 4.983 4.983 0 0 1-.168-1.344c0-.496.056-.944.168-1.344.12-.4.288-.74.504-1.02.224-.28.492-.496.804-.648.312-.152.66-.228 1.044-.228.432 0 .8.096 1.104.288.312.184.548.472.708.864h.048v-3.696h.96V147h-.96v-1.008Zm-1.596.288c.216 0 .42-.028.612-.084.2-.056.372-.136.516-.24.144-.112.256-.244.336-.396.088-.16.132-.34.132-.54v-2.304a.881.881 0 0 0-.132-.468 1.103 1.103 0 0 0-.336-.384 1.618 1.618 0 0 0-.516-.24 1.923 1.923 0 0 0-.612-.096c-.544 0-.972.172-1.284.516-.312.336-.468.78-.468 1.332v1.056c0 .552.156 1 .468 1.344.312.336.74.504 1.284.504Zm8.073.72v-6.192h.96v1.14h.06a1.87 1.87 0 0 1 .6-.792c.288-.232.684-.348 1.188-.348h.372v.96h-.564c-.52 0-.928.1-1.224.3-.288.192-.432.436-.432.732v4.2h-.96Zm8.542-1.008h-.048a2.914 2.914 0 0 1-.24.432c-.088.136-.2.26-.336.372-.136.104-.3.188-.492.252a2.127 2.127 0 0 1-.672.096c-.64 0-1.148-.204-1.524-.612-.376-.416-.564-1-.564-1.752v-3.972h.96v3.804c0 1.112.472 1.668 1.416 1.668.192 0 .376-.024.552-.072.184-.048.344-.12.48-.216a1.031 1.031 0 0 0 .468-.9v-4.284h.96V147h-.96v-1.008Zm3.325 1.008v-6.192h.96v1.008h.048c.152-.352.364-.632.636-.84.28-.208.652-.312 1.116-.312.64 0 1.144.208 1.512.624.376.408.564.988.564 1.74V147h-.96v-3.804c0-1.112-.468-1.668-1.404-1.668-.192 0-.38.024-.564.072-.176.048-.336.12-.48.216-.144.096-.26.22-.348.372-.08.144-.12.316-.12.516V147h-.96Zm7.14 0v-6.192h.96v1.008h.048c.152-.352.364-.632.636-.84.28-.208.652-.312 1.116-.312.64 0 1.144.208 1.512.624.376.408.564.988.564 1.74V147h-.96v-3.804c0-1.112-.468-1.668-1.404-1.668-.192 0-.38.024-.564.072-.176.048-.336.12-.48.216-.144.096-.26.22-.348.372-.08.144-.12.316-.12.516V147h-.96Zm7.62-7.644c-.208 0-.36-.048-.456-.144a.592.592 0 0 1-.132-.396v-.156c0-.16.044-.288.132-.384.096-.104.248-.156.456-.156.208 0 .356.052.444.156a.519.519 0 0 1 .144.384v.156c0 .16-.048.292-.144.396-.088.096-.236.144-.444.144Zm-.48 1.452h.96V147h-.96v-6.192Zm3.32 6.192v-6.192h.96v1.008h.048c.152-.352.364-.632.636-.84.28-.208.652-.312 1.116-.312.64 0 1.144.208 1.512.624.376.408.564.988.564 1.74V147h-.96v-3.804c0-1.112-.468-1.668-1.404-1.668-.192 0-.38.024-.564.072-.176.048-.336.12-.48.216-.144.096-.26.22-.348.372-.08.144-.12.316-.12.516V147h-.96Zm12.361.684c0 .64-.252 1.108-.756 1.404-.496.304-1.244.456-2.244.456-.968 0-1.664-.132-2.088-.396-.424-.264-.636-.64-.636-1.128 0-.336.088-.6.264-.792.176-.184.416-.32.72-.408v-.132c-.368-.176-.552-.464-.552-.864 0-.312.1-.548.3-.708.2-.168.456-.292.768-.372v-.048a2.04 2.04 0 0 1-.864-.756c-.2-.328-.3-.708-.3-1.14 0-.312.056-.6.168-.864.112-.264.268-.488.468-.672a2.19 2.19 0 0 1 .732-.444 2.81 2.81 0 0 1 .96-.156c.44 0 .832.08 1.176.24v-.108c0-.24.056-.436.168-.588.112-.16.296-.24.552-.24h.924v.84h-1.176v.396c.224.192.396.424.516.696.128.264.192.564.192.9 0 .312-.056.6-.168.864a1.963 1.963 0 0 1-.48.684c-.2.184-.444.328-.732.432a3.053 3.053 0 0 1-1.56.096c-.208.056-.396.14-.564.252a.494.494 0 0 0-.252.444c0 .184.088.308.264.372.176.064.404.096.684.096h1.32c.768 0 1.324.148 1.668.444.352.288.528.688.528 1.2Zm-.9.072a.728.728 0 0 0-.288-.6c-.184-.144-.516-.216-.996-.216h-2.064c-.384.176-.576.456-.576.84 0 .272.1.504.3.696.208.192.556.288 1.044.288h.888c.536 0 .952-.084 1.248-.252a.817.817 0 0 0 .444-.756Zm-2.148-3.588c.408 0 .732-.096.972-.288.24-.2.36-.504.36-.912v-.336c0-.408-.12-.708-.36-.9-.24-.2-.564-.3-.972-.3-.408 0-.732.1-.972.3-.24.192-.36.492-.36.9v.336c0 .408.12.712.36.912.24.192.564.288.972.288Zm8.123-4.812c-.208 0-.36-.048-.456-.144a.592.592 0 0 1-.132-.396v-.156c0-.16.044-.288.132-.384.096-.104.248-.156.456-.156.208 0 .356.052.444.156a.519.519 0 0 1 .144.384v.156c0 .16-.048.292-.144.396-.088.096-.236.144-.444.144Zm-.48 1.452h.96V147h-.96v-6.192Zm3.32 6.192v-6.192h.96v1.008h.048c.152-.352.364-.632.636-.84.28-.208.652-.312 1.116-.312.64 0 1.144.208 1.512.624.376.408.564.988.564 1.74V147h-.96v-3.804c0-1.112-.468-1.668-1.404-1.668-.192 0-.38.024-.564.072-.176.048-.336.12-.48.216-.144.096-.26.22-.348.372-.08.144-.12.316-.12.516V147h-.96Zm9.001.144c-.576 0-1.06-.108-1.452-.324a3.392 3.392 0 0 1-.996-.888l.684-.552c.24.304.508.54.804.708.296.16.64.24 1.032.24.408 0 .724-.088.948-.264.232-.176.348-.424.348-.744 0-.24-.08-.444-.24-.612-.152-.176-.432-.296-.84-.36l-.492-.072c-.288-.04-.552-.1-.792-.18-.24-.088-.452-.2-.636-.336a1.595 1.595 0 0 1-.42-.528 1.763 1.763 0 0 1-.144-.744c0-.304.056-.568.168-.792.112-.232.264-.424.456-.576.2-.152.436-.264.708-.336.272-.08.564-.12.876-.12.504 0 .924.088 1.26.264.344.176.644.42.9.732l-.636.576a1.848 1.848 0 0 0-.6-.516c-.264-.16-.596-.24-.996-.24s-.704.088-.912.264c-.2.168-.3.4-.3.696 0 .304.1.524.3.66.208.136.504.236.888.3l.48.072c.688.104 1.176.304 1.464.6.288.288.432.668.432 1.14 0 .6-.204 1.072-.612 1.416-.408.344-.968.516-1.68.516Zm5.593-.144c-.336 0-.592-.092-.768-.276-.168-.192-.252-.44-.252-.744v-4.332h-1.02v-.84h.576c.208 0 .348-.04.42-.12.08-.088.12-.236.12-.444v-1.152h.864v1.716h1.356v.84h-1.356v4.512h1.26v.84h-1.2Zm7.659 0c-.36 0-.62-.096-.78-.288a1.459 1.459 0 0 1-.288-.72h-.06c-.136.384-.36.672-.672.864-.312.192-.684.288-1.116.288-.656 0-1.168-.168-1.536-.504-.36-.336-.54-.792-.54-1.368 0-.584.212-1.032.636-1.344.432-.312 1.1-.468 2.004-.468h1.224v-.612c0-.44-.12-.776-.36-1.008-.24-.232-.608-.348-1.104-.348-.376 0-.692.084-.948.252a2.103 2.103 0 0 0-.624.672l-.576-.54c.168-.336.436-.62.804-.852.368-.24.832-.36 1.392-.36.752 0 1.336.184 1.752.552.416.368.624.88.624 1.536v3.408h.708v.84h-.54Zm-2.76-.672c.24 0 .46-.028.66-.084.2-.056.372-.136.516-.24a1.19 1.19 0 0 0 .336-.36.86.86 0 0 0 .12-.444v-1.02h-1.272c-.552 0-.956.08-1.212.24a.778.778 0 0 0-.372.696v.252c0 .304.108.54.324.708.224.168.524.252.9.252Zm4.991.672v-6.192h.96v1.008h.048c.152-.352.364-.632.636-.84.28-.208.652-.312 1.116-.312.64 0 1.144.208 1.512.624.376.408.564.988.564 1.74V147h-.96v-3.804c0-1.112-.468-1.668-1.404-1.668-.192 0-.38.024-.564.072-.176.048-.336.12-.48.216-.144.096-.26.22-.348.372-.08.144-.12.316-.12.516V147h-.96Zm9.444.144c-.432 0-.82-.076-1.164-.228a2.433 2.433 0 0 1-.876-.648 3.022 3.022 0 0 1-.54-1.02 4.67 4.67 0 0 1-.18-1.344c0-.496.06-.944.18-1.344.128-.4.308-.74.54-1.02.24-.28.532-.496.876-.648a2.851 2.851 0 0 1 1.164-.228c.616 0 1.108.136 1.476.408.376.264.656.612.84 1.044l-.804.408a1.457 1.457 0 0 0-.552-.744c-.256-.176-.576-.264-.96-.264-.288 0-.54.048-.756.144a1.389 1.389 0 0 0-.54.384c-.144.16-.252.356-.324.588a2.422 2.422 0 0 0-.108.744v1.056c0 .544.144.992.432 1.344.296.344.728.516 1.296.516.776 0 1.336-.36 1.68-1.08l.696.468c-.2.448-.5.804-.9 1.068-.392.264-.884.396-1.476.396Zm6.309 0a2.82 2.82 0 0 1-1.152-.228 2.578 2.578 0 0 1-.876-.648 3.228 3.228 0 0 1-.564-1.02 4.398 4.398 0 0 1-.192-1.344c0-.488.064-.932.192-1.332.136-.4.324-.74.564-1.02.248-.288.54-.508.876-.66a2.82 2.82 0 0 1 1.152-.228c.416 0 .788.076 1.116.228.328.152.608.364.84.636.232.264.408.58.528.948.128.368.192.772.192 1.212v.456h-4.452v.288c0 .264.04.512.12.744.088.224.208.42.36.588.16.168.352.3.576.396.232.096.492.144.78.144.392 0 .732-.092 1.02-.276.296-.184.524-.448.684-.792l.684.492c-.2.424-.512.768-.936 1.032-.424.256-.928.384-1.512.384Zm0-5.676c-.264 0-.504.048-.72.144a1.608 1.608 0 0 0-.564.384 2.019 2.019 0 0 0-.492 1.344v.084h3.42v-.132c0-.552-.152-.992-.456-1.32-.296-.336-.692-.504-1.188-.504Zm6.438 5.676c-.576 0-1.06-.108-1.452-.324a3.392 3.392 0 0 1-.996-.888l.684-.552c.24.304.508.54.804.708.296.16.64.24 1.032.24.408 0 .724-.088.948-.264.232-.176.348-.424.348-.744 0-.24-.08-.444-.24-.612-.152-.176-.432-.296-.84-.36l-.492-.072c-.288-.04-.552-.1-.792-.18-.24-.088-.452-.2-.636-.336a1.595 1.595 0 0 1-.42-.528 1.763 1.763 0 0 1-.144-.744c0-.304.056-.568.168-.792.112-.232.264-.424.456-.576.2-.152.436-.264.708-.336.272-.08.564-.12.876-.12.504 0 .924.088 1.26.264.344.176.644.42.9.732l-.636.576a1.848 1.848 0 0 0-.6-.516c-.264-.16-.596-.24-.996-.24s-.704.088-.912.264c-.2.168-.3.4-.3.696 0 .304.1.524.3.66.208.136.504.236.888.3l.48.072c.688.104 1.176.304 1.464.6.288.288.432.668.432 1.14 0 .6-.204 1.072-.612 1.416-.408.344-.968.516-1.68.516Zm5.039 0c-.256 0-.444-.064-.564-.192a.738.738 0 0 1-.168-.504v-.156c0-.208.056-.376.168-.504.12-.128.308-.192.564-.192.256 0 .44.064.552.192.12.128.18.296.18.504v.156c0 .208-.06.376-.18.504-.112.128-.296.192-.552.192Zm0-4.932c-.256 0-.444-.064-.564-.192a.738.738 0 0 1-.168-.504v-.156c0-.208.056-.376.168-.504.12-.128.308-.192.564-.192.256 0 .44.064.552.192.12.128.18.296.18.504v.156c0 .208-.06.376-.18.504-.112.128-.296.192-.552.192Zm6.284 4.788v-.888h2.34v-6.744h-.084l-2.112 1.968-.588-.636 2.22-2.076h1.572v7.488h2.16V147h-5.508Z"/>
  <rect width="108" height="88" x="132" y="1" stroke="#78A9FF" stroke-width="2" rx="11" fill="none"/>
  <path fill="#0043CE" fill-opacity=".3" stroke="#525252" stroke-width="2" d="M145 5h82a9 9 0 0 1 9 9v62a9 9 0 0 1-9 9h-82a9 9 0 0 1-9-9V14a9 9 0 0 1 9-9Z"/>
  <path fill="#fff" stroke="#525252" stroke-width="6" d="M343 67c-12.15 0-22-9.85-22-22s9.85-22 22-22 22 9.85 22 22-9.85 22-22 22Z"/>
  <path fill="#fff" stroke="#525252" stroke-width="2" d="M29 69C15.745 69 5 58.255 5 45s10.745-24 24-24 24 10.745 24 24-10.745 24-24 24Z"/>
  <path fill="#78A9FF" d="M55 44h-1v2h1v-2Zm76 1-10-5.773v11.547L131 45Zm-76 1h67v-2H55v2Z"/>
  <path fill="#525252" d="M242 44h-1v2h1v-2Zm76 1-10-5.773v11.547L318 45Zm-76 1h67v-2h-67v2Z"/>
  <rect width="45" height="22" x="115" y="73" fill="#198038" rx="11"/>
  <path fill="#fff" d="M143.222 89v-1.573h2.444v-6.084h-.117l-1.846 2.418-1.248-.975 2.171-2.86h2.99v7.501h1.924V89h-6.318Z"/>
  <path fill="#fff" d="M0 0h16v16H0z" style="mix-blend-mode:multiply" transform="translate(119 76)"/>
  <path fill="#fff" d="M127 77a7 7 0 1 0 0 14.001A7 7 0 0 0 127 77Zm0 13a5.996 5.996 0 0 1-5.543-3.704 6.005 6.005 0 0 1 1.3-6.539 6.002 6.002 0 0 1 9.232.91A6.002 6.002 0 0 1 127 90Z"/>
  <path fill="#fff" d="M127 81a3.003 3.003 0 0 0-2.772 1.852 2.998 2.998 0 0 0 .651 3.27 2.998 2.998 0 0 0 4.615-.455 2.998 2.998 0 0 0-.373-3.788A2.998 2.998 0 0 0 127 81Z"/>
  <path fill="#161616" d="M171.434 49v-7.576h-2.83V40.41h6.808v1.014h-2.842V49h-1.136Zm7.74-.768c-.391.333-.768.567-1.131.703a3.232 3.232 0 0 1-1.16.206c-.684 0-1.209-.166-1.576-.498-.368-.336-.551-.764-.551-1.284 0-.304.068-.582.205-.832.141-.254.322-.457.545-.609.226-.152.48-.268.762-.346.207-.054.519-.107.937-.158.852-.102 1.479-.223 1.881-.363l.006-.276c0-.43-.1-.732-.299-.908-.27-.238-.67-.357-1.201-.357-.496 0-.863.088-1.102.263-.234.172-.408.479-.521.92l-1.031-.14c.093-.442.248-.797.462-1.067.215-.273.526-.482.932-.627.406-.148.877-.222 1.412-.222.531 0 .963.062 1.295.187.332.125.576.283.732.475.157.187.266.426.329.715.035.18.052.504.052.972v1.407c0 .98.022 1.601.065 1.863.047.258.137.506.269.744h-1.101a2.217 2.217 0 0 1-.211-.768Zm-.088-2.355c-.383.156-.957.289-1.723.398-.433.063-.74.133-.92.211a.917.917 0 0 0-.416.346.892.892 0 0 0-.146.498c0 .281.105.516.316.703.215.188.528.282.938.282.406 0 .767-.088 1.084-.264.316-.18.549-.424.697-.733.113-.238.17-.59.17-1.054v-.387Zm2.285 1.266 1.043-.165c.059.419.221.739.486.962.27.222.645.333 1.125.333.485 0 .844-.097 1.079-.293.234-.199.351-.431.351-.697a.64.64 0 0 0-.31-.562c-.145-.094-.504-.213-1.079-.358-.773-.195-1.31-.363-1.611-.504a1.611 1.611 0 0 1-.68-.591 1.6 1.6 0 0 1-.228-.838c0-.278.062-.533.187-.768.129-.238.303-.435.522-.592.164-.12.387-.222.668-.304.285-.086.59-.13.914-.13.488 0 .916.071 1.283.212.371.14.645.332.82.574.176.238.297.559.364.96l-1.032.141c-.046-.32-.183-.57-.41-.75-.222-.18-.539-.27-.949-.27-.484 0-.83.081-1.037.241-.207.16-.311.348-.311.563 0 .136.043.26.129.369a.93.93 0 0 0 .405.281c.105.04.416.129.931.27.746.199 1.266.363 1.559.492.297.125.529.308.697.55.168.243.252.544.252.903 0 .351-.103.684-.31.996-.204.309-.499.549-.885.72a3.266 3.266 0 0 1-1.313.253c-.808 0-1.426-.168-1.851-.504-.422-.336-.692-.834-.809-1.494ZM187.799 49v-8.59h1.055v4.899l2.496-2.532h1.365l-2.379 2.309L192.955 49h-1.301l-2.056-3.182-.744.715V49h-1.055Zm7.857 0 3.299-8.59h1.225l3.515 8.59H202.4l-1.002-2.602h-3.591L196.863 49h-1.207Zm2.479-3.527h2.912l-.897-2.38a23.778 23.778 0 0 1-.609-1.78c-.109.55-.264 1.097-.463 1.64l-.943 2.52Z"/>
  <defs>
    <filter id="a" width="213" height="208" x="80" y="86" color-interpolation-filters="sRGB" filterUnits="userSpaceOnUse">
      <feFlood flood-opacity="0" result="BackgroundImageFix"/>
      <feColorMatrix in="SourceAlpha" result="hardAlpha" values="0 0 0 0 0 0 0 0 0 0 0 0 0 0 0 0 0 0 127 0"/>
      <feOffset dy="2"/>
      <feGaussianBlur stdDeviation="3"/>
      <feComposite in2="hardAlpha" operator="out"/>
      <feColorMatrix values="0 0 0 0 0 0 0 0 0 0 0 0 0 0 0 0 0 0 0.3 0"/>
      <feBlend in2="BackgroundImageFix" result="effect1_dropShadow_1174_391012"/>
      <feBlend in="SourceGraphic" in2="effect1_dropShadow_1174_391012" result="shape"/>
    </filter>
  </defs>
</svg>