<svg xmlns="http://www.w3.org/2000/svg" xmlns:xlink="http://www.w3.org/1999/xlink" width="359" height="209">
  <defs>
    <path id="b" d="M70.6881942.09257778c.1836007-.14623523.4509855-.11594455.5972207.06765614L74.934 4.742l71.516.00085209c1.408326 0 2.55 1.14167389 2.55 2.55V127.750229c0 1.408326-1.141674 2.55-2.55 2.55H2.55c-1.40832611 0-2.55-1.141674-2.55-2.55V7.29285209c0-1.40832611 1.14167389-2.55 2.55-2.55L66.97 4.742 70.620538.16023392a.42500894.42500894 0 0 1 .0319181-.03573807Z"/>
    <path id="c" d="M5.10255128 0 5.102 3.393l3.40225213.00044262v1.69672131L5.102 5.09l.00055128 3.39360656H3.40170085L3.401 5.09 0 5.09016393V3.39344262L3.401 3.393 3.40170085 0h1.70085043Z"/>
    <path id="e" d="M3.76615186 9.57711198c.63896469.38298371 1.38711308.60321592 2.18682463.60321592 2.34838438 0 4.25212611-1.89912005 4.25212611-4.24180331 0-.79777011-.22076818-1.54410224-.60468392-2.18151573L3.76615186 9.57711198ZM2.51101704 8.42967345 8.45018777 2.5049211c-.70117958-.50836244-1.56409483-.80819979-2.49721128-.80819979-2.34838438 0-4.25212606 1.89912002-4.25212606 4.24180328 0 .93085114.30056703 1.79167152.81016661 2.49114886Zm3.44195945 3.44737575C2.66523836 11.8770492 0 9.21828116 0 5.93852459S2.66523836 0 5.95297649 0 11.905953 2.65876802 11.905953 5.93852459 9.24071462 11.8770492 5.95297649 11.8770492Z"/>
    <path id="g" d="m5.75372589 0 3.75399955 3.74488606 1.50159986 1.49795443L5.75372589 10.485681 4.25212606 8.98772655 6.925 6.32 0 6.32028689V4.19938525L6.96 4.199 4.25212606 1.49795443 5.75372589 0Z"/>
    <path id="i" d="M5.95 0c3.28609426 0 5.95 2.66390574 5.95 5.95S9.23609426 11.9 5.95 11.9 0 9.23609426 0 5.95 2.66390574 0 5.95 0Zm0 2C3.76847524 2 2 3.76847524 2 5.95 2 8.13152476 3.76847524 9.9 5.95 9.9c2.18152476 0 3.95-1.76847524 3.95-3.95C9.9 3.76847524 8.13152476 2 5.95 2Zm0 1C7.57924001 3 8.9 4.32075999 8.9 5.95c0 1.62924001-1.32075999 2.95-2.95 2.95C4.32075999 8.9 3 7.57924001 3 5.95 3 4.32075999 4.32075999 3 5.95 3Z"/>
    <filter id="a" width="104%" height="104.6%" x="-2%" y="-2.3%" filterUnits="objectBoundingBox">
      <feOffset in="SourceAlpha" result="shadowOffsetOuter1"/>
      <feGaussianBlur in="shadowOffsetOuter1" result="shadowBlurOuter1" stdDeviation="1"/>
      <feComposite in="shadowBlurOuter1" in2="SourceAlpha" operator="out" result="shadowBlurOuter1"/>
      <feColorMatrix in="shadowBlurOuter1" values="0 0 0 0 0 0 0 0 0 0 0 0 0 0 0 0 0 0 0.2 0"/>
    </filter>
  </defs>
  <g fill="none" fill-rule="evenodd">
    <rect width="91.8467734" height="74.652459" x="134.952301" y=".85" fill="#FDFDFE" fill-rule="nonzero" stroke="#4D90FF" stroke-width="1.7" rx="10.2"/>
    <g transform="translate(137.504002 3.393443)">
      <path fill="#DDE8FD" stroke="#62626E" stroke-width="1.7" d="M78.2433717.85c2.1124892 0 4.0249892.85625542 5.4093669 2.24063312C85.0371163 4.47501083 85.8933717 6.38751083 85.8933717 8.5v52.5655738c0 2.1124891-.8562554 4.0249891-2.2406331 5.4093668-1.3843777 1.3843778-3.2968777 2.2406332-5.4093669 2.2406332H8.5c-2.11248917 0-4.02498917-.8562554-5.40936688-2.2406332C1.70625542 65.0905629.85 63.1780629.85 61.0655738V8.5c0-2.11248917.85625542-4.02498917 2.24063312-5.40936688C4.47501083 1.70625542 6.38751083.85 8.5.85h69.7433717Z"/>
      <text fill="#1C1F23" font-family="ArialMT, Arial CE" font-size="12">
                    <tspan x="25.6968812" y="37.8336548">Task A</tspan>
                </text>
    </g>
    <g transform="translate(109.914207 76.609607)">
      <use xlink:href="#b" fill="#000" filter="url(#a)"/>
      <path fill="#F7F8FA" stroke="#D8DCE3" stroke-linejoin="square" stroke-width=".85" d="m70.864.536 3.8713396 4.63099763L146.45 5.16785209c.586803 0 1.118053.23784873 1.502602.62239809.384549.38454937.622398.91579937.622398 1.50260191V127.750229c0 .586803-.237849 1.118053-.622398 1.502602-.384549.384549-.915799.622398-1.502602.622398H2.55c-.58680255 0-1.11805255-.237849-1.50260191-.622398C.66284873 128.868282.425 128.337032.425 127.750229V7.29285209c0-.58680254.23784873-1.11805254.62239809-1.50260191.38454936-.38454936.91579936-.62239809 1.50260753-.62239809l64.62478098-.0008548L70.864.536Z"/>
      <g transform="translate(16.158079 46.402688)">
        <mask id="d" fill="#fff">
          <use xlink:href="#c"/>
        </mask>
        <use xlink:href="#c" fill="#4C5462"/>
        <g mask="url(#d)">
          <rect width="13.6068034" height="13.5737705" fill="#346AC4" transform="translate(-2.551276 -2.545082)"/>
        </g>
      </g>
      <g transform="translate(14.457228 75.246951)">
        <mask id="f" fill="#fff">
          <use xlink:href="#e"/>
        </mask>
        <use xlink:href="#e" fill="#000"/>
        <g mask="url(#f)">
          <rect width="13.6068034" height="13.5737705" fill="#346AC4" transform="translate(-.850425 -.848361)"/>
        </g>
      </g>
      <g transform="translate(15.307653 105.618262)">
        <mask id="h" fill="#fff">
          <use xlink:href="#g"/>
        </mask>
        <use xlink:href="#g" fill="#000"/>
        <g mask="url(#h)">
          <rect width="13.6068034" height="13.5737705" fill="#346AC4" transform="translate(-1.70085 -1.527049)"/>
        </g>
      </g>
      <text fill="#346AC4" font-family="IBMPlexSans-Medium, IBM Plex Sans" font-size="12" font-weight="400">
                    <tspan x="34.0225113" y="55.0928521">Add</tspan>
                </text>
      <text fill="#346AC4" font-family="IBMPlexSans-Medium, IBM Plex Sans" font-size="12" font-weight="400">
                    <tspan x="34.0262631" y="85.6928521">Cancel</tspan>
                </text>
      <text fill="#346AC4" font-family="IBMPlexSans-Medium, IBM Plex Sans" font-size="12" font-weight="400">
                    <tspan x="34.0242621" y="115.442852">Move</tspan>
                </text>
      <text fill="#62626E" font-family="IBMPlexSans, IBM Plex Sans" font-size="11">
                    <tspan x="13.6" y="26.697529">Flow Node Modifications</tspan>
                </text>
    </g>
    <path fill="#FDFDFE" stroke="#62626E" stroke-width="1.7" d="M29.4483861 21.2106557c5.6675395 0 10.7794827 2.2741272 14.4764611 5.953199 3.7027869 3.6848521 5.9857831 8.7787352 5.9857831 14.4058174 0 5.6219872-2.2787605 10.7117413-5.9630178 14.3959986-3.6842573 3.6842573-8.7740114 5.9630178-14.3959986 5.9630178-5.7222348 0-10.8139175-2.277709-14.4992264-5.9630178-3.6842573-3.6842573-5.96301782-8.7740114-5.96301782-14.3959986 0-5.6219871 2.27876052-10.7117412 5.96301782-14.3959985 3.6842573-3.6842573 8.7740114-5.9630179 14.3959986-5.9630179Z"/>
    <path fill="#FDFDFE" stroke="#62626E" stroke-width="5.1" d="M331.349337 22.9106557c5.197551 0 9.886562 2.0838799 13.277301 5.4581952 3.393062 3.3766271 5.484943 8.0444664 5.484943 13.2008212 0 5.1525451-2.088482 9.8172992-5.4651 13.1939171-3.376617 3.3766178-8.041372 5.4650993-13.193917 5.4650993-5.246832 0-9.917372-2.0853269-13.297144-5.4650993-3.376618-3.3766179-5.4651-8.041372-5.4651-13.1939171 0-5.1525451 2.088482-9.8172992 5.4651-13.193917 3.376617-3.3766178 8.041371-5.4650994 13.193917-5.4650994Z"/>
    <path fill="#4D90FF" fill-rule="nonzero" d="m121.824523 35.3196721 13 6.25-13 6.25L121.824 42.419l-70.2125193.0006721v-1.7L121.824 40.719l.000523-5.3993279Z"/>
    <path fill="#62626E" fill-rule="nonzero" d="m297.862542 35.3196721 13 6.25-13 6.25L297.862 42.419l-70.2125.0006721v-1.7L297.862 40.719l.000542-5.3993279Z"/>
    <text fill="#1C1F23" font-family="ArialMT, Arial CE" font-size="12">
                <tspan x=".484375" y="12.3828351">Start event</tspan>
            </text>
    <text fill="#1C1F23" font-family="ArialMT, Arial CE" font-size="12">
                <tspan x="304.45548" y="12.3828351">End event</tspan>
            </text>
    <g transform="translate(119 60)">
      <rect width="37" height="19" fill="#10D070" rx="9.5"/>
      <g transform="translate(4.25 3.55)">
        <mask id="j" fill="#fff">
          <use xlink:href="#i"/>
        </mask>
        <use xlink:href="#i" fill="#000"/>
        <g fill="#FFF" mask="url(#j)">
          <rect width="13.6" height="13.6" transform="translate(-.85 -.85)"/>
        </g>
      </g>
      <text fill="#FFF" font-family="IBMPlexSans-Bold, IBM Plex Sans" font-size="11.05" font-weight="bold">
                    <tspan x="21.25" y="13.6862745">1</tspan>
                </text>
    </g>
  </g>
</svg>
