<svg xmlns="http://www.w3.org/2000/svg" width="370" height="294" fill="none"><path fill="#161616" d="m1 10.24 1.072-.094q.076.645.352 1.061.28.41.867.668.585.252 1.318.252a3.2 3.2 0 0 0 1.149-.193q.498-.194.738-.528a1.23 1.23 0 0 0 .246-.738q0-.405-.234-.703-.234-.305-.774-.51-.345-.134-1.529-.416-1.184-.287-1.658-.539-.615-.322-.92-.797a2 2 0 0 1-.299-1.072q0-.65.37-1.213.368-.569 1.077-.861a4.1 4.1 0 0 1 1.577-.293q.955 0 1.681.31.732.304 1.125.903A2.6 2.6 0 0 1 7.58 6.83l-1.09.082q-.088-.814-.597-1.23-.504-.416-1.495-.416-1.03 0-1.505.38-.47.375-.47.909 0 .462.335.761.329.3 1.71.616 1.39.31 1.905.545.75.345 1.107.878.358.527.358 1.22 0 .684-.393 1.294-.392.603-1.13.944-.734.333-1.653.333-1.166 0-1.957-.34a2.76 2.76 0 0 1-1.236-1.019A2.93 2.93 0 0 1 1 10.24m10.559 1.817.152.931q-.394.088-.797.094-.575 0-.89-.182a1.02 1.02 0 0 1-.446-.474q-.129-.3-.129-1.248v-3.58h-.773v-.82h.773V5.235l1.049-.632v2.173h1.06v.82h-1.06v3.64q0 .45.053.58.059.128.181.204a.7.7 0 0 0 .364.077 4 4 0 0 0 .463-.041zm5.097.175q-.585.499-1.13.704-.54.204-1.16.205-1.026 0-1.577-.498-.55-.504-.55-1.284 0-.457.204-.832.212-.381.545-.609.34-.229.762-.346a8 8 0 0 1 .938-.158q1.277-.152 1.88-.363l.006-.276q0-.645-.299-.908-.405-.357-1.2-.357-.745 0-1.102.263-.352.258-.522.92l-1.031-.14q.14-.663.463-1.067.322-.41.932-.627.608-.222 1.412-.222.796 0 1.294.187t.733.475q.234.281.328.715.053.27.053.972v1.407q0 1.47.064 1.863.07.387.27.744h-1.102a2.2 2.2 0 0 1-.211-.768m-.088-2.355q-.575.234-1.722.398-.65.094-.92.211a.91.91 0 0 0-.563.844q0 .422.317.703.322.282.937.282.61 0 1.084-.264.475-.27.697-.733.17-.357.17-1.054zM19.264 13V6.777h.949v.944q.363-.663.668-.873a1.2 1.2 0 0 1 .68-.211q.532 0 1.084.34l-.364.978a1.5 1.5 0 0 0-.773-.228q-.346 0-.621.21c-.19.145-.327.346-.393.575-.12.399-.18.813-.176 1.23V13zm6.31-.943.153.931q-.394.088-.797.094-.575 0-.89-.182a1.02 1.02 0 0 1-.446-.474q-.13-.3-.13-1.248v-3.58h-.773v-.82h.774V5.235l1.049-.632v2.173h1.06v.82h-1.06v3.64q0 .45.052.58.06.128.182.204a.7.7 0 0 0 .363.077q.176 0 .463-.041zm8.637-1.06 1.09.134q-.258.955-.955 1.482-.698.528-1.781.528-1.365 0-2.168-.838-.797-.844-.797-2.362 0-1.57.808-2.437.809-.867 2.098-.867 1.248 0 2.039.85.79.85.79 2.39 0 .093-.005.281h-4.64q.058 1.026.58 1.57.52.546 1.3.545.58 0 .99-.304.41-.305.65-.973zM30.748 9.29h3.475q-.07-.785-.399-1.178a1.62 1.62 0 0 0-1.306-.61q-.727 0-1.225.487-.492.486-.545 1.301M38.359 13l-2.367-6.223h1.114l1.335 3.727q.218.603.399 1.254.14-.492.392-1.184l1.383-3.797H41.7L39.344 13zm8.532-2.004 1.09.135q-.257.955-.956 1.482-.697.528-1.78.528-1.367 0-2.169-.838-.797-.844-.797-2.362 0-1.57.809-2.437t2.097-.867q1.249 0 2.04.85t.79 2.39q0 .093-.005.281h-4.64q.057 1.026.58 1.57.52.546 1.3.545.58 0 .99-.304.411-.305.651-.973m-3.463-1.705h3.474q-.07-.785-.398-1.178a1.62 1.62 0 0 0-1.307-.61q-.726 0-1.224.487-.492.486-.545 1.301M49.31 13V6.777h.949v.885q.685-1.025 1.98-1.025.562 0 1.032.205.474.199.709.527.234.329.328.78.058.293.058 1.025V13h-1.054V9.215q0-.645-.123-.961a1 1 0 0 0-.44-.51c-.22-.132-.475-.2-.732-.193q-.675 0-1.166.428-.487.428-.487 1.623V13zm8.982-.943.152.931q-.394.088-.797.094-.574 0-.89-.182a1.02 1.02 0 0 1-.446-.474q-.128-.3-.128-1.248v-3.58h-.774v-.82h.774V5.235l1.048-.632v2.173h1.061v.82h-1.06v3.64q0 .45.052.58.06.128.182.204a.7.7 0 0 0 .363.077q.176 0 .463-.041zM316.408 13V4.41h6.211v1.014h-5.074v2.63h4.752v1.008h-4.752v2.924h5.273V13zm7.846 0V6.777h.949v.885q.685-1.025 1.981-1.025.562 0 1.031.205.474.199.709.527.234.329.328.78.059.293.059 1.025V13h-1.055V9.215q0-.645-.123-.961a1 1 0 0 0-.44-.51 1.36 1.36 0 0 0-.732-.193 1.72 1.72 0 0 0-1.166.428q-.486.428-.486 1.623V13zm10.717 0v-.785q-.592.926-1.741.926-.744 0-1.371-.41a2.73 2.73 0 0 1-.966-1.143q-.34-.739-.34-1.693 0-.932.31-1.688.31-.761.932-1.166.621-.405 1.389-.404.563 0 1.002.24.44.234.714.615V4.41h1.049V13zm-3.334-3.105q0 1.194.504 1.787.504.591 1.189.591.692 0 1.172-.562.486-.568.486-1.729 0-1.276-.492-1.875-.492-.597-1.213-.597-.703 0-1.178.574-.468.574-.468 1.81zm13.576 1.101 1.09.135q-.258.955-.955 1.482-.697.528-1.782.528-1.365 0-2.168-.838-.796-.844-.796-2.362 0-1.57.808-2.437t2.098-.867q1.248 0 2.039.85.79.85.791 2.39 0 .093-.006.281h-4.641q.059 1.026.58 1.57.522.546 1.301.545.58 0 .99-.304.411-.305.651-.973m-3.463-1.705h3.475q-.07-.785-.399-1.178a1.62 1.62 0 0 0-1.306-.61q-.727 0-1.225.487-.492.486-.545 1.301M349.361 13l-2.367-6.223h1.113l1.336 3.727q.217.603.399 1.254.14-.492.392-1.184l1.383-3.797h1.084L350.346 13zm8.532-2.004 1.089.135q-.257.955-.955 1.482-.697.528-1.781.528-1.365 0-2.168-.838-.797-.844-.797-2.362 0-1.57.809-2.437.808-.867 2.098-.867 1.248 0 2.039.85.79.85.791 2.39 0 .093-.006.281h-4.641q.059 1.026.58 1.57.522.546 1.301.545.58 0 .99-.304.41-.305.651-.973m-3.463-1.705h3.474q-.07-.785-.398-1.178a1.62 1.62 0 0 0-1.307-.61q-.726 0-1.224.487-.493.486-.545 1.301M360.312 13V6.777h.95v.885q.686-1.025 1.98-1.025.563 0 1.031.205.475.199.709.527.235.329.329.78.058.293.058 1.025V13h-1.055V9.215q0-.645-.123-.961a1 1 0 0 0-.439-.51 1.36 1.36 0 0 0-.732-.193q-.675 0-1.166.428-.487.428-.487 1.623V13zm8.983-.943.152.931q-.394.088-.797.094-.573 0-.89-.182a1.02 1.02 0 0 1-.446-.474q-.128-.3-.128-1.248v-3.58h-.774v-.82h.774V5.235l1.048-.632v2.173h1.061v.82h-1.061v3.64q0 .45.053.58a.46.46 0 0 0 .182.204.7.7 0 0 0 .363.077q.176 0 .463-.041z"/><g fill="#fff" filter="url(#a)"><path d="m180.5 96 6-6 6 6zM285 96H88a2 2 0 0 0-2 2v186a2 2 0 0 0 2 2h197a2 2 0 0 0 2-2V98a2 2 0 0 0-2-2"/><path d="M86 96h201v190H86z"/></g><path fill="#fff" d="M102 166h169v32H102z"/><path fill="#0F62FE" d="m125.42 187-.98-2.884h-3.948l-.98 2.884h-1.19l3.416-9.772h1.498l3.416 9.772zm-2.926-8.68h-.07l-1.652 4.76h3.374zm10.445 7.504h-.056q-.659 1.344-2.114 1.344-.672 0-1.218-.266a2.7 2.7 0 0 1-.938-.756 3.6 3.6 0 0 1-.588-1.19 5.8 5.8 0 0 1-.196-1.568 5.8 5.8 0 0 1 .196-1.568c.121-.429.321-.833.588-1.19.252-.319.572-.578.938-.756q.546-.266 1.218-.266.756 0 1.288.336.546.322.826 1.008h.056v-4.312h1.12V187h-1.12zm-1.862.336q.378 0 .714-.098.326-.087.602-.28.251-.197.392-.462.154-.28.154-.63v-2.688q0-.294-.154-.546a1.3 1.3 0 0 0-.392-.448 1.9 1.9 0 0 0-.602-.28 2.2 2.2 0 0 0-.714-.112q-.952 0-1.498.602-.546.588-.546 1.554v1.232q0 .966.546 1.568.546.588 1.498.588m10.143-.336h-.056q-.658 1.344-2.114 1.344-.672 0-1.218-.266a2.7 2.7 0 0 1-.938-.756 3.6 3.6 0 0 1-.588-1.19 5.8 5.8 0 0 1-.196-1.568 5.8 5.8 0 0 1 .196-1.568c.121-.429.321-.833.588-1.19.252-.319.572-.578.938-.756q.546-.266 1.218-.266.756 0 1.288.336.546.322.826 1.008h.056v-4.312h1.12V187h-1.12zm-1.862.336q.378 0 .714-.098.326-.087.602-.28.252-.197.392-.462.154-.28.154-.63v-2.688q0-.294-.154-.546a1.3 1.3 0 0 0-.392-.448 1.9 1.9 0 0 0-.602-.28 2.2 2.2 0 0 0-.714-.112q-.952 0-1.498.602-.546.588-.546 1.554v1.232q0 .966.546 1.568.546.588 1.498.588"/><path fill="#fff" d="M239 174h16v16h-16z"/><path fill="#0F62FE" d="M247.5 181.5V178h-1v3.5H243v1h3.5v3.5h1v-3.5h3.5v-1z"/><path fill="#fff" d="M102 202h169v32H102z"/><path fill="#0F62FE" d="M122.746 223.168q-1.861 0-2.898-1.26-1.036-1.273-1.036-3.738t1.036-3.78q1.037-1.33 2.898-1.33 1.231 0 2.058.56.84.56 1.302 1.582l-.952.574a2.66 2.66 0 0 0-.896-1.204q-.601-.462-1.512-.462-.63 0-1.134.238a2.4 2.4 0 0 0-.84.686 3.1 3.1 0 0 0-.518 1.05 4.7 4.7 0 0 0-.182 1.358v1.456q0 1.512.7 2.366t1.974.854q.938 0 1.568-.476.63-.49.924-1.288l.938.588q-.462 1.036-1.33 1.638-.868.588-2.1.588m10.549-.168q-.63 0-.91-.336a1.7 1.7 0 0 1-.336-.84h-.07q-.237.672-.784 1.008-.546.336-1.302.336-1.147 0-1.792-.588-.63-.588-.63-1.596 0-1.022.742-1.568.756-.546 2.338-.546h1.428v-.714q0-.77-.42-1.176t-1.288-.406q-.657 0-1.106.294a2.46 2.46 0 0 0-.728.784l-.672-.63q.294-.588.938-.994.645-.42 1.624-.42 1.317 0 2.044.644t.728 1.792v3.976h.826v.98zm-3.22-.784q.42 0 .77-.098c.216-.057.42-.152.602-.28q.252-.181.392-.42a1 1 0 0 0 .14-.518v-1.19h-1.484q-.966 0-1.414.28a.91.91 0 0 0-.434.812v.294q0 .532.378.826.393.294 1.05.294m5.609.784v-7.224h1.12v1.176h.056q.265-.616.742-.98.489-.364 1.302-.364 1.119 0 1.764.728.657.714.658 2.03V223h-1.12v-4.438q0-1.946-1.638-1.946-.336 0-.658.084-.309.084-.56.252c-.167.111-.306.26-.406.434q-.14.252-.14.602V223zm10.805.168a3.3 3.3 0 0 1-1.358-.266 2.8 2.8 0 0 1-1.022-.756 3.5 3.5 0 0 1-.63-1.19 5.4 5.4 0 0 1-.21-1.568q0-.868.21-1.568.224-.7.63-1.19.42-.49 1.022-.756a3.3 3.3 0 0 1 1.358-.266q1.078 0 1.722.476.658.462.98 1.218l-.938.476a1.7 1.7 0 0 0-.644-.868q-.448-.308-1.12-.308-.504 0-.882.168c-.243.096-.459.25-.63.448a1.8 1.8 0 0 0-.378.686 2.8 2.8 0 0 0-.126.868v1.232q0 .952.504 1.568.517.602 1.512.602 1.358 0 1.96-1.26l.812.546a2.84 2.84 0 0 1-1.05 1.246q-.685.462-1.722.462m7.147 0q-.743 0-1.344-.266a3 3 0 0 1-1.022-.756 3.8 3.8 0 0 1-.658-1.19 5.1 5.1 0 0 1-.224-1.568q0-.853.224-1.554.238-.7.658-1.19.434-.504 1.022-.77a3.3 3.3 0 0 1 1.344-.266q.728 0 1.302.266t.98.742q.406.462.616 1.106.224.644.224 1.414v.532h-5.194v.336q0 .462.14.868.154.392.42.686.28.294.672.462.406.168.91.168.686 0 1.19-.322.518-.323.798-.924l.798.574c-.238.5-.617.919-1.092 1.204q-.742.448-1.764.448m0-6.622q-.462 0-.84.168a1.9 1.9 0 0 0-.658.448 2.35 2.35 0 0 0-.574 1.568v.098h3.99v-.154q0-.966-.532-1.54-.517-.588-1.386-.588m6.317 6.454q-.588 0-.896-.322-.294-.336-.294-.84v-9.198h1.12v9.38h1.064v.98zm11.503 0q-.63 0-.91-.336a1.7 1.7 0 0 1-.336-.84h-.07q-.237.672-.784 1.008-.546.336-1.302.336-1.147 0-1.792-.588-.63-.588-.63-1.596 0-1.022.742-1.568.756-.546 2.338-.546h1.428v-.714q0-.77-.42-1.176t-1.288-.406q-.657 0-1.106.294a2.46 2.46 0 0 0-.728.784l-.672-.63q.294-.588.938-.994.645-.42 1.624-.42 1.317 0 2.044.644t.728 1.792v3.976h.826v.98zm-3.22-.784q.42 0 .77-.098c.216-.057.42-.152.602-.28q.252-.181.392-.42a1 1 0 0 0 .14-.518v-1.19h-1.484q-.966 0-1.414.28a.91.91 0 0 0-.434.812v.294q0 .532.378.826.393.294 1.05.294m6.799.784q-.588 0-.896-.322-.294-.336-.294-.84v-9.198h1.12v9.38h1.064v.98zm3.906 0q-.588 0-.896-.322-.294-.336-.294-.84v-9.198h1.12v9.38h1.064v.98z"/><path fill="#fff" d="M239 210h16v16h-16z"/><path fill="#0F62FE" d="M240 218a6.997 6.997 0 0 0 8.366 6.865 7 7 0 0 0 4.807-3.566A7 7 0 1 0 240 218m11.575 3.875-8.45-8.45a6 6 0 0 1 8.081.369 6 6 0 0 1 .369 8.081m-8.455.705a6.003 6.003 0 0 1-.7-8.445l8.445 8.445a6 6 0 0 1-7.745 0"/><path fill="#fff" d="M102 238h169v32H102z"/><path fill="#0F62FE" d="M126.918 250.768h-.07l-.826 1.638-2.338 4.256-2.338-4.256-.826-1.638h-.07V259h-1.148v-9.772h1.568l2.8 5.264h.07l2.814-5.264h1.512V259h-1.148zm6.523 8.4q-.727 0-1.33-.266a3 3 0 0 1-1.036-.756 3.8 3.8 0 0 1-.658-1.19 4.9 4.9 0 0 1-.238-1.568q0-.853.238-1.554.238-.7.658-1.19.435-.504 1.036-.77a3.3 3.3 0 0 1 1.33-.266q.728 0 1.316.266.603.266 1.036.77.435.49.672 1.19t.238 1.554q0 .868-.238 1.568c-.146.436-.374.84-.672 1.19a2.95 2.95 0 0 1-1.036.756 3.15 3.15 0 0 1-1.316.266m0-.994q.91 0 1.484-.56t.574-1.708v-1.036q0-1.148-.574-1.708-.573-.56-1.484-.56-.91 0-1.484.56t-.574 1.708v1.036q0 1.148.574 1.708.575.56 1.484.56m6.751.826-2.534-7.224h1.12l1.26 3.584.784 2.464h.07l.784-2.464 1.288-3.584h1.078L141.494 259zm8.061.168a3.3 3.3 0 0 1-1.344-.266 3 3 0 0 1-1.022-.756 3.8 3.8 0 0 1-.658-1.19 5.1 5.1 0 0 1-.224-1.568q0-.853.224-1.554.238-.7.658-1.19.434-.504 1.022-.77a3.3 3.3 0 0 1 1.344-.266q.729 0 1.302.266.575.266.98.742.406.462.616 1.106.224.644.224 1.414v.532h-5.194v.336q0 .462.14.868.155.392.42.686.28.294.672.462.406.168.91.168.686 0 1.19-.322.519-.322.798-.924l.798.574c-.238.5-.617.919-1.092 1.204q-.741.448-1.764.448m0-6.622q-.462 0-.84.168a1.9 1.9 0 0 0-.658.448 2.2 2.2 0 0 0-.42.7 2.4 2.4 0 0 0-.154.868v.098h3.99v-.154q0-.966-.532-1.54-.517-.588-1.386-.588M162.099 259q-.63 0-.91-.336a1.7 1.7 0 0 1-.336-.84h-.07q-.237.672-.784 1.008-.546.336-1.302.336-1.147 0-1.792-.588-.63-.588-.63-1.596 0-1.022.742-1.568.757-.546 2.338-.546h1.428v-.714q0-.77-.42-1.176t-1.288-.406q-.657 0-1.106.294a2.46 2.46 0 0 0-.728.784l-.672-.63q.294-.588.938-.994.645-.42 1.624-.42 1.317 0 2.044.644t.728 1.792v3.976h.826v.98zm-3.22-.784q.42 0 .77-.098c.216-.057.42-.152.602-.28q.252-.181.392-.42a1 1 0 0 0 .14-.518v-1.19h-1.484q-.966 0-1.414.28a.91.91 0 0 0-.434.812v.294q0 .532.378.826.393.294 1.05.294m6.799.784q-.588 0-.896-.322-.294-.336-.294-.84v-9.198h1.12v9.38h1.064v.98zm3.906 0q-.588 0-.896-.322-.294-.336-.294-.84v-9.198h1.12v9.38h1.064v.98z"/><path fill="#fff" d="M239 246h16v16h-16z"/><path fill="#0F62FE" d="m248 249-.715.697 3.79 3.803H241v1h10.075l-3.79 3.786.715.714 5-5z"/><path fill="#525252" d="M105.468 147.144q-1.02 0-1.74-.384a3.8 3.8 0 0 1-1.224-1.08l.744-.624q.444.588.984.9.54.3 1.272.3.9 0 1.368-.432.48-.432.48-1.152 0-.6-.36-.924t-1.188-.516l-.684-.156q-1.152-.264-1.764-.792-.6-.54-.6-1.512 0-.552.204-.984t.564-.72q.372-.288.876-.432.516-.156 1.128-.156.948 0 1.62.348.684.348 1.152 1.02l-.756.552a2.6 2.6 0 0 0-.84-.756q-.492-.276-1.224-.276-.804 0-1.272.348-.456.336-.456 1.02 0 .6.384.912.396.3 1.188.48l.684.156q1.236.276 1.788.84t.552 1.5q0 .576-.204 1.044a2.1 2.1 0 0 1-.564.792 2.7 2.7 0 0 1-.912.504 3.7 3.7 0 0 1-1.2.18m7.173 0a2.8 2.8 0 0 1-1.152-.228 2.6 2.6 0 0 1-.876-.648 3.3 3.3 0 0 1-.564-1.02 4.4 4.4 0 0 1-.192-1.344q0-.732.192-1.332.204-.6.564-1.02.372-.432.876-.66a2.8 2.8 0 0 1 1.152-.228q.624 0 1.116.228t.84.636q.348.396.528.948.192.552.192 1.212v.456h-4.452v.288q0 .396.12.744.132.336.36.588.24.252.576.396.348.144.78.144.588 0 1.02-.276.444-.276.684-.792l.684.492q-.3.636-.936 1.032-.636.384-1.512.384m0-5.676q-.396 0-.72.144a1.6 1.6 0 0 0-.564.384 2.02 2.02 0 0 0-.492 1.344v.084h3.42v-.132q0-.828-.456-1.32-.444-.504-1.188-.504m5.598 5.532q-.504 0-.768-.276a1.05 1.05 0 0 1-.252-.72v-7.884h.96v8.04h.912v.84zm4.897.144a2.8 2.8 0 0 1-1.152-.228 2.6 2.6 0 0 1-.876-.648 3.3 3.3 0 0 1-.564-1.02 4.4 4.4 0 0 1-.192-1.344q0-.732.192-1.332.204-.6.564-1.02.372-.432.876-.66a2.8 2.8 0 0 1 1.152-.228q.624 0 1.116.228t.84.636q.348.396.528.948.192.552.192 1.212v.456h-4.452v.288q0 .396.12.744.132.336.36.588.24.252.576.396.348.144.78.144.588 0 1.02-.276.444-.276.684-.792l.684.492q-.3.636-.936 1.032-.636.384-1.512.384m0-5.676q-.396 0-.72.144a1.6 1.6 0 0 0-.564.384 2.02 2.02 0 0 0-.492 1.344v.084h3.42v-.132q0-.828-.456-1.32-.444-.504-1.188-.504m6.882 5.676q-.648 0-1.164-.228a2.44 2.44 0 0 1-.876-.648 3 3 0 0 1-.54-1.02 4.7 4.7 0 0 1-.18-1.344q0-.744.18-1.344.192-.6.54-1.02.36-.42.876-.648a2.85 2.85 0 0 1 1.164-.228q.924 0 1.476.408.564.396.84 1.044l-.804.408a1.46 1.46 0 0 0-.552-.744q-.384-.264-.96-.264-.432 0-.756.144a1.4 1.4 0 0 0-.54.384q-.216.24-.324.588a2.4 2.4 0 0 0-.108.744v1.056q0 .816.432 1.344.444.516 1.296.516 1.164 0 1.68-1.08l.696.468q-.3.672-.9 1.068-.588.396-1.476.396m5.419-.144q-.504 0-.768-.276-.252-.288-.252-.744v-4.332h-1.02v-.84h.576q.312 0 .42-.12.12-.132.12-.444v-1.152h.864v1.716h1.356v.84h-1.356v4.512h1.26v.84zm5.44.144a2.8 2.8 0 0 1-1.152-.228 2.6 2.6 0 0 1-.876-.648 3.3 3.3 0 0 1-.564-1.02 4.4 4.4 0 0 1-.192-1.344q0-.732.192-1.332.204-.6.564-1.02.372-.432.876-.66a2.8 2.8 0 0 1 1.152-.228q.624 0 1.116.228t.84.636q.348.396.528.948.192.552.192 1.212v.456h-4.452v.288q0 .396.12.744.132.336.36.588.24.252.576.396.348.144.78.144.588 0 1.02-.276.444-.276.684-.792l.684.492q-.3.636-.936 1.032-.636.384-1.512.384m0-5.676q-.396 0-.72.144a1.6 1.6 0 0 0-.564.384 2.02 2.02 0 0 0-.492 1.344v.084h3.42v-.132q0-.828-.456-1.32-.444-.504-1.188-.504m8.538 4.524h-.048q-.564 1.152-1.812 1.152-.576 0-1.044-.228a2.3 2.3 0 0 1-.804-.648 3.1 3.1 0 0 1-.504-1.02 5 5 0 0 1-.168-1.344q0-.744.168-1.344.18-.6.504-1.02.336-.42.804-.648t1.044-.228q.648 0 1.104.288.468.276.708.864h.048v-3.696h.96V147h-.96zm-1.596.288q.324 0 .612-.084.3-.084.516-.24.216-.168.336-.396.132-.24.132-.54v-2.304a.9.9 0 0 0-.132-.468 1.1 1.1 0 0 0-.336-.384 1.6 1.6 0 0 0-.516-.24 2 2 0 0 0-.612-.096q-.816 0-1.284.516-.468.504-.468 1.332v1.056q0 .828.468 1.344.468.504 1.284.504m8.073.72v-6.192h.96v1.14h.06a1.87 1.87 0 0 1 .6-.792q.432-.348 1.188-.348h.372v.96h-.564q-.78 0-1.224.3-.432.288-.432.732v4.2zm8.542-1.008h-.048a3 3 0 0 1-.24.432q-.132.204-.336.372-.204.156-.492.252c-.217.068-.444.1-.672.096q-.96 0-1.524-.612-.564-.624-.564-1.752v-3.972h.96v3.804q0 1.668 1.416 1.668.288 0 .552-.072.276-.072.48-.216a1.03 1.03 0 0 0 .468-.9v-4.284h.96V147h-.96zm3.325 1.008v-6.192h.96v1.008h.048q.228-.528.636-.84.42-.312 1.116-.312.96 0 1.512.624.564.612.564 1.74V147h-.96v-3.804q0-1.668-1.404-1.668-.288 0-.564.072-.264.072-.48.216t-.348.372q-.12.216-.12.516V147zm7.14 0v-6.192h.96v1.008h.048q.228-.528.636-.84.42-.312 1.116-.312.96 0 1.512.624.564.612.564 1.74V147h-.96v-3.804q0-1.668-1.404-1.668-.288 0-.564.072-.264.072-.48.216t-.348.372q-.12.216-.12.516V147zm7.62-7.644q-.312 0-.456-.144a.6.6 0 0 1-.132-.396v-.156q0-.24.132-.384.144-.156.456-.156t.444.156a.52.52 0 0 1 .144.384v.156q0 .24-.144.396-.132.144-.444.144m-.48 1.452h.96V147h-.96zm3.32 6.192v-6.192h.96v1.008h.048q.228-.528.636-.84.42-.312 1.116-.312.96 0 1.512.624.564.612.564 1.74V147h-.96v-3.804q0-1.668-1.404-1.668-.288 0-.564.072-.264.072-.48.216t-.348.372q-.12.216-.12.516V147zm12.361.684q0 .96-.756 1.404-.744.456-2.244.456-1.452 0-2.088-.396t-.636-1.128q0-.504.264-.792.264-.276.72-.408v-.132q-.552-.264-.552-.864 0-.468.3-.708.3-.252.768-.372v-.048a2.04 2.04 0 0 1-.864-.756q-.3-.492-.3-1.14 0-.468.168-.864t.468-.672c.212-.195.461-.346.732-.444.308-.107.633-.16.96-.156q.66 0 1.176.24v-.108q0-.36.168-.588.168-.24.552-.24h.924v.84h-1.176v.396q.336.288.516.696.192.396.192.9 0 .468-.168.864c-.109.26-.273.493-.48.684q-.3.276-.732.432a3.05 3.05 0 0 1-1.56.096q-.312.084-.564.252a.5.5 0 0 0-.252.444q0 .276.264.372t.684.096h1.32q1.152 0 1.668.444.528.432.528 1.2m-.9.072a.73.73 0 0 0-.288-.6q-.276-.216-.996-.216h-2.064q-.576.264-.576.84 0 .408.3.696.312.288 1.044.288h.888q.804 0 1.248-.252a.82.82 0 0 0 .444-.756m-2.148-3.588q.612 0 .972-.288.36-.3.36-.912v-.336q0-.612-.36-.9-.36-.3-.972-.3t-.972.3q-.36.288-.36.9v.336q0 .612.36.912.36.288.972.288m8.123-4.812q-.312 0-.456-.144a.6.6 0 0 1-.132-.396v-.156q0-.24.132-.384.144-.156.456-.156t.444.156a.52.52 0 0 1 .144.384v.156q0 .24-.144.396-.132.144-.444.144m-.48 1.452h.96V147h-.96zm3.32 6.192v-6.192h.96v1.008h.048q.228-.528.636-.84.42-.312 1.116-.312.96 0 1.512.624.564.612.564 1.74V147h-.96v-3.804q0-1.668-1.404-1.668-.288 0-.564.072-.264.072-.48.216t-.348.372q-.12.216-.12.516V147zm9.001.144q-.864 0-1.452-.324a3.4 3.4 0 0 1-.996-.888l.684-.552q.36.456.804.708.444.24 1.032.24.612 0 .948-.264.348-.264.348-.744 0-.36-.24-.612-.228-.264-.84-.36l-.492-.072q-.432-.06-.792-.18-.36-.132-.636-.336a1.6 1.6 0 0 1-.42-.528 1.8 1.8 0 0 1-.144-.744q0-.456.168-.792.168-.348.456-.576.3-.228.708-.336.408-.12.876-.12.756 0 1.26.264.516.264.9.732l-.636.576a1.85 1.85 0 0 0-.6-.516q-.396-.24-.996-.24t-.912.264q-.3.252-.3.696 0 .456.3.66.312.204.888.3l.48.072q1.032.156 1.464.6.432.432.432 1.14 0 .9-.612 1.416t-1.68.516m5.593-.144q-.504 0-.768-.276-.252-.288-.252-.744v-4.332h-1.02v-.84h.576q.312 0 .42-.12.12-.132.12-.444v-1.152h.864v1.716h1.356v.84h-1.356v4.512h1.26v.84zm7.659 0q-.54 0-.78-.288a1.46 1.46 0 0 1-.288-.72h-.06q-.204.576-.672.864t-1.116.288q-.984 0-1.536-.504-.54-.504-.54-1.368 0-.876.636-1.344.648-.468 2.004-.468h1.224v-.612q0-.66-.36-1.008t-1.104-.348q-.564 0-.948.252a2.1 2.1 0 0 0-.624.672l-.576-.54q.252-.504.804-.852.552-.36 1.392-.36 1.128 0 1.752.552t.624 1.536v3.408h.708v.84zm-2.76-.672q.36 0 .66-.084t.516-.24a1.2 1.2 0 0 0 .336-.36.86.86 0 0 0 .12-.444v-1.02h-1.272q-.828 0-1.212.24a.78.78 0 0 0-.372.696v.252q0 .456.324.708.336.252.9.252m4.991.672v-6.192h.96v1.008h.048q.228-.528.636-.84.42-.312 1.116-.312.96 0 1.512.624.564.612.564 1.74V147h-.96v-3.804q0-1.668-1.404-1.668-.288 0-.564.072-.264.072-.48.216t-.348.372q-.12.216-.12.516V147zm9.444.144q-.648 0-1.164-.228a2.44 2.44 0 0 1-.876-.648 3 3 0 0 1-.54-1.02 4.7 4.7 0 0 1-.18-1.344q0-.744.18-1.344.192-.6.54-1.02.36-.42.876-.648a2.85 2.85 0 0 1 1.164-.228q.924 0 1.476.408.564.396.84 1.044l-.804.408a1.46 1.46 0 0 0-.552-.744q-.384-.264-.96-.264-.432 0-.756.144a1.4 1.4 0 0 0-.54.384q-.216.24-.324.588a2.4 2.4 0 0 0-.108.744v1.056q0 .816.432 1.344.444.516 1.296.516 1.164 0 1.68-1.08l.696.468q-.3.672-.9 1.068-.588.396-1.476.396m6.309 0a2.8 2.8 0 0 1-1.152-.228 2.6 2.6 0 0 1-.876-.648 3.3 3.3 0 0 1-.564-1.02 4.4 4.4 0 0 1-.192-1.344q0-.732.192-1.332.204-.6.564-1.02.372-.432.876-.66a2.8 2.8 0 0 1 1.152-.228q.624 0 1.116.228t.84.636q.348.396.528.948.192.552.192 1.212v.456h-4.452v.288q0 .396.12.744.132.336.36.588.24.252.576.396.348.144.78.144.588 0 1.02-.276.444-.276.684-.792l.684.492q-.3.636-.936 1.032-.636.384-1.512.384m0-5.676q-.396 0-.72.144a1.6 1.6 0 0 0-.564.384 2.02 2.02 0 0 0-.492 1.344v.084h3.42v-.132q0-.828-.456-1.32-.444-.504-1.188-.504m6.438 5.676q-.864 0-1.452-.324a3.4 3.4 0 0 1-.996-.888l.684-.552q.36.456.804.708.444.24 1.032.24.612 0 .948-.264.348-.264.348-.744 0-.36-.24-.612-.228-.264-.84-.36l-.492-.072q-.432-.06-.792-.18-.36-.132-.636-.336a1.6 1.6 0 0 1-.42-.528 1.8 1.8 0 0 1-.144-.744q0-.456.168-.792.168-.348.456-.576.3-.228.708-.336.408-.12.876-.12.756 0 1.26.264.516.264.9.732l-.636.576a1.85 1.85 0 0 0-.6-.516q-.396-.24-.996-.24t-.912.264q-.3.252-.3.696 0 .456.3.66.312.204.888.3l.48.072q1.032.156 1.464.6.432.432.432 1.14 0 .9-.612 1.416t-1.68.516m5.039 0q-.384 0-.564-.192a.73.73 0 0 1-.168-.504v-.156q0-.312.168-.504.18-.192.564-.192t.552.192q.18.192.18.504v.156q0 .312-.18.504-.168.192-.552.192m0-4.932q-.384 0-.564-.192a.73.73 0 0 1-.168-.504v-.156q0-.312.168-.504.18-.192.564-.192t.552.192q.18.192.18.504v.156q0 .312-.18.504-.168.192-.552.192m6.284 4.788v-.888h2.34v-6.744h-.084l-2.112 1.968-.588-.636 2.22-2.076h1.572v7.488h2.16V147z"/><path stroke="#78A9FF" stroke-width="2" d="M229 1h-86c-6.075 0-11 4.925-11 11v66c0 6.075 4.925 11 11 11h86c6.075 0 11-4.925 11-11V12c0-6.075-4.925-11-11-11Z"/><path fill="#0043CE" fill-opacity=".3" stroke="#525252" stroke-width="2" d="M145 5h82a9 9 0 0 1 9 9v62a9 9 0 0 1-9 9h-82a9 9 0 0 1-9-9V14a9 9 0 0 1 9-9Z"/><path fill="#fff" stroke="#525252" stroke-width="6" d="M343 67c-12.15 0-22-9.85-22-22s9.85-22 22-22 22 9.85 22 22-9.85 22-22 22Z"/><path fill="#fff" stroke="#525252" stroke-width="2" d="M29 69C15.745 69 5 58.255 5 45s10.745-24 24-24 24 10.745 24 24-10.745 24-24 24Z"/><path fill="#78A9FF" d="M55 44h-1v2h1zm76 1-10-5.773v11.547zm-76 1h67v-2H55z"/><path fill="#525252" d="M242 44h-1v2h1zm76 1-10-5.773v11.547zm-76 1h67v-2h-67z"/><path fill="#fff" d="M119 76h16v16h-16z"/><path fill="#198038" d="M149 73h-23c-6.075 0-11 4.925-11 11s4.925 11 11 11h23c6.075 0 11-4.925 11-11s-4.925-11-11-11"/><path fill="#fff" d="M127 77a7 7 0 1 0 0 14 7 7 0 0 0 0-14m0 13a5.997 5.997 0 0 1-5.884-7.17 6 6 0 0 1 1.641-3.073 6.001 6.001 0 0 1 10.234 3.949A6 6 0 0 1 127 90"/><path fill="#fff" d="M127 81a3.01 3.01 0 0 0-2.772 1.852A3 3 0 1 0 127 81M143.222 89v-1.573h2.444v-6.084h-.117l-1.846 2.418-1.248-.975 2.171-2.86h2.99v7.501h1.924V89z"/><path fill="#161616" d="M171.434 49v-7.576h-2.83V40.41h6.808v1.014h-2.842V49zm7.74-.768q-.586.5-1.131.703c-.371.14-.764.209-1.16.206q-1.026 0-1.576-.498-.551-.504-.551-1.284 0-.456.205-.832.211-.381.545-.609.339-.229.762-.346.31-.081.937-.158 1.278-.153 1.881-.363l.006-.276q0-.645-.299-.908-.405-.357-1.201-.357-.744 0-1.102.263-.351.258-.521.92l-1.031-.14q.14-.662.462-1.067.323-.41.932-.627.61-.222 1.412-.222.797 0 1.295.187t.732.475q.235.281.329.715.052.27.052.972v1.407q0 1.47.065 1.863.07.387.269.744h-1.101a2.2 2.2 0 0 1-.211-.768m-.088-2.355q-.574.234-1.723.398-.65.094-.92.211a.9.9 0 0 0-.416.346.9.9 0 0 0-.146.498.9.9 0 0 0 .316.703q.323.282.938.282.609 0 1.084-.264.475-.27.697-.733.17-.358.17-1.054zm2.285 1.266 1.043-.165q.089.628.486.962.405.333 1.125.333.727 0 1.079-.293.351-.298.351-.697a.643.643 0 0 0-.31-.562q-.217-.14-1.079-.358-1.16-.293-1.611-.504a1.6 1.6 0 0 1-.68-.591 1.6 1.6 0 0 1-.228-.838q0-.416.187-.768.193-.357.522-.592a2.2 2.2 0 0 1 .668-.304q.428-.13.914-.13.732 0 1.283.212.557.21.82.574.264.358.364.96l-1.032.141q-.07-.48-.41-.75-.334-.27-.949-.27-.726 0-1.037.241-.31.24-.311.563 0 .205.129.369a.93.93 0 0 0 .405.281q.158.06.931.27 1.12.298 1.559.492.445.187.697.55t.252.903q0 .527-.31.996-.306.463-.885.72c-.416.174-.863.26-1.313.253q-1.213 0-1.851-.504-.633-.504-.809-1.494M187.799 49v-8.59h1.055v4.899l2.496-2.532h1.365l-2.379 2.309L192.955 49h-1.301l-2.056-3.182-.744.715V49zm7.857 0 3.299-8.59h1.225l3.515 8.59H202.4l-1.002-2.602h-3.591L196.863 49zm2.479-3.527h2.912l-.897-2.38a24 24 0 0 1-.609-1.78q-.164.825-.463 1.64z"/><path fill="#525252" d="M103.148 120v-9.772h6.44v1.638h-4.592v2.366h4.06v1.638h-4.06v2.492h4.592V120zM113.383 120q-.924 0-1.358-.462t-.434-1.302v-8.596h1.792v8.932h.966V120zM118.82 120.168a3.8 3.8 0 0 1-1.456-.266 3.2 3.2 0 0 1-1.078-.77 3.6 3.6 0 0 1-.672-1.204 5 5 0 0 1-.238-1.596q0-.868.224-1.568.237-.7.672-1.19a2.8 2.8 0 0 1 1.064-.77q.63-.28 1.428-.28.854 0 1.484.294t1.036.798.602 1.176q.21.658.21 1.414v.588h-4.858v.182q0 .798.448 1.288.447.476 1.33.476.672 0 1.092-.28a3.1 3.1 0 0 0 .77-.714l.966 1.078q-.449.63-1.232.994-.77.35-1.792.35m-.028-6.3q-.714 0-1.134.476t-.42 1.232v.112h2.996v-.126q0-.756-.378-1.218-.365-.476-1.064-.476M123.832 120v-7.308h1.792v1.218h.07a2.4 2.4 0 0 1 .672-.98q.463-.406 1.288-.406.756 0 1.302.364t.812 1.106h.028q.197-.616.77-1.036.588-.434 1.47-.434 1.079 0 1.652.742.588.742.588 2.114V120h-1.792v-4.438q0-1.568-1.176-1.568-.266 0-.518.084a1.3 1.3 0 0 0-.434.224 1.04 1.04 0 0 0-.294.364q-.112.21-.112.504V120h-1.792v-4.438q0-1.568-1.176-1.568-.252 0-.504.084a1.3 1.3 0 0 0-.434.224 1.2 1.2 0 0 0-.308.364q-.112.21-.112.504V120zM139.374 120.168a3.8 3.8 0 0 1-1.456-.266 3.2 3.2 0 0 1-1.078-.77 3.6 3.6 0 0 1-.672-1.204 5 5 0 0 1-.238-1.596q0-.868.224-1.568a3.5 3.5 0 0 1 .672-1.19 2.8 2.8 0 0 1 1.064-.77q.63-.28 1.428-.28.854 0 1.484.294t1.036.798.602 1.176q.21.658.21 1.414v.588h-4.858v.182q0 .798.448 1.288.448.476 1.33.476.672 0 1.092-.28a3.1 3.1 0 0 0 .77-.714l.966 1.078q-.448.63-1.232.994-.77.35-1.792.35m-.028-6.3q-.714 0-1.134.476t-.42 1.232v.112h2.996v-.126q0-.756-.378-1.218-.364-.476-1.064-.476M144.387 120v-7.308h1.792v1.218h.07q.223-.588.7-.98.489-.406 1.344-.406 1.134 0 1.736.742t.602 2.114V120h-1.792v-4.438q0-.784-.28-1.176t-.924-.392a1.8 1.8 0 0 0-.546.084 1.4 1.4 0 0 0-.462.224 1.1 1.1 0 0 0-.322.364.96.96 0 0 0-.126.504V120zM155.059 120q-.924 0-1.414-.476-.476-.49-.476-1.386v-4.018h-1.078v-1.428h.56q.406 0 .546-.182.154-.196.154-.574v-1.246h1.61v2.002h1.498v1.428h-1.498v4.452h1.386V120zM169.132 112.986h-.056l-.756 1.554-2.002 3.696-2.002-3.696-.756-1.554h-.056V120h-1.75v-9.772h2.086l2.506 4.774h.056l2.478-4.774h2.002V120h-1.75zM176.13 120.168q-.784 0-1.414-.266a3 3 0 0 1-1.064-.77 3.6 3.6 0 0 1-.672-1.204 5 5 0 0 1-.238-1.596q0-.882.238-1.582a3.5 3.5 0 0 1 .672-1.19 3 3 0 0 1 1.064-.77q.63-.266 1.414-.266t1.414.266 1.064.77q.448.49.686 1.19t.238 1.582-.238 1.596a3.5 3.5 0 0 1-.686 1.204 2.8 2.8 0 0 1-1.064.77q-.63.266-1.414.266m0-1.442q.714 0 1.12-.434t.406-1.274v-1.358q0-.826-.406-1.26t-1.12-.434q-.7 0-1.106.434-.406.433-.406 1.26v1.358q0 .84.406 1.274t1.106.434M185.817 118.782h-.07q-.196.63-.742 1.008a2.2 2.2 0 0 1-1.274.378q-1.387 0-2.128-.994-.728-.994-.728-2.842 0-1.834.728-2.814.742-.994 2.128-.994.728 0 1.274.378.546.364.742.994h.07v-4.256h1.792V120h-1.792zm-1.512-.098q.643 0 1.078-.308.434-.307.434-.882v-2.324q0-.532-.434-.854-.435-.322-1.078-.322-.7 0-1.134.476-.42.462-.42 1.246v1.26q0 .784.42 1.246.433.462 1.134.462M190.731 111.628q-.56 0-.812-.252a.9.9 0 0 1-.238-.644v-.28a.9.9 0 0 1 .238-.644q.252-.252.812-.252.546 0 .798.252a.87.87 0 0 1 .252.644v.28a.87.87 0 0 1-.252.644q-.252.252-.798.252m-.896 1.064h1.792V120h-1.792zM194.228 114.106h-1.078v-1.414h1.078v-1.05q0-.966.504-1.484.519-.518 1.512-.518h1.274v1.428h-1.498v1.624h4.508V120h-1.792v-5.894h-2.716V120h-1.792zm5.404-2.478q-.56 0-.812-.252a.9.9 0 0 1-.238-.644v-.28q0-.392.238-.644.252-.252.812-.252.546 0 .798.252a.87.87 0 0 1 .252.644v.28a.87.87 0 0 1-.252.644q-.252.252-.798.252M205.645 120.168q-.812 0-1.442-.266a2.8 2.8 0 0 1-1.064-.77 3.5 3.5 0 0 1-.644-1.204 5.3 5.3 0 0 1-.224-1.596q0-.882.224-1.582t.644-1.19a2.8 2.8 0 0 1 1.064-.77q.63-.266 1.442-.266 1.106 0 1.82.49a2.74 2.74 0 0 1 1.05 1.358l-1.47.658a1.47 1.47 0 0 0-.476-.756q-.336-.308-.924-.308-.756 0-1.134.476-.364.476-.364 1.246v1.33q0 .77.364 1.246.378.462 1.134.462.643 0 .994-.322.35-.336.546-.826l1.372.658q-.365.966-1.106 1.456-.743.476-1.806.476M215.474 120q-.588 0-.938-.336-.336-.35-.42-.924h-.084q-.181.714-.742 1.078-.56.35-1.386.35-1.119 0-1.722-.588-.602-.588-.602-1.568 0-1.134.812-1.68.813-.56 2.31-.56h1.246v-.532q0-.616-.322-.952t-1.036-.336q-.63 0-1.022.28a2.6 2.6 0 0 0-.644.644l-1.064-.952q.406-.63 1.078-1.008.672-.392 1.778-.392 1.485 0 2.254.672.77.672.77 1.932v3.444h.728V120zm-2.968-1.134q.602 0 1.022-.266t.42-.784v-.966H212.8q-1.4 0-1.4.896v.238q0 .448.28.672.295.21.826.21M220.306 120q-.924 0-1.414-.476-.476-.49-.476-1.386v-4.018h-1.078v-1.428h.56q.406 0 .546-.182.154-.196.154-.574v-1.246h1.61v2.002h1.498v1.428h-1.498v4.452h1.386V120zM224.316 111.628q-.56 0-.812-.252a.9.9 0 0 1-.238-.644v-.28q0-.392.238-.644.252-.252.812-.252.546 0 .798.252a.87.87 0 0 1 .252.644v.28a.87.87 0 0 1-.252.644q-.252.252-.798.252m-.896 1.064h1.792V120h-1.792zM230.347 120.168a3.6 3.6 0 0 1-1.414-.266 3 3 0 0 1-1.064-.77 3.6 3.6 0 0 1-.672-1.204 5 5 0 0 1-.238-1.596q0-.882.238-1.582a3.5 3.5 0 0 1 .672-1.19 3 3 0 0 1 1.064-.77 3.6 3.6 0 0 1 1.414-.266q.784 0 1.414.266t1.064.77q.449.49.686 1.19t.238 1.582q0 .882-.238 1.596a3.45 3.45 0 0 1-.686 1.204 2.8 2.8 0 0 1-1.064.77q-.63.266-1.414.266m0-1.442q.715 0 1.12-.434t.406-1.274v-1.358q0-.826-.406-1.26-.405-.434-1.12-.434-.7 0-1.106.434-.406.433-.406 1.26v1.358q0 .84.406 1.274t1.106.434M235.498 120v-7.308h1.792v1.218h.07q.224-.588.7-.98.49-.406 1.344-.406 1.134 0 1.736.742t.602 2.114V120h-1.792v-4.438q0-.784-.28-1.176t-.924-.392a1.8 1.8 0 0 0-.546.084 1.4 1.4 0 0 0-.462.224 1.1 1.1 0 0 0-.322.364.96.96 0 0 0-.126.504V120zM246.283 120.168q-1.05 0-1.764-.35a4.2 4.2 0 0 1-1.261-.994l1.093-1.064q.405.462.881.728.49.266 1.121.266.643 0 .924-.224a.73.73 0 0 0 .294-.616q0-.323-.21-.504-.197-.196-.687-.266l-.727-.098q-1.19-.154-1.82-.672-.617-.532-.617-1.54 0-.532.196-.952.196-.434.561-.728.363-.308.868-.462a3.7 3.7 0 0 1 1.148-.168q.531 0 .938.084.42.07.756.224.336.14.615.364.28.21.547.476l-1.05 1.05a2.8 2.8 0 0 0-.771-.56 2.16 2.16 0 0 0-.979-.224q-.588 0-.855.21a.68.68 0 0 0-.252.546q0 .364.211.56.223.182.742.266l.741.098q2.367.336 2.367 2.156 0 .532-.225.98-.21.433-.601.756a3.1 3.1 0 0 1-.952.49 4.2 4.2 0 0 1-1.232.168"/><defs><filter id="a" width="213" height="208" x="80" y="86" color-interpolation-filters="sRGB" filterUnits="userSpaceOnUse"><feFlood flood-opacity="0" result="BackgroundImageFix"/><feColorMatrix in="SourceAlpha" result="hardAlpha" values="0 0 0 0 0 0 0 0 0 0 0 0 0 0 0 0 0 0 127 0"/><feOffset dy="2"/><feGaussianBlur stdDeviation="3"/><feComposite in2="hardAlpha" operator="out"/><feColorMatrix values="0 0 0 0 0 0 0 0 0 0 0 0 0 0 0 0 0 0 0.3 0"/><feBlend in2="BackgroundImageFix" result="effect1_dropShadow_94_60"/><feBlend in="SourceGraphic" in2="effect1_dropShadow_94_60" result="shape"/></filter></defs></svg>