<svg xmlns="http://www.w3.org/2000/svg" width="22" height="22" viewBox="0 0 22 22">
  <g fill="none" fill-rule="evenodd">
    <circle cx="11" cy="11" r="11" fill="#FF3D3D"/>
    <path fill="#FFF" d="M5.01894482,11 C5.27425725,7.64377614 8.07838512,5 11.5,5 C15.0898509,5 18,7.91014913 18,11.5 C18,15.0898509 15.0898509,18 11.5,18 C11.331764,18 11.1650208,17.9936085 11,17.9810552 L11,15.9725356 C11.1641669,15.9906833 11.3309955,16 11.5,16 C13.9852814,16 16,13.9852814 16,11.5 C16,9.01471863 13.9852814,7 11.5,7 C9.18372317,7 7.27618653,8.75002477 7.02746439,11 L9,11 L6,14 L3,11 L5.01894482,11 Z"/>
  </g>
</svg>
