<svg width="16px" height="16px" viewBox="0 0 16 16" version="1.1" xmlns="http://www.w3.org/2000/svg" xmlns:xlink="http://www.w3.org/1999/xlink">
        <path fill-rule="evenodd" d="M14.4331509,3.59167234 L12.6676027,5.36293433 L10.946336,5.05010661 L10.6363652,3.32883992 L12.4019134,1.55757793 C12.0048079,1.16047242 11.4391468,0.979060912 11.0206147,1.00191591 C10.5992258,1.02334246 9.69931043,1.26189145 9.00223314,2.00182187 C8.32801083,2.71461197 7.61950604,4.04163002 8.24658992,5.51720553 C8.32229708,5.69576017 8.40657487,5.93002385 8.15659838,6.18000034 C7.90376502,6.42854839 1.43865877,12.5151188 1.43865877,12.5151188 C0.833001443,13.0364984 0.875854555,14.0021218 1.43580189,14.564926 C2.00431985,15.1248734 2.96422957,15.1591559 3.48560911,14.554927 C3.48560911,14.554927 9.52218423,8.12410321 9.81929915,7.83413049 C10.0849884,7.57415494 10.322109,7.66271804 10.482094,7.74413895 C11.5948464,8.31837066 13.1789832,7.81984612 14.0003345,6.99706635 C14.8216858,6.17571503 14.9716717,5.38150401 14.9973836,4.97582788 C15.021667,4.57300862 14.8802517,4.03877315 14.4331509,3.59167234 Z M2.85423992,13.8492791 C2.6571156,14.0435465 2.33857413,14.0435465 2.14430669,13.8492791 C1.95003924,13.6521547 1.95003924,13.3336133 2.14430669,13.1393458 C2.341431,12.9450784 2.65997248,12.9450784 2.85423992,13.1393458 C3.04850736,13.3378986 3.04850736,13.65644 2.85423992,13.8492791 Z"/>
</svg>
