<svg width="49" height="57" viewBox="0 0 49 57" fill="none" xmlns="http://www.w3.org/2000/svg">
<g filter="url(#filter0_d_203_19464)">
<path fill-rule="evenodd" clip-rule="evenodd" d="M39.0588 18.1471V0H9.94122V18.1471H4V49H45V18.1471H39.0588ZM28.5496 29.7029V30.1797L28.4655 30.6846L28.2973 31.1334L28.1292 31.5541L27.877 31.9748L27.5967 32.3394L27.2604 32.676L26.9241 33.0126V38.7625L26.8961 39.0149V39.2673L26.728 39.7161L26.5318 40.1649L26.1955 40.5014L25.8592 40.838L25.4108 41.0343L24.9624 41.2026L24.7102 41.2307H24.2338L23.9815 41.2026L23.5331 41.0343L23.1128 40.838L22.7485 40.5014L22.4682 40.1649L22.216 39.7161L22.1039 39.2673L22.0759 39.0149L22.0478 38.7625V33.0126L21.7115 32.676L21.3753 32.3394L21.095 31.9748L20.8988 31.5541L20.7027 31.1334L20.5906 30.6846L20.5065 30.1797L20.4785 29.7029V29.2822L20.5345 28.8895L20.6186 28.5249L20.7867 28.1603L20.9549 27.7957L21.1511 27.4591L21.4033 27.1225L21.6555 26.842L21.9357 26.5896L22.272 26.3372L22.6083 26.1408L22.9727 25.9725L23.337 25.8603L23.7013 25.7481L24.1217 25.7201L24.542 25.692L24.9624 25.7201L25.3828 25.7481L25.8031 25.8603L26.1675 25.9725L26.5038 26.1408L26.8681 26.3372L27.1483 26.5896L27.4286 26.842L27.7088 27.1225L27.905 27.4591L28.1012 27.7957L28.2973 28.1603L28.4094 28.5249L28.4935 28.8895L28.5776 29.3102L28.5496 29.7029ZM34.1825 8.30223V18.1471H14.8455V4.88037H34.1825V8.30223Z" fill="#FF8200"/>
</g>
<defs>
<filter id="filter0_d_203_19464" x="0" y="0" width="49" height="57" filterUnits="userSpaceOnUse" color-interpolation-filters="sRGB">
<feFlood flood-opacity="0" result="BackgroundImageFix"/>
<feColorMatrix in="SourceAlpha" type="matrix" values="0 0 0 0 0 0 0 0 0 0 0 0 0 0 0 0 0 0 127 0" result="hardAlpha"/>
<feOffset dy="4"/>
<feGaussianBlur stdDeviation="2"/>
<feComposite in2="hardAlpha" operator="out"/>
<feColorMatrix type="matrix" values="0 0 0 0 0 0 0 0 0 0 0 0 0 0 0 0 0 0 0.25 0"/>
<feBlend mode="normal" in2="BackgroundImageFix" result="effect1_dropShadow_203_19464"/>
<feBlend mode="normal" in="SourceGraphic" in2="effect1_dropShadow_203_19464" result="shape"/>
</filter>
</defs>
</svg>
