<svg xmlns="http://www.w3.org/2000/svg" xmlns:xlink="http://www.w3.org/1999/xlink" width="16" height="16" viewBox="0 0 16 16">
    <path fill-rule="evenodd" d="M2.01894482,8 C2.27425725,4.64377614 5.07838512,2 8.5,2 C12.0898509,2 15,4.91014913 15,8.5 C15,12.0898509 12.0898509,15 8.5,15 C8.331764,15 8.16502081,14.9936085 8,14.9810552 L8,12.9725356 C8.16416693,12.9906833 8.33099545,13 8.5,13 C10.9852814,13 13,10.9852814 13,8.5 C13,6.01471863 10.9852814,4 8.5,4 C6.18372317,4 4.27618653,5.75002477 4.02746439,8 L6,8 L3,11 L0,8 L2.01894482,8 Z"/>
</svg>
