<svg xmlns="http://www.w3.org/2000/svg" xmlns:xlink="http://www.w3.org/1999/xlink" width="16" height="16" viewBox="0 0 16 16">
    <path fill-rule="evenodd" d="M11.550958,4.4799574 C10.6449441,3.56603609 9.38857446,3 8,3 C5.23857625,3 3,5.23857625 3,8 C3,10.7614237 5.23857625,13 8,13 C10.7614237,13 13,10.7614237 13,8 L15,8 C15,11.8659932 11.8659932,15 8,15 C4.13400675,15 1,11.8659932 1,8 C1,4.13400675 4.13400675,1 8,1 C10.6624615,1 12.9777487,2.48642982 14.1612704,4.67469835 L14.1457406,4.69033728 L14.1493734,4.69512939 L12.8090196,6.03644366 L12.6607,6.18580466 C12.6606127,6.18558039 12.6605253,6.18535613 12.6604379,6.18513188 L7.53553391,11.3137085 L4,7.77817459 L5.41421356,6.36396103 L7.53553391,8.48528137 L11.550958,4.4799574 Z"/>
</svg>
