<svg xmlns="http://www.w3.org/2000/svg" width="20" height="17" viewBox="0 0 20 17">
  <g fill="none" fill-rule="evenodd">
    <path fill="currentColor" fill-rule="nonzero" d="M10.8682431,1.5194255 L19.1450635,16.0038611 C19.4190734,16.4833785 19.2524767,17.0942332 18.7729593,17.3682431 C18.6218616,17.4545847 18.4508473,17.5 18.2768203,17.5 L1.72317968,17.5 C1.17089493,17.5 0.723179678,17.0522847 0.723179678,16.5 C0.723179678,16.3259731 0.768594996,16.1549588 0.854936536,16.0038611 L9.13175686,1.5194255 C9.40576683,1.03990805 10.0166215,0.873311325 10.4961389,1.14732129 C10.6511702,1.2359106 10.7796538,1.36439422 10.8682431,1.5194255 Z"/>
    <path fill="#FFF" d="M8.75,12.5 L11.25,12.5 L11.25,15 L8.75,15 L8.75,12.5 Z M9.07631812,11.25 L8.125,5 L11.875,5 L10.9437836,11.25 L9.07631812,11.25 Z"/>
  </g>
</svg>
