<svg width="49" height="57" fill="none" xmlns="http://www.w3.org/2000/svg"><g filter="url(#a)"><path fill-rule="evenodd" clip-rule="evenodd" d="M39.0588 18.1471V0H9.94122v18.1471H4V49h41V18.1471h-5.9412ZM28.5496 29.7029v.4768l-.0841.5049-.1682.4488-.1681.4207-.2522.4207-.2803.3646-.3363.3366-.3363.3366v5.7499l-.028.2524v.2524l-.1681.4488-.1962.4488-.3363.3365-.3363.3366-.4484.1963-.4484.1683-.2522.0281h-.4764l-.2523-.0281-.4484-.1683-.4203-.1963-.3643-.3366-.2803-.3365-.2522-.4488-.1121-.4488-.028-.2524-.0281-.2524v-5.7499l-.3363-.3366-.3362-.3366-.2803-.3646-.1962-.4207-.1961-.4207-.1121-.4488-.0841-.5049-.028-.4768v-.4207l.056-.3927.0841-.3646.1681-.3646.1682-.3646.1962-.3366.2522-.3366.2522-.2805.2802-.2524.3363-.2524.3363-.1964.3644-.1683.3643-.1122.3643-.1122.4204-.028.4203-.0281.4204.0281.4204.028.4203.1122.3644.1122.3363.1683.3643.1964.2802.2524.2803.2524.2802.2805.1962.3366.1962.3366.1961.3646.1121.3646.0841.3646.0841.4207-.028.3927Zm5.6329-21.40067v9.84487h-19.337V4.88037h19.337v3.42186Z" fill="#FF8200"/></g><defs><filter id="a" x="0" y="0" width="49" height="57" filterUnits="userSpaceOnUse" color-interpolation-filters="sRGB"><feFlood flood-opacity="0" result="BackgroundImageFix"/><feColorMatrix in="SourceAlpha" values="0 0 0 0 0 0 0 0 0 0 0 0 0 0 0 0 0 0 127 0" result="hardAlpha"/><feOffset dy="4"/><feGaussianBlur stdDeviation="2"/><feComposite in2="hardAlpha" operator="out"/><feColorMatrix values="0 0 0 0 0 0 0 0 0 0 0 0 0 0 0 0 0 0 0.25 0"/><feBlend in2="BackgroundImageFix" result="effect1_dropShadow_203_19464"/><feBlend in="SourceGraphic" in2="effect1_dropShadow_203_19464" result="shape"/></filter></defs></svg>