<svg width="80" height="80" viewBox="0 0 80 80" fill="none" xmlns="http://www.w3.org/2000/svg">
  <g clip-path="url(#Frame 54__a)">
    <path d="M48.395 12.48c.572-3.52-1.825-6.836-5.354-7.407-3.53-.571-6.856 1.819-7.429 5.338-.573 3.52 1.824 6.835 5.354 7.406 3.53.571 6.856-1.818 7.429-5.338ZM42.01 75c3.575 0 6.474-2.89 6.474-6.455 0-3.566-2.899-6.456-6.475-6.456-3.576 0-6.474 2.89-6.474 6.456 0 3.565 2.898 6.455 6.474 6.455Zm6.474-52.174h-12.95v12.91h12.95v-12.91Zm-6.471 16.866-9.157 9.129 9.157 9.129 9.157-9.13-9.157-9.128Z" fill="#B0BAC7"/>
    <path d="M27.92 70.69H16V48.574h11.92v4.29h-7.616V66.4h7.634l-.019 4.291ZM68 52.865H56.08v-4.291h7.634v-15.35h-7.633v-4.292H68v23.933ZM27.92 33.334H16V9.31h11.92v4.29h-7.616v15.441h7.634l-.019 4.292Z" fill="#FF8200"/>
  </g>
  <defs>
    <clipPath id="Frame 54__a"><path fill="#fff" transform="translate(16 5)" d="M0 0h52v70H0z"/></clipPath>
  </defs>
</svg>
