<svg xmlns="http://www.w3.org/2000/svg" width="16" height="16" viewBox="0 0 16 16">
  <g fill="none" fill-rule="evenodd" transform="translate(-268 -1374)">
    <rect width="2000" height="3791" fill="#FFF"/>
    <path fill="#000" d="M16,3.0484735 L14,4.97238281 L14,7.24628906 L16,7.24628906 L16,13 C16,13.5522847 15.5522847,14 15,14 L1,14 C0.44771525,14 6.76353751e-17,13.5522847 0,13 L0,3 C-6.76353751e-17,2.44771525 0.44771525,2 1,2 L15,2 C15.5522847,2 16,2.44771525 16,3 L16,3.0484735 Z M11.9351411,4 L2,4 L2,12 L14,12 L14,4.6759423 L7.53553391,11.2169678 L4,7.68143387 L5.41421356,6.26722031 L7.53553391,8.38854065 L11.9351411,4 Z" transform="translate(268 1374)"/>
  </g>
</svg>
