<svg xmlns="http://www.w3.org/2000/svg" width="26" height="26" viewBox="0 0 26 26">
<path fill-rule="evenodd" clip-rule="evenodd" d="M12.9998 4.45078C12.4282 4.45078 11.8702 4.50681 11.3307 4.61353C11.0869 4.66176 10.8501 4.50322 10.8019 4.25942C10.7537 4.01562 10.9122 3.77888 11.156 3.73064C11.7527 3.6126 12.3693 3.55078 12.9998 3.55078C13.6304 3.55078 14.2469 3.6126 14.8436 3.73064C15.0874 3.77887 15.2459 4.01561 15.1977 4.25942C15.1495 4.50322 14.9127 4.66176 14.6689 4.61353C14.1295 4.50681 13.5714 4.45078 12.9998 4.45078ZM17.6264 5.26634C17.7647 5.05982 18.0442 5.00449 18.2507 5.14275C19.281 5.83255 20.168 6.71955 20.8578 7.74989C20.9961 7.95641 20.9408 8.23591 20.7342 8.37417C20.5277 8.51243 20.2482 8.4571 20.11 8.25058C19.4856 7.31799 18.6826 6.51497 17.75 5.89062C17.5435 5.75236 17.4882 5.47286 17.6264 5.26634ZM8.3732 5.26635C8.51146 5.47287 8.45613 5.75237 8.24961 5.89063C7.31702 6.51498 6.514 7.318 5.88965 8.25058C5.75139 8.4571 5.47189 8.51244 5.26537 8.37418C5.05885 8.23592 5.00352 7.95642 5.14178 7.7499C5.83158 6.71956 6.71858 5.83255 7.74892 5.14276C7.95544 5.0045 8.23494 5.05983 8.3732 5.26635ZM21.7412 10.8029C21.985 10.7546 22.2217 10.9132 22.2699 11.157C22.388 11.7537 22.4498 12.3702 22.4498 13.0008C22.4498 13.6313 22.388 14.2479 22.2699 14.8446C22.2217 15.0884 21.985 15.2469 21.7412 15.1987C21.4974 15.1505 21.3388 14.9137 21.3871 14.6699C21.4938 14.1304 21.5498 13.5724 21.5498 13.0008C21.5498 12.4292 21.4938 11.8711 21.3871 11.3317C21.3388 11.0878 21.4974 10.8511 21.7412 10.8029ZM4.25844 10.8029C4.50225 10.8511 4.66079 11.0879 4.61256 11.3317C4.50583 11.8711 4.4498 12.4292 4.4498 13.0008C4.4498 13.5724 4.50583 14.1304 4.61255 14.6699C4.66079 14.9137 4.50224 15.1505 4.25844 15.1987C4.01464 15.2469 3.7779 15.0884 3.72966 14.8446C3.61162 14.2479 3.5498 13.6313 3.5498 13.0008C3.5498 12.3702 3.61162 11.7537 3.72967 11.157C3.7779 10.9132 4.01464 10.7546 4.25844 10.8029ZM5.26537 17.6274C5.47188 17.4891 5.75138 17.5445 5.88964 17.751C6.51399 18.6836 7.31702 19.4866 8.2496 20.1109C8.45612 20.2492 8.51146 20.5287 8.37319 20.7352C8.23493 20.9417 7.95543 20.9971 7.74892 20.8588C6.71857 20.169 5.83157 19.282 5.14177 18.2517C5.00351 18.0452 5.05885 17.7657 5.26537 17.6274ZM20.7343 17.6274C20.9408 17.7657 20.9961 18.0452 20.8578 18.2517C20.168 19.282 19.281 20.169 18.2507 20.8588C18.0442 20.9971 17.7647 20.9417 17.6264 20.7352C17.4882 20.5287 17.5435 20.2492 17.75 20.1109C18.6826 19.4866 19.4856 18.6836 20.11 17.751C20.2482 17.5445 20.5277 17.4891 20.7343 17.6274ZM10.8019 21.7421C10.8501 21.4983 11.0869 21.3398 11.3307 21.388C11.8702 21.4948 12.4282 21.5508 12.9998 21.5508C13.5714 21.5508 14.1295 21.4948 14.6689 21.388C14.9127 21.3398 15.1495 21.4983 15.1977 21.7421C15.2459 21.986 15.0874 22.2227 14.8436 22.2709C14.2469 22.389 13.6304 22.4508 12.9998 22.4508C12.3693 22.4508 11.7527 22.389 11.156 22.2709C10.9122 22.2227 10.7537 21.9859 10.8019 21.7421Z" />
<path fill-rule="evenodd" clip-rule="evenodd" d="M13.0016 6.24961C12.5502 6.24961 12.1096 6.29385 11.6838 6.3781C11.44 6.42633 11.2032 6.26778 11.155 6.02398C11.1068 5.78018 11.2653 5.54344 11.5091 5.49521C11.9922 5.39964 12.4913 5.34961 13.0016 5.34961C13.5119 5.34961 14.011 5.39964 14.4941 5.49521C14.7379 5.54344 14.8964 5.78019 14.8482 6.02399C14.8 6.26779 14.5632 6.42633 14.3194 6.3781C13.8936 6.29385 13.453 6.24961 13.0016 6.24961ZM9.3751 6.76198C9.51336 6.9685 9.45802 7.248 9.2515 7.38626C8.5152 7.87919 7.88118 8.51321 7.38824 9.2495C7.24998 9.45601 6.97048 9.51135 6.76396 9.37308C6.55744 9.23482 6.50211 8.95532 6.64037 8.7488C7.19876 7.91476 7.91676 7.19676 8.75082 6.63839C8.95734 6.50013 9.23684 6.55546 9.3751 6.76198ZM16.6281 6.762C16.7663 6.55548 17.0458 6.50014 17.2524 6.63841C18.0864 7.19678 18.8044 7.91478 19.3628 8.74882C19.5011 8.95534 19.4457 9.23484 19.2392 9.3731C19.0327 9.51136 18.7532 9.45603 18.6149 9.24951C18.122 8.51323 17.488 7.87921 16.7517 7.38628C16.5452 7.24802 16.4898 6.96852 16.6281 6.762ZM6.02594 11.153C6.26974 11.2012 6.42829 11.4379 6.38005 11.6817C6.2958 12.1076 6.25156 12.5482 6.25156 12.9996C6.25156 13.451 6.2958 13.8916 6.38005 14.3174C6.42828 14.5612 6.26974 14.798 6.02594 14.8462C5.78213 14.8944 5.54539 14.7359 5.49716 14.4921C5.4016 14.009 5.35156 13.5099 5.35156 12.9996C5.35156 12.4892 5.4016 11.9902 5.49717 11.5071C5.5454 11.2633 5.78214 11.1047 6.02594 11.153ZM19.9772 11.153C20.221 11.1047 20.4578 11.2633 20.506 11.5071C20.6016 11.9902 20.6516 12.4892 20.6516 12.9996C20.6516 13.5099 20.6016 14.009 20.506 14.4921C20.4578 14.7359 20.221 14.8944 19.9772 14.8462C19.7334 14.798 19.5749 14.5612 19.6231 14.3174C19.7074 13.8916 19.7516 13.451 19.7516 12.9996C19.7516 12.5482 19.7074 12.1076 19.6231 11.6817C19.5749 11.4379 19.7334 11.2012 19.9772 11.153ZM19.2392 16.6261C19.4457 16.7643 19.5011 17.0438 19.3628 17.2504C18.8044 18.0844 18.0864 18.8024 17.2524 19.3608C17.0459 19.499 16.7664 19.4437 16.6281 19.2372C16.4898 19.0307 16.5452 18.7512 16.7517 18.6129C17.488 18.12 18.122 17.486 18.6149 16.7497C18.7532 16.5431 19.0327 16.4878 19.2392 16.6261ZM6.76395 16.6261C6.97046 16.4878 7.24996 16.5432 7.38823 16.7497C7.88116 17.486 8.51519 18.12 9.25149 18.6129C9.45801 18.7512 9.51334 19.0307 9.37508 19.2372C9.23682 19.4437 8.95732 19.4991 8.7508 19.3608C7.91675 18.8024 7.19874 18.0844 6.64035 17.2504C6.50209 17.0439 6.55743 16.7644 6.76395 16.6261ZM14.8482 19.9752C14.8964 20.219 14.7379 20.4557 14.4941 20.504C14.011 20.5995 13.5119 20.6496 13.0016 20.6496C12.4913 20.6496 11.9922 20.5995 11.5091 20.504C11.2653 20.4558 11.1068 20.219 11.155 19.9752C11.2032 19.7314 11.44 19.5729 11.6838 19.6211C12.1096 19.7053 12.5502 19.7496 13.0016 19.7496C13.453 19.7496 13.8936 19.7053 14.3194 19.6211C14.5632 19.5729 14.8 19.7314 14.8482 19.9752Z" />
<path fill-rule="evenodd" clip-rule="evenodd" d="M12.9987 8.19922L17.1556 15.8492H8.8418L12.9987 8.19922ZM10.187 15.0492H15.8105L12.9987 9.87477L10.187 15.0492Z" />
</svg>