<svg xmlns="http://www.w3.org/2000/svg" width="26" height="26" viewBox="0 0 26 26" fill="none">
<path fill-rule="evenodd" clip-rule="evenodd" d="M3 13C3 7.47715 7.47715 3 13 3C18.5228 3 23 7.47715 23 13C23 18.5228 18.5228 23 13 23C7.47715 23 3 18.5228 3 13ZM13 4C8.02943 4 4 8.02943 4 13C4 17.9706 8.02943 22 13 22C17.9706 22 22 17.9706 22 13C22 8.02943 17.9706 4 13 4Z" />
<path fill-rule="evenodd" clip-rule="evenodd" d="M4.875 13C4.875 8.51269 8.51269 4.875 13 4.875C17.4873 4.875 21.125 8.51269 21.125 13C21.125 17.4873 17.4873 21.125 13 21.125C8.51269 21.125 4.875 17.4873 4.875 13ZM13 5.875C9.06497 5.875 5.875 9.06497 5.875 13C5.875 16.9351 9.06497 20.125 13 20.125C16.9351 20.125 20.125 16.9351 20.125 13C20.125 9.06497 16.9351 5.875 13 5.875Z" />
<path fill-rule="evenodd" clip-rule="evenodd" d="M13.0001 8L17.3301 15.9687H8.66992L13.0001 8ZM10.0151 15.1687H15.985L13 9.67555L10.0151 15.1687Z" />
</svg>