<svg xmlns="http://www.w3.org/2000/svg" width="26" height="26" viewBox="0 0 26 26">
  <path fill-rule="evenodd" d="M5.65,6 L5.65,8.45 L3,8.45 L3,7 C3,6.44771525 3.44771525,6 4,6 L5.65,6 Z M7.05,6 L9.075,6 L9.075,8.45 L7.05,8.45 L7.05,6 Z M10.475,6 L12.5,6 L12.5,8.45 L10.475,8.45 L10.475,6 Z M13.9,6 L15.925,6 L15.925,8.45 L13.9,8.45 L13.9,6 Z M17.325,6 L19.35,6 L19.35,8.45 L17.325,8.45 L17.325,6 Z M20.75,6 L22,6 C22.5522847,6 23,6.44771525 23,7 L23,8.45 L20.75,8.45 L20.75,6 Z M23,9.85 L23,12.3 L20.75,12.3 L20.75,9.85 L23,9.85 Z M23,13.7 L23,16.15 L20.75,16.15 L20.75,13.7 L23,13.7 Z M23,17.55 L23,19 C23,19.5522847 22.5522847,20 22,20 L20.75,20 L20.75,17.55 L23,17.55 Z M19.35,20 L17.325,20 L17.325,17.55 L19.35,17.55 L19.35,20 Z M15.925,20 L13.9,20 L13.9,17.55 L15.925,17.55 L15.925,20 Z M12.5,20 L10.475,20 L10.475,17.55 L12.5,17.55 L12.5,20 Z M9.075,20 L7.05,20 L7.05,17.55 L9.075,17.55 L9.075,20 Z M5.65,20 L4,20 C3.44771525,20 3,19.5522847 3,19 L3,17.55 L5.65,17.55 L5.65,20 Z M3,16.15 L3,13.7 L5.65,13.7 L5.65,16.15 L3,16.15 Z M3,12.3 L3,9.85 L5.65,9.85 L5.65,12.3 L3,12.3 Z M9,12 L17,12 L17,14 L9,14 L9,12 Z"/>
</svg>
