<svg xmlns="http://www.w3.org/2000/svg" width="26" height="26" viewBox="0 0 26 26">
  <path fill-rule="evenodd" d="M7,3 L25,3 C25.5522847,3 26,3.44771525 26,4 L26,16 C26,16.5522847 25.5522847,17 25,17 L7,17 C6.44771525,17 6,16.5522847 6,16 L6,4 C6,3.44771525 6.44771525,3 7,3 Z M8,5 L8,15 L24,15 L24,5 L8,5 Z M17.7324356,14 C17.9026057,13.7058266 18,13.3642871 18,13 C18,11.8954305 17.1045695,11 16,11 C14.8954305,11 14,11.8954305 14,13 C14,13.3642871 14.0973943,13.7058266 14.2675644,14 L10,14 L10,12 L12.1260175,12 C12.2204822,11.632979 12.3657282,11.2863444 12.5538191,10.9680327 L11,9.41421356 L12.4142136,8 L13.9680327,9.55381909 C14.2863444,9.36572819 14.632979,9.22048216 15,9.12601749 L15,7 L17,7 L17,9.12601749 C17.3695653,9.22113703 17.7184607,9.36774445 18.0385833,9.55773705 L19.5963203,8 L21.0105339,9.41421356 L19.4500881,10.9746594 C19.636284,11.2911533 19.780173,11.6355244 19.8739825,12 L22,12 L22,14 L17.7324356,14 Z"/>
</svg>
