<svg xmlns="http://www.w3.org/2000/svg" width="26" height="26" fill="none"><path fill-rule="evenodd" clip-rule="evenodd" d="M12.986 4.002c-4.377-.09-8.46 3.513-8.916 7.876-.48 3.69 1.542 7.582 4.917 9.19 3.187 1.603 7.319 1.12 9.962-1.313 2.669-2.344 3.784-6.333 2.549-9.692-1.135-3.312-4.31-5.833-7.822-6.035a9.366 9.366 0 0 0-.69-.027Zm-.102.97c4.013-.15 7.785 3.2 8.1 7.213.385 3.54-1.838 7.206-5.222 8.372-3.29 1.218-7.327.034-9.314-2.896-2.039-2.86-1.958-7.082.356-9.765 1.48-1.786 3.753-2.915 6.08-2.923Zm-7.035 7.74c.067-3.718 3.482-6.982 7.194-6.864 1.72.002 3.418.675 4.701 1.814 2.423 2.045 3.058 5.77 1.638 8.57-1.373 2.867-4.811 4.45-7.889 3.776-3.322-.64-5.808-3.937-5.644-7.296Zm7.15-5.91c3.273-.086 6.254 2.863 6.201 6.144.058 3.032-2.38 5.914-5.42 6.22-2.855.376-5.864-1.457-6.685-4.254-.86-2.665.27-5.874 2.75-7.246A6.228 6.228 0 0 1 13 6.802ZM14 11.111V9.108l3.28 3.894L14 16.895v-2.002H9.504V11.11H14Z"/></svg>