<svg xmlns="http://www.w3.org/2000/svg" width="18" height="18" viewBox="0 0 18 18">
  <path d="M12,21.9450712 C10.264147,21.7531824 8.67708178,21.0676219 7.38231419,20.0318994 L8.09435615,19.3198574 C9.20087908,20.1800111 10.5392915,20.7559585 12,20.9381062 L12,21.9450712 L12,21.9450712 Z M5.96810063,18.6176858 C4.93237814,17.3229182 4.2468176,15.735853 4.05492878,14 L5.06189375,14 C5.24404153,15.4607085 5.81998894,16.7991209 6.68014258,17.9056439 L5.96810063,18.6176858 L5.96810063,18.6176858 Z M4.05492878,12 C4.2468176,10.264147 4.93237814,8.67708178 5.96810063,7.38231419 L6.68014258,8.09435615 C5.81998894,9.20087908 5.24404153,10.5392915 5.06189375,12 L4.05492878,12 L4.05492878,12 Z M7.38231419,5.96810063 C8.67708178,4.93237814 10.264147,4.2468176 12,4.05492878 L12,5.06189375 C10.5392915,5.24404153 9.20087908,5.81998894 8.09435615,6.68014258 L7.38231419,5.96810063 L7.38231419,5.96810063 Z M14,4.05492878 C15.735853,4.2468176 17.3229182,4.93237814 18.6176858,5.96810063 L17.9056439,6.68014258 C16.7991209,5.81998894 15.4607085,5.24404153 14,5.06189375 L14,4.05492878 L14,4.05492878 Z M20.0318994,7.38231419 C21.0676219,8.67708178 21.7531824,10.264147 21.9450712,12 L20.9381062,12 C20.7559585,10.5392915 20.1800111,9.20087908 19.3198574,8.09435615 L20.0318994,7.38231419 L20.0318994,7.38231419 Z M21.9450712,14 C21.7531824,15.735853 21.0676219,17.3229182 20.0318994,18.6176858 L19.3198574,17.9056439 C20.1800111,16.7991209 20.7559585,15.4607085 20.9381062,14 L21.9450712,14 L21.9450712,14 Z M18.6176858,20.0318994 C17.3229182,21.0676219 15.735853,21.7531824 14,21.9450712 L14,20.9381062 C15.4607085,20.7559585 16.7991209,20.1800111 17.9056439,19.3198574 L18.6176858,20.0318994 L18.6176858,20.0318994 Z M18.9170416,12 C18.7640946,11.0883434 18.4055629,10.2463982 17.8907479,9.52346564 L18.6063847,8.80782891 C19.2926081,9.72407262 19.7594805,10.8140932 19.9291111,12 L18.9170416,12 Z M18.9170416,14 L19.9291111,14 C19.7594805,15.1859068 19.2926081,16.2759274 18.6063847,17.1921711 L17.8907479,16.4765344 C18.4055629,15.7536018 18.7640946,14.9116566 18.9170416,14 L18.9170416,14 Z M16.4765344,17.8907479 L17.1921711,18.6063847 C16.2759274,19.2926081 15.1859068,19.7594805 14,19.9291111 L14,18.9170416 C14.9116566,18.7640946 15.7536018,18.4055629 16.4765344,17.8907479 L16.4765344,17.8907479 Z M12,18.9170416 L12,19.9291111 C10.8140932,19.7594805 9.72407262,19.2926081 8.80782891,18.6063847 L9.52346564,17.8907479 C10.2463982,18.4055629 11.0883434,18.7640946 12,18.9170416 L12,18.9170416 Z M8.10925208,16.4765344 L7.39361534,17.1921711 C6.70739194,16.2759274 6.24051953,15.1859068 6.07088886,14 L7.08295844,14 C7.23590544,14.9116566 7.59443708,15.7536018 8.10925208,16.4765344 L8.10925208,16.4765344 Z M7.08295844,12 L6.07088886,12 C6.24051953,10.8140932 6.70739194,9.72407262 7.39361534,8.80782891 L8.10925208,9.52346564 C7.59443708,10.2463982 7.23590544,11.0883434 7.08295844,12 L7.08295844,12 Z M9.52346564,8.10925208 L8.80782891,7.39361534 C9.72407262,6.70739194 10.8140932,6.24051953 12,6.07088886 L12,7.08295844 C11.0883434,7.23590544 10.2463982,7.59443708 9.52346564,8.10925208 L9.52346564,8.10925208 Z M14,7.08295844 L14,6.07088886 C15.1859068,6.24051953 16.2759274,6.70739194 17.1921711,7.39361534 L16.4765344,8.10925208 C15.7536018,7.59443708 14.9116566,7.23590544 14,7.08295844 L14,7.08295844 Z M14,12.3914297 L17.2826309,14.5231952 L16.1933528,16.2005363 L12.0348916,13.5 L12,13.5 L12,9 L14,9 L14,12.3914297 L14,12.3914297 Z" transform="translate(-4 -4)"/>
</svg>
