<svg xmlns="http://www.w3.org/2000/svg" width="26" height="26" viewBox="0 0 26 26">
<path fill-rule="evenodd" clip-rule="evenodd" d="M3 13C3 7.47715 7.47715 3 13 3C18.5229 3 23 7.47715 23 13C23 18.5229 18.5229 23 13 23C7.47715 23 3 18.5229 3 13ZM13 4.1C8.08467 4.1 4.1 8.08467 4.1 13C4.1 17.9154 8.08467 21.9 13 21.9C17.9153 21.9 21.9 17.9154 21.9 13C21.9 8.08467 17.9153 4.1 13 4.1Z" />
<path fill-rule="evenodd" clip-rule="evenodd" d="M4.875 13C4.875 8.51268 8.51269 4.875 13 4.875C17.4874 4.875 21.125 8.51269 21.125 13C21.125 17.4873 17.4874 21.125 13 21.125C8.51269 21.125 4.875 17.4873 4.875 13ZM13 5.975C9.12021 5.975 5.975 9.1202 5.975 13C5.975 16.8798 9.12021 20.025 13 20.025C16.8798 20.025 20.025 16.8798 20.025 13C20.025 9.12019 16.8798 5.975 13 5.975Z" />
<path d="M9.34277 15.5688L13.0003 8.83789L16.6578 15.5688H9.34277Z" />
<path fill-rule="evenodd" clip-rule="evenodd" d="M13.0001 8L17.3301 15.9687H8.66992L13.0001 8ZM10.0151 15.1687H15.985L13 9.67555L10.0151 15.1687Z" />
</svg>