<svg xmlns="http://www.w3.org/2000/svg" width="26" height="26" viewBox="0 0 26 26">
  <path fill-rule="evenodd" d="M12,13 C12,11.8954305 13.790861,11 16,11 C18.209139,11 20,11.8954305 20,13 L20,14 L12,14 L12,13 Z M7,3 L25,3 C25.5522847,3 26,3.44771525 26,4 L26,16 C26,16.5522847 25.5522847,17 25,17 L7,17 C6.44771525,17 6,16.5522847 6,16 L6,4 C6,3.44771525 6.44771525,3 7,3 Z M8,5 L8,15 L24,15 L24,5 L8,5 Z M16,10 C14.8954305,10 14,9.1045695 14,8 C14,6.8954305 14.8954305,6 16,6 C17.1045695,6 18,6.8954305 18,8 C18,9.1045695 17.1045695,10 16,10 Z"/>
</svg>
