<svg xmlns="http://www.w3.org/2000/svg" width="18" height="18" viewBox="0 0 18 18">
  <path d="M13,22 C8.02943725,22 4,17.9705627 4,13 C4,8.02943725 8.02943725,4 13,4 C17.9705627,4 22,8.02943725 22,13 C22,17.9705627 17.9705627,22 13,22 Z M13,20 C16.8659932,20 20,16.8659932 20,13 C20,9.13400675 16.8659932,6 13,6 C9.13400675,6 6,9.13400675 6,13 C6,16.8659932 9.13400675,20 13,20 Z M8,10 L18,10 L18,16 L8,16 L8,10 Z M9.79136378,11 L13,12.7911695 L16.2086362,11 L9.79136378,11 Z M17,11.7837479 L13,14.5 L9,11.7837479 L9,15 L17,15 L17,11.7837479 Z" transform="translate(-4 -4)"/>
</svg>
