<svg xmlns="http://www.w3.org/2000/svg" width="16" height="16" viewBox="0 0 16 16">
  <path fill-rule="evenodd" d="M12.706793,8.00725217 L12.7107885,8.01126274 L13.8694308,6.798363 L14.363961,7.29289322 C14.7544853,7.68341751 14.7544853,8.31658249 14.363961,8.70710678 L8.70710678,14.363961 C8.31658249,14.7544853 7.68341751,14.7544853 7.29289322,14.363961 L1.63603897,8.70710678 C1.24551468,8.31658249 1.24551468,7.68341751 1.63603897,7.29289322 L7.29289322,1.63603897 C7.68341751,1.24551468 8.31658249,1.24551468 8.70710678,1.63603897 L12.8427289,5.77166104 L11.6736404,6.95959517 L11.6712987,6.95725347 L8.03044921,10.6606696 L5,7.55712891 L6.41421356,6.14291534 L8.03044921,7.83224251 L10.2566591,5.54261386 L8,3.28595479 L3.28595479,8 L8,12.7140452 L12.706793,8.00725217 Z"/>
</svg>
