<svg xmlns="http://www.w3.org/2000/svg" width="26" height="26" fill="none"><path fill-rule="evenodd" clip-rule="evenodd" d="M13.007 4c-.815.012-1.648.088-2.42.353-.48.252-.144 1.048.372.885 1.268-.341 2.614-.34 3.893-.06.525.042.69-.774.19-.94A8.534 8.534 0 0 0 13.007 4Zm-1.24 8.996c.385-1.337.77-2.674 1.24-3.983.421 1.325.83 2.654 1.24 3.983.41 1.33.819 2.659 1.24 3.984l-2.48-2.679c-.432.43-.836.884-1.24 1.34-.404.454-.808.91-1.24 1.339.47-1.31.855-2.647 1.24-3.984Zm1.939-.148c-.225-.73-.45-1.46-.681-2.187-.259.72-.47 1.456-.682 2.19a37.89 37.89 0 0 1-.634 2.058c-.038.163.289-.21.643-.616.25-.287.514-.59.673-.728l1.361 1.47c-.23-.727-.455-1.456-.68-2.186Zm4.115-6.27c-.46-.22-.258-.986.255-.928.06.007.119.022.175.046a8.731 8.731 0 0 1 2.846 3.379c.184.494-.556.875-.852.439-.572-1.145-1.393-2.172-2.424-2.937ZM7.74 5.843c-.31.036-.537.258-.758.475-.085.084-.17.166-.258.237-.823.81-1.508 1.773-1.954 2.84-.15.506.615.836.88.38A8.34 8.34 0 0 1 8.085 6.65c.267-.29.05-.798-.344-.805Zm4.985.012c.098 0 .193 0 .281-.008a6.99 6.99 0 0 1 2.887.615c.459.26.138 1.028-.369.885-.935-.396-1.961-.593-2.978-.51-.383.13-.842-.22-.684-.633.15-.348.52-.348.863-.349Zm-2.801.76c-.371.067-.688.294-.997.516-.083.06-.164.118-.247.173-.676.529-1.303 1.16-1.719 1.914-.186.508.598.873.87.406.588-.931 1.46-1.645 2.41-2.178.307-.28.097-.823-.317-.832Zm7.538 2.105c-.404-.256-.21-.955.282-.916a.523.523 0 0 1 .255.086c.9.854 1.545 1.968 1.885 3.159.175.511-.613.866-.876.393-.315-1-.8-1.968-1.546-2.722Zm-10.95 2.49c-.463-.039-.56.466-.589.82-.144 1.085-.053 2.211.316 3.244.229.475 1.017.206.907-.31A6.467 6.467 0 0 1 6.96 11.7a.492.492 0 0 0-.446-.487Zm14.517 1.685c-.076-.343.075-.805.494-.784a.493.493 0 0 1 .457.375 8.794 8.794 0 0 1-1.024 4.71c-.287.442-1.035.075-.86-.423.612-1.194.957-2.532.933-3.878Zm-16.492-.463c-.44-.04-.587.436-.524.79.038 1.358.372 2.718 1.017 3.916.3.433 1.036.043.847-.45a8.343 8.343 0 0 1-.902-3.858.493.493 0 0 0-.438-.398Zm14.494 1.922c.038-.335.137-.81.574-.784a.492.492 0 0 1 .464.47c-.161 1.232-.687 2.41-1.453 3.385-.311.442-1.06.01-.832-.48.57-.774 1.048-1.64 1.247-2.591ZM7.857 16.769c-.454.01-.609.631-.264.895.783.904 1.793 1.623 2.921 2.024.512.125.805-.655.337-.897a6.466 6.466 0 0 1-2.657-1.91.506.506 0 0 0-.337-.112Zm7.808 1.794c.216-.11.43-.22.662-.275.44-.006.652.577.312.856-1.058.648-2.301.98-3.54 1-.516.036-.683-.763-.194-.936l.255-.025c.627-.06 1.263-.121 1.859-.348a3.22 3.22 0 0 0 .646-.273Zm-8.095.516c-.469.005-.624.685-.223.91 1.117.9 2.452 1.546 3.863 1.814.526.043.69-.774.19-.939a8.347 8.347 0 0 1-3.568-1.725.522.522 0 0 0-.262-.06Zm10.146.407c.2-.164.4-.328.658-.358.394.002.618.508.354.8-1.116.947-2.486 1.586-3.917 1.881-.523.138-.819-.674-.328-.902.981-.239 1.957-.57 2.81-1.128.154-.071.289-.182.423-.293Z" /></svg>