<svg xmlns="http://www.w3.org/2000/svg" width="26" height="26" viewBox="0 0 26 26">
<path fill-rule="evenodd" clip-rule="evenodd" d="M13.0002 4.54922C12.3712 4.54922 11.7588 4.61786 11.17 4.74785C10.8733 4.81332 10.5798 4.62595 10.5143 4.32934C10.4488 4.03272 10.6362 3.73918 10.9328 3.67371C11.599 3.52664 12.2909 3.44922 13.0002 3.44922C13.7095 3.44922 14.4014 3.52664 15.0676 3.6737C15.3642 3.73918 15.5515 4.03272 15.4861 4.32933C15.4206 4.62595 15.1271 4.81332 14.8304 4.74784C14.2416 4.61786 13.6292 4.54922 13.0002 4.54922ZM17.3729 5.11175C17.5363 4.85572 17.8764 4.78067 18.1324 4.94411C19.3066 5.69369 20.3057 6.69284 21.0553 7.86702C21.2187 8.12305 21.1437 8.46311 20.8877 8.62656C20.6316 8.79001 20.2916 8.71495 20.1281 8.45892C19.4646 7.41955 18.5799 6.53481 17.5405 5.87129C17.2845 5.70784 17.2094 5.36779 17.3729 5.11175ZM8.62754 5.11176C8.79099 5.36779 8.71593 5.70785 8.4599 5.8713C7.42053 6.53482 6.5358 7.41955 5.87227 8.45892C5.70883 8.71496 5.36877 8.79001 5.11274 8.62656C4.8567 8.46311 4.78165 8.12306 4.9451 7.86702C5.69468 6.69285 6.69383 5.6937 7.868 4.94412C8.12403 4.78067 8.46409 4.85573 8.62754 5.11176ZM21.6701 10.5133C21.9667 10.4479 22.2602 10.6352 22.3257 10.9319C22.4728 11.5981 22.5502 12.2899 22.5502 12.9992C22.5502 13.7085 22.4728 14.4004 22.3257 15.0666C22.2602 15.3632 21.9667 15.5506 21.6701 15.4851C21.3735 15.4196 21.1861 15.1261 21.2516 14.8295C21.3816 14.2406 21.4502 13.6283 21.4502 12.9992C21.4502 12.3702 21.3816 11.7578 21.2516 11.169C21.1861 10.8724 21.3735 10.5788 21.6701 10.5133ZM4.33031 10.5133C4.62693 10.5788 4.8143 10.8724 4.74882 11.169C4.61883 11.7578 4.5502 12.3702 4.5502 12.9992C4.5502 13.6283 4.61883 14.2406 4.74882 14.8295C4.8143 15.1261 4.62692 15.4196 4.33031 15.4851C4.03369 15.5506 3.74016 15.3632 3.67468 15.0666C3.52762 14.4004 3.4502 13.7085 3.4502 12.9992C3.4502 12.2899 3.52762 11.5981 3.67468 10.9319C3.74016 10.6352 4.0337 10.4479 4.33031 10.5133ZM5.11273 17.3719C5.36876 17.2084 5.70882 17.2835 5.87227 17.5395C6.53579 18.5789 7.42052 19.4636 8.45989 20.1271C8.71593 20.2906 8.79098 20.6306 8.62753 20.8867C8.46409 21.1427 8.12403 21.2178 7.868 21.0543C6.69382 20.3047 5.69467 19.3056 4.94509 18.1314C4.78164 17.8754 4.8567 17.5353 5.11273 17.3719ZM20.8877 17.3719C21.1437 17.5353 21.2188 17.8754 21.0553 18.1314C20.3057 19.3056 19.3066 20.3048 18.1324 21.0543C17.8764 21.2178 17.5363 21.1427 17.3729 20.8867C17.2094 20.6307 17.2845 20.2906 17.5405 20.1272C18.5799 19.4636 19.4646 18.5789 20.1281 17.5395C20.2916 17.2835 20.6316 17.2084 20.8877 17.3719ZM10.5143 21.6691C10.5798 21.3725 10.8733 21.1851 11.17 21.2506C11.7588 21.3806 12.3712 21.4492 13.0002 21.4492C13.6292 21.4492 14.2416 21.3806 14.8304 21.2506C15.1271 21.1851 15.4206 21.3725 15.4861 21.6691C15.5515 21.9657 15.3642 22.2593 15.0676 22.3247C14.4014 22.4718 13.7095 22.5492 13.0002 22.5492C12.2909 22.5492 11.599 22.4718 10.9328 22.3247C10.6362 22.2593 10.4488 21.9657 10.5143 21.6691Z" />
<path fill-rule="evenodd" clip-rule="evenodd" d="M12.9986 8.19922L17.1556 15.8492H8.8418L12.9986 8.19922ZM12.9987 9.66535L10.0188 15.1492H15.9785L12.9987 9.66535Z" />
</svg>