<svg xmlns="http://www.w3.org/2000/svg" width="16" height="16" viewBox="0 0 16 16">
  <path d="M13.9923882,4 L6.83553391,11.1568542 L3.3,7.62132034 L4.71421356,6.20710678 L6.83553391,8.32842712 L11.1746649,4 L2,4 L2,12 L14,12 L14,5.00402832 L15.9993591,5.00402832 L15.9993591,2.96386087 C15.9997852,2.97585467 16,2.98790225 16,3 L16,13 C16,13.5522847 15.5522847,14 15,14 L1,14 C0.44771525,14 6.76353751e-17,13.5522847 0,13 L0,3 C-6.76353751e-17,2.44771525 0.44771525,2 1,2 L15,2 C15.2764476,2 15.5266951,2.11217642 15.7077067,2.29349363 L14,4.00161703 L14,4 L13.9923882,4 Z"/>
</svg>
