<svg xmlns="http://www.w3.org/2000/svg" width="22" height="22" viewBox="0 0 22 22">
  <g fill="none" fill-rule="evenodd">
    <circle cx="11" cy="11" r="11" fill="#62626E" opacity=".25"/>
    <path fill="#FFF" d="M8.42855151,15.2889629 C9.17989881,15.7404026 10.0596333,16 11,16 C13.7614237,16 16,13.7614237 16,11 C16,10.0596333 15.7404026,9.17989881 15.2889629,8.42855151 L8.42855151,15.2889629 Z M6.95266062,13.9364267 L13.9364267,6.95266062 C13.111922,6.35343147 12.0972352,6 11,6 C8.23857625,6 6,8.23857625 6,11 C6,12.0972352 6.35343147,13.111922 6.95266062,13.9364267 Z M11,18 C7.13400675,18 4,14.8659932 4,11 C4,7.13400675 7.13400675,4 11,4 C14.8659932,4 18,7.13400675 18,11 C18,14.8659932 14.8659932,18 11,18 Z"/>
  </g>
</svg>
