<svg xmlns="http://www.w3.org/2000/svg" width="36" height="28" viewBox="0 0 36 28">
  <g fill="none" fill-rule="evenodd">
    <polyline stroke="#9CA4B0" points="1 9 13 19 15 19 27 9"/>
    <path stroke="#9CA4B0" d="M1 27L11.5 17.5M16.5 17.5L27 27"/>
    <path fill="#6A727E" fill-rule="nonzero" d="M4,8 L4,4 L8,4 L8,0 L36,0 L36,20 L32,20 L32,24 L28,24 L28,28 L0,28 L0,8 L4,8 Z M6,8 L28,8 L28,22 L30,22 L30,6 L6,6 L6,8 Z M10,4 L32,4 L32,18 L34,18 L34,2 L10,2 L10,4 Z M2,10 L2,26 L26,26 L26,10 L2,10 Z"/>
    <circle cx="14" cy="18" r="8" fill="#FFF" fill-rule="nonzero"/>
    <path fill="#6A727E" d="M14,25 C10.1340068,25 7,21.8659932 7,18 C7,14.1340068 10.1340068,11 14,11 C17.8659932,11 21,14.1340068 21,18 C21,21.8659932 17.8659932,25 14,25 Z M13,20 L13,22 L15,22 L15,20 L13,20 Z M13.2610545,19 L14.7550268,19 L15.5,14 L12.5,14 L13.2610545,19 Z"/>
  </g>
</svg>
