<svg xmlns="http://www.w3.org/2000/svg" width="115" height="70" viewBox="0 0 115 70">
  <g fill="none" transform="translate(1 1)">
    <path fill="#C4C7CC" d="M0,19 L28,19 L28,39 L0,39 L0,19 Z M2,21 L2,37 L26,37 L26,21 L2,21 Z"/>
    <path fill="#D7DADF" d="M4,31 L7,31 L7,35 L4,35 L4,31 Z M8,27 L11,27 L11,35 L8,35 L8,27 Z M12,30 L15,30 L15,35 L12,35 L12,30 Z M16,28 L19,28 L19,35 L16,35 L16,28 Z M20,23 L23,23 L23,35 L20,35 L20,23 Z"/>
    <rect width="26" height="18" x="45" y="1" stroke="#C4C7CC" stroke-width="2"/>
    <path stroke="#D7DADF" d="M59.5,7.5 L59.5,15.5 L67.5,15.5 L67.5,7.5 L59.5,7.5 Z M48.5,4.5 L48.5,5.5 L60.5,5.5 L60.5,4.5 L48.5,4.5 Z M48.5,7.5 L48.5,15.5 L57.5,15.5 L57.5,7.5 L48.5,7.5 Z"/>
    <polyline stroke="#C4C7CC" points="50 13 52.489 10.566 53.857 12.303 56 10"/>
    <path fill="#C4C7CC" d="M61,9 L63,9 L63,10 L61,10 L61,9 Z M64,9 L66,9 L66,10 L64,10 L64,9 Z M61,11 L63,11 L63,12 L61,12 L61,11 Z M64,11 L66,11 L66,12 L64,12 L64,11 Z M61,13 L63,13 L63,14 L61,14 L61,13 Z M64,13 L66,13 L66,14 L64,14 L64,13 Z"/>
    <polygon fill="#C4C7CC" points="42 48.45 42 45 53 45 53 48 66 48 66 52 75 52 70.286 68 42 68"/>
    <path fill="#E7E9ED" d="M51,47 L51,50 L64,50 L64,52 L46,52 L44,60 L44,47 L51,47 Z M47.5,54 L72.487708,54 L68.5,66 L44.5,66 L47.5,54 Z"/>
    <rect width="26" height="18" x="86" y="25" stroke="#C4C7CC" stroke-width="2"/>
    <polygon fill="#E7E9ED" points="89 40 95 34 101 36.025 109 28 109 40"/>
    <polyline stroke="#C4C7CC" points="89 40 95 34 101 36.025 109 28"/>
    <path fill="#CCCFD3" d="M71.1271582,35.5251268 L70.7365754,35.5251268 L72.4605458,33.8011424 L71.5177409,32.8585252 L68.655772,35.7205174 C68.3953835,35.9803221 68.3953835,36.4027049 68.655772,36.6631346 L71.5177409,39.5253221 L72.4605458,38.5825096 L70.7365754,36.8585252 L71.1271582,36.8585252 C75.5465363,36.8585252 79.089759,40.2779677 79.1794503,47.8580683 L80.5128379,47.8580683 C80.6242404,39.6472723 76.2827022,35.5251268 71.1271582,35.5251268 Z" transform="rotate(-90 74.488 40.358)"/>
    <path fill="#CCCFD3" d="M34.5876005,29.5921596 L34.1970177,29.5921596 L35.920988,27.9674268 L34.9781832,27.0790771 L32.1162143,29.7763014 C31.8558258,30.0211488 31.8558258,30.4192146 32.1162143,30.6646511 L34.9781832,33.3620594 L35.920988,32.4735256 L34.1970177,30.8487929 L34.5876005,30.8487929 C39.0069786,30.8487929 42.4893858,33.9353708 42.5790771,41.0790771 L44.0790771,41.0790771 C43.5790771,32.1262748 39.7431444,29.5921596 34.5876005,29.5921596 Z" transform="matrix(0 -1 -1 0 72.08 72.08)"/>
    <path fill="#CCCFD3" d="M53.8672764,28.0754199 L55.5912468,26.3514355 L54.6484419,25.4088184 L51.786473,28.2708105 C51.5260845,28.5306152 51.5260845,28.952998 51.786473,29.2134277 L54.6484419,32.0756152 L55.5912468,31.1328027 L53.8672764,29.4088184 L54.2578592,29.4088184 C54.7041768,29.4088184 57.6434288,29.4088184 63.0756152,29.4088184 L63.0756152,28.0756152 L53.8672764,28.0754199 Z" transform="rotate(-90 57.333 28.742)"/>
  </g>
</svg>
