<svg class="lds-spinner" width="20px"  height="20px"  xmlns="http://www.w3.org/2000/svg" xmlns:xlink="http://www.w3.org/1999/xlink" viewBox="0 0 100 100" preserveAspectRatio="xMidYMid" style="background: none;"><g transform="rotate(0 50 50)" class="">
  <rect x="44.5" y="7.5" rx="8.9" ry="1.5" width="11" height="23" fill="#28292f" class="">
    <animate attributeName="opacity" values="1;0" times="0;1" dur="0.5s" begin="-0.4583333333333333s" repeatCount="indefinite" class=""></animate>
  </rect>
</g><g transform="rotate(30 50 50)" class="">
  <rect x="44.5" y="7.5" rx="8.9" ry="1.5" width="11" height="23" fill="#28292f" class="">
    <animate attributeName="opacity" values="1;0" times="0;1" dur="0.5s" begin="-0.4166666666666667s" repeatCount="indefinite" class=""></animate>
  </rect>
</g><g transform="rotate(60 50 50)" class="">
  <rect x="44.5" y="7.5" rx="8.9" ry="1.5" width="11" height="23" fill="#28292f" class="">
    <animate attributeName="opacity" values="1;0" times="0;1" dur="0.5s" begin="-0.375s" repeatCount="indefinite" class=""></animate>
  </rect>
</g><g transform="rotate(90 50 50)" class="">
  <rect x="44.5" y="7.5" rx="8.9" ry="1.5" width="11" height="23" fill="#28292f" class="">
    <animate attributeName="opacity" values="1;0" times="0;1" dur="0.5s" begin="-0.3333333333333333s" repeatCount="indefinite" class=""></animate>
  </rect>
</g><g transform="rotate(120 50 50)" class="">
  <rect x="44.5" y="7.5" rx="8.9" ry="1.5" width="11" height="23" fill="#28292f" class="">
    <animate attributeName="opacity" values="1;0" times="0;1" dur="0.5s" begin="-0.2916666666666667s" repeatCount="indefinite" class=""></animate>
  </rect>
</g><g transform="rotate(150 50 50)" class="">
  <rect x="44.5" y="7.5" rx="8.9" ry="1.5" width="11" height="23" fill="#28292f" class="">
    <animate attributeName="opacity" values="1;0" times="0;1" dur="0.5s" begin="-0.25s" repeatCount="indefinite" class=""></animate>
  </rect>
</g><g transform="rotate(180 50 50)" class="">
  <rect x="44.5" y="7.5" rx="8.9" ry="1.5" width="11" height="23" fill="#28292f" class="">
    <animate attributeName="opacity" values="1;0" times="0;1" dur="0.5s" begin="-0.20833333333333334s" repeatCount="indefinite" class=""></animate>
  </rect>
</g><g transform="rotate(210 50 50)" class="">
  <rect x="44.5" y="7.5" rx="8.9" ry="1.5" width="11" height="23" fill="#28292f" class="">
    <animate attributeName="opacity" values="1;0" times="0;1" dur="0.5s" begin="-0.16666666666666666s" repeatCount="indefinite" class=""></animate>
  </rect>
</g><g transform="rotate(240 50 50)" class="">
  <rect x="44.5" y="7.5" rx="8.9" ry="1.5" width="11" height="23" fill="#28292f" class="">
    <animate attributeName="opacity" values="1;0" times="0;1" dur="0.5s" begin="-0.125s" repeatCount="indefinite" class=""></animate>
  </rect>
</g><g transform="rotate(270 50 50)" class="">
  <rect x="44.5" y="7.5" rx="8.9" ry="1.5" width="11" height="23" fill="#28292f" class="">
    <animate attributeName="opacity" values="1;0" times="0;1" dur="0.5s" begin="-0.08333333333333333s" repeatCount="indefinite" class=""></animate>
  </rect>
</g><g transform="rotate(300 50 50)" class="">
  <rect x="44.5" y="7.5" rx="8.9" ry="1.5" width="11" height="23" fill="#28292f" class="">
    <animate attributeName="opacity" values="1;0" times="0;1" dur="0.5s" begin="-0.041666666666666664s" repeatCount="indefinite" class=""></animate>
  </rect>
</g><g transform="rotate(330 50 50)" class="">
  <rect x="44.5" y="7.5" rx="8.9" ry="1.5" width="11" height="23" fill="#28292f" class="">
    <animate attributeName="opacity" values="1;0" times="0;1" dur="0.5s" begin="0s" repeatCount="indefinite" class=""></animate>
  </rect>
</g></svg>
