<?xml version="1.0" encoding="UTF-8"?>
<svg width="24px" height="24px" viewBox="0 0 24 24" xmlns="http://www.w3.org/2000/svg" xmlns:xlink="http://www.w3.org/1999/xlink">
 
        <g fill-rule="evenodd">
                <path d="M1.80769231,4 C1.36168462,4 1,4.38831122 1,4.86734694 L1,20.1275357 C1,20.6065714 1.36168462,20.9948827 1.80769231,20.9948827 L8.18272692,20.9948827 C8.21123846,20.9981786 8.23999231,21 8.26923077,21 C8.29846923,21 8.32730385,20.9980918 8.35573462,20.9948827 L21.1923077,20.9948827 C21.6383154,20.9948827 22,20.6065714 22,20.1275357 L22,4.86734694 C22,4.38831122 21.6383154,4 21.1923077,4 L1.80769231,4 Z M20,9 L9,9 L9,6 L20,6 L20,9 Z M20,14 L9,14 L9,11 L20,11 L20,14 Z M20,19 L9,19 L9,16 L20,16 L20,19 Z M7,6 L7,9 L3,9 L3,6 L7,6 Z M7,11 L7,14 L3,14 L3,11 L7,11 Z M7,16 L7,19 L3,19 L3,16 L7,16 Z" id="Decision-Table-"></path>
        
    </g>
</svg>