
<svg width="24px" height="24px" viewBox="0 0 24 24" xmlns="http://www.w3.org/2000/svg" xmlns:xlink="http://www.w3.org/1999/xlink">

                <path fill-rule="evenodd" d="M8.67179487,9.65347844 L8.94731242,11.2352568 C9.51676669,11.3631304 10.0514153,11.581722 10.5349318,11.874871 L11.8494973,10.956363 L13.1658038,12.2593059 L12.249148,13.5447179 C12.5593947,14.0284585 12.7918773,14.5658736 12.9291856,15.1397301 L14.4820513,15.4047475 L14.4820513,17.2473871 L12.9427451,17.5100903 C12.8101157,18.09412 12.579137,18.6413201 12.2679296,19.1337538 L13.1658038,20.3928286 L11.8494973,21.6957716 L10.5775089,20.8070128 C10.0800246,21.1150608 9.52721226,21.3436945 8.93719249,21.4749774 L8.67179487,22.9986561 L6.81025641,22.9986561 L6.54252098,21.4615558 C5.96277875,21.3256412 5.41985164,21.0955189 4.93114961,20.7884219 L3.63255393,21.6957716 L2.31624746,20.3928286 L3.24417608,19.0916089 C2.94802038,18.6130012 2.7271868,18.0837805 2.59800176,17.5201075 L1,17.2473871 L1,15.4047475 L2.6116886,15.1296912 C2.74531997,14.5760907 2.96756211,14.0565484 3.26274947,13.5865708 L2.31624746,12.2593059 L3.63255393,10.956363 L4.97343178,11.8932558 C5.44822968,11.6010653 5.97310063,11.3810794 6.53237907,11.2488047 L6.81025641,9.65347844 L8.67179487,9.65347844 Z M7.76923077,14.5113465 C6.74113147,14.5113465 5.90769231,15.3363243 5.90769231,16.3539861 C5.90769231,17.3716478 6.74113147,18.1966257 7.76923077,18.1966257 C8.79733007,18.1966257 9.63076923,17.3716478 9.63076923,16.3539861 C9.63076923,15.3363243 8.79733007,14.5113465 7.76923077,14.5113465 Z M17.9186145,1 L19.6565103,1.66034297 L19.3472901,3.20367758 C19.8294876,3.52068899 20.2626992,3.918043 20.623939,4.38700564 L22.1514503,4.00391592 L22.9086062,5.68725095 L21.6103269,6.54697826 C21.7291466,7.13391353 21.7429861,7.72679935 21.6610291,8.30195429 L22.9986423,9.09068566 L22.3315266,10.8109379 L20.804309,10.5111283 C20.4764139,10.9928349 20.0653422,11.4242685 19.5802776,11.7817477 L19.963917,13.2805485 L18.263317,14.0300176 L17.3871212,12.7335988 C16.8016519,12.8428431 16.2111042,12.8512024 15.638464,12.7674104 L14.8249753,14.1191396 L13.0870794,13.4587967 L13.4001024,11.8964825 C12.9328868,11.578487 12.5136841,11.183929 12.1640498,10.720999 L10.5921395,11.1152237 L9.83498357,9.43188868 L11.1943115,8.53173463 C11.0889108,7.97219446 11.0784548,7.40809263 11.1550042,6.85990211 L9.74494742,6.02845397 L10.4120631,4.30820171 L12.0219931,4.62424866 C12.335679,4.1661622 12.7247784,3.75387821 13.181352,3.40786965 L12.7796727,1.83859112 L14.4802727,1.08912207 L15.3819364,2.42322316 C15.9547031,2.31077496 16.53295,2.29521488 17.0951217,2.36835256 L17.9186145,1 Z M15.6518777,5.89038427 C14.7126622,6.30430459 14.2902679,7.39350808 14.7084336,8.32318834 C15.1265993,9.25286861 16.2269741,9.67097465 17.1661895,9.25705433 C18.105405,8.84313401 18.5277993,7.75393052 18.1096336,6.82425026 C17.6914679,5.89456999 16.5910931,5.47646395 15.6518777,5.89038427 Z"></path>
    
</svg>