<svg xmlns="http://www.w3.org/2000/svg" width="24" height="24" viewBox="0 0 24 24">
  <path d="M11.99988,0 C5.37256954,0 0,5.37267582 0,11.99968 C0,18.6266842 5.37256954,24 11.9998,24 C18.6270305,24 24,18.6269242 24,11.99968 C24,5.37243582 18.6271105,0 11.99988,0 Z M2.25853431,16.5197901 C2.25853431,12.7711251 5.55074918,12.7719251 6.28132136,11.7917586 L6.36492275,11.3447956 C5.33850564,10.8243922 4.61393357,9.5705438 4.61393357,8.10365402 C4.61393357,6.17132114 5.87091452,4.6045907 7.42110035,4.6045907 C8.6417607,4.6045907 9.67753796,5.57771718 10.0641044,6.93404623 C8.51127852,7.42748952 7.36261938,9.11118074 7.36261938,11.1126341 C7.36261938,12.4905633 7.90582843,13.7574517 8.79760329,14.5623371 C8.65440091,14.6357776 8.49511825,14.7106581 8.35815597,14.7748185 C7.63902398,15.1121807 6.64220737,15.5811439 5.92307538,16.5197901 L2.25853431,16.5197901 L2.25853431,16.5197901 Z M12.0363606,19.5285302 L12.0363606,19.5283702 L11.9630794,19.5283702 L6.83731396,19.5283702 C6.83731396,15.7798652 10.1295288,15.7809052 10.860101,14.8007387 L10.9437024,14.3537757 C9.91728529,13.8333722 9.19271321,12.5795239 9.19271321,11.1126341 C9.19271321,9.1803012 10.4496942,7.61357076 11.99988,7.61357076 C13.5500658,7.61357076 14.8070468,9.1803012 14.8070468,11.1126341 C14.8070468,12.5668838 14.0953549,13.8132921 13.082618,14.3415356 L13.1778196,14.849699 C13.979353,15.7823452 17.162046,15.8431456 17.162046,19.5285302 L12.0363606,19.5285302 L12.0363606,19.5285302 Z M18.0763646,16.5199501 L18.0763646,16.5197901 L18.0763646,16.5197901 C17.3569926,15.5813039 16.360176,15.1124207 15.641044,14.7750585 C15.4995217,14.7086581 15.342639,14.6349776 15.2023967,14.5629771 C16.0933716,13.7570517 16.6372206,12.4874432 16.6372206,11.1126341 C16.6372206,9.11142074 15.4889615,7.42804952 13.9365356,6.93444623 C14.322862,5.57787719 15.3586393,4.6047507 16.5795397,4.6047507 C18.1298855,4.6047507 19.3867064,6.17148114 19.3867064,8.10381403 C19.3867064,9.55806372 18.6750146,10.804312 17.6622777,11.3327156 L17.7574793,11.8408789 C18.5590127,12.7733652 21.7417057,12.8340856 21.7417057,16.5199501 L18.0763646,16.5199501 Z"/>
</svg>
