<svg xmlns="http://www.w3.org/2000/svg" width="96" height="33" viewBox="0 0 96 33">
  <path fill="#161616" d="M95.9891525,26.7581311 L95.9891525,32.8128197 L0.0206101695,32.8128197 L0.0206101695,26.7581311 L95.9891525,26.7581311 Z M47.432678,0.32242623 L47.4174915,17.9584918 C47.4164068,19.5900984 48.1345085,20.1786885 49.2810847,20.1797705 C50.427661,20.1808525 51.1490169,19.5933443 51.1490169,17.9606557 L51.1490169,17.9606557 L51.1642034,0.324590164 L54.5681356,0.324590164 L54.5540339,17.7291148 C54.5507797,21.3861639 52.7153898,23.4711148 49.1802034,23.4711148 C45.6450169,23.4678689 43.8139661,21.3764262 43.817216,17.7247869 L43.817216,17.7247869 L43.831322,0.32242623 L47.432678,0.32242623 Z M5.40420339,0.0237995002 C8.93938983,0.0270491803 10.7704407,2.11740984 10.7682731,5.77554098 L10.7682731,5.77554098 L10.7682731,7.9957377 L7.36433898,7.9957377 L7.36433898,5.54616393 C7.36542373,3.91455738 6.64732203,3.2935082 5.50074576,3.29242623 C4.35416949,3.29134426 3.63281356,3.91131148 3.63281356,5.54291803 L3.63281356,5.54291803 L3.6219661,17.884918 C3.62088136,19.5176066 4.33898305,20.1072787 5.48555932,20.1072787 C6.63213559,20.1072787 7.35349153,19.5208525 7.35349153,17.8881639 L7.35349153,17.8881639 L7.35349153,14.6227869 L10.7574237,14.6227869 L10.7574237,17.6587869 C10.7541695,21.3158361 8.91877966,23.4007869 5.38359322,23.4007869 C1.8440678,23.398623 0.0173559322,21.3071803 0.0206058291,17.6501311 L0.0206058291,17.6501311 L0.0303728814,5.76580328 C0.0336271186,2.1087541 1.86901695,0.020557377 5.40420339,0.0237995002 Z M92.3422373,0.359213115 L95.9934915,23.2103607 L92.3595932,23.2103607 L91.7412881,19.0631803 L87.3220339,19.0631803 L86.6907119,23.2114426 L83.3844068,23.2114426 L87.0725424,0.359213115 L92.3422373,0.359213115 Z M76.6958644,0.345147541 C80.2961356,0.348393443 82.0588475,2.34137705 82.0588475,5.99842623 L82.0588475,5.99842623 L82.0490847,17.556 C82.0458305,21.2130492 80.2766102,23.2027869 76.676339,23.2049508 L76.676339,23.2049508 L70.980339,23.199541 L70.9998644,0.345147541 Z M56.9903729,0.328918033 L61.508339,0.332163934 L65.1953898,14.0158033 L65.2062373,0.335409836 L68.4149153,0.338655738 L68.3953898,23.1930492 L64.6964068,23.1898033 L60.2261695,6.63245902 L60.2120678,23.1865574 L56.9708475,23.1833115 L56.9903729,0.328918033 Z M26.2541017,0.30295082 L31.2623729,0.307278689 L33.9004746,16.5357049 L36.3693559,0.311606557 L41.3776271,0.315934426 L41.3581017,23.1703279 L37.9530847,23.1681639 L37.9671864,6.77744262 L35.4657627,23.164918 L32.0618305,23.1627541 L29.3911864,6.99816393 L29.3770847,23.1605902 L26.2345763,23.1573443 L26.2541017,0.30295082 Z M20.9518644,0.298622951 L24.5987797,23.1497705 L20.9648814,23.1497705 L20.3465763,19.0025902 L15.927322,19.0025902 L15.2981695,23.1497705 L11.9929492,23.1497705 L15.6810847,0.298622951 L20.9518644,0.298622951 Z M76.6275254,3.61052459 L74.5979661,3.61052459 L74.5838644,19.9363279 L76.6134237,19.9352459 C77.7589153,19.9363279 78.4488136,19.3488197 78.4488136,17.7161311 L78.4488136,17.7161311 L78.4585776,5.83180328 C78.459661,4.20019672 77.7730169,3.61052459 76.6275254,3.61052459 L76.6275254,3.61052459 Z M89.5240678,4.40468852 L87.7776271,15.9644262 L91.2488136,15.9644262 L89.5240678,4.40468852 Z M18.1326102,4.34409836 L16.3872542,15.904918 L19.8584407,15.904918 L18.1326102,4.34409836 Z"/>
</svg>
