<svg xmlns="http://www.w3.org/2000/svg" viewBox="0 0 16 16">
  <g fill="none" fill-rule="evenodd">
    <path fill="#000" d="M11.9725356,7 C11.7238135,4.75002477 9.81627683,3 7.5,3 C5.01471863,3 3,5.01471863 3,7.5 C3,9.98528137 5.01471863,12 7.5,12 C8.9978156,12 10.324715,11.268221 11.1426806,10.1426806 L12.5690812,11.5690812 C11.3777327,13.0513103 9.54965554,14 7.5,14 C3.91014913,14 1,11.0898509 1,7.5 C1,3.91014913 3.91014913,1 7.5,1 C10.9216149,1 13.7257427,3.64377614 13.9810552,7 L16,7 L13,10 L10,7 L11.9725356,7 Z"/>
    <polyline stroke="#000" stroke-linecap="round" points="4.65 7.526 7.533 7.526 7.533 4"/>
  </g>
</svg>
