<svg xmlns="http://www.w3.org/2000/svg" width="24" height="24" viewBox="0 0 24 24">
  <path fill-rule="evenodd" d="M8.30648509,10.289051 L8.56888325,11.7955094 C9.11122167,11.917294 9.62041178,12.1254769 10.0809046,12.404667 L11.3328741,11.5298958 L12.5865017,12.7707961 L11.7134945,13.9950003 C12.0089681,14.4557066 12.2303805,14.9675314 12.3611506,15.5140625 L13.8400731,15.7664605 L13.8400731,17.5213586 L12.3740644,17.7715526 C12.2477505,18.3277724 12.0277703,18.8489164 11.7313818,19.3179017 L12.5865017,20.5170228 L11.3328741,21.7579233 L10.1214543,20.9114847 C9.64765879,21.2048643 9.12116985,21.4226111 8.5592452,21.5476427 L8.30648509,22.998768 L6.53358797,22.998768 L6.27860137,21.5348602 C5.72646487,21.4054175 5.20939046,21.186253 4.74395907,20.8937791 L3.50719895,21.7579233 L2.25357137,20.5170228 L3.13731458,19.2777636 C2.855261,18.8219459 2.64494291,18.3179253 2.52190931,17.7810928 L1,17.5213586 L1,15.7664605 L2.53494442,15.5045016 C2.66221263,14.977262 2.87387221,14.4824589 3.15500356,14.0348603 L2.25357137,12.7707961 L3.50719895,11.5298958 L4.78422788,12.4221763 C5.23641721,12.1438991 5.73629525,11.9343884 6.26894239,11.8084122 L6.53358797,10.289051 L8.30648509,10.289051 Z M7.44689861,14.9156008 C6.46775457,14.9156008 5.67400149,15.7012954 5.67400149,16.6704989 C5.67400149,17.6397024 6.46775457,18.4253971 7.44689861,18.4253971 C8.42604265,18.4253971 9.21979573,17.6397024 9.21979573,16.6704989 C9.21979573,15.7012954 8.42604265,14.9156008 7.44689861,14.9156008 Z M18.160624,1 L19.815766,1.62889926 L19.52127,3.09874451 C19.9805066,3.40066071 20.3930898,3.77909381 20.7371284,4.22572574 L22.1919038,3.8608777 L22.913006,5.46405695 L21.6765472,6.2828464 C21.7897091,6.84183343 21.8028896,7.40648766 21.7248351,7.9542553 L22.9987549,8.70542945 L22.3634054,10.343768 L20.9089097,10.0582345 C20.596628,10.5170036 20.2051304,10.9278935 19.7431633,11.2683505 L20.1085348,12.6957825 L18.4889127,13.409564 L17.654439,12.1748771 C17.0968481,12.2789195 16.5344207,12.2868807 15.989048,12.2070787 L15.2142954,13.4944422 L13.5591533,12.8655431 L13.857271,11.377622 C13.412303,11.0747685 13.0130615,10.6989983 12.6800759,10.2581117 L11.1830156,10.6335646 L10.4619134,9.03038532 L11.7565138,8.17309413 C11.656132,7.64019773 11.6461739,7.10295687 11.7190782,6.58086968 L10.3761645,5.78901282 L11.011514,4.15067424 L12.5447835,4.4516719 C12.8435326,4.01539826 13.2141041,3.6227461 13.6489369,3.29321352 L13.2663845,1.79865971 L14.8860066,1.08487833 L15.7447356,2.35545319 C16.2902287,2.24835946 16.8409411,2.23354031 17.3763437,2.30319537 L18.160624,1 Z M16.001823,5.65751761 C15.1073304,6.05172819 14.7050493,7.0890668 15.1033031,7.97447824 C15.5015569,8.85988969 16.5495349,9.25808667 17.4440274,8.8638761 C18.3385201,8.46966553 18.7408011,7.43232692 18.3425473,6.54691547 C17.9442935,5.66150402 16.8963155,5.26330704 16.001823,5.65751761 Z"/>
</svg>
