<svg xmlns="http://www.w3.org/2000/svg" width="16" height="16" viewBox="0 0 16 16" fill-rule="evenodd" >
  <path d="M11.3727083,2.96153846 L12.7660183,4.17272436 L11.6166409,5.4954911 C12.4650426,6.0651944 13.2373467,6.82907043 13.9061062,7.74703025 C14.0312979,7.91935484 14.0312979,8.16010242 13.9061062,8.33242701 C12.3718932,10.4358006 10.2927278,11.7307692 8,11.7307692 C7.44824375,11.7307692 6.90885593,11.6557714 6.38645527,11.5125219 L4.89330999,13.2292393 L3.5,12.0180534 L4.61733218,10.7324102 C3.67667013,10.1497621 2.82363704,9.33156077 2.09389383,8.32989283 C1.96870206,8.15756824 1.96870206,7.91682065 2.09389383,7.74449607 C3.62810678,5.64112243 5.70727217,4.34615385 8,4.34615385 C8.65425236,4.34615385 9.29111428,4.45160342 9.90288529,4.65125522 L11.3727083,2.96153846 Z M10.3127927,6.99516591 L7.24420027,10.5246009 C7.53221447,10.6179496 7.84240517,10.6594499 8.16446763,10.6385355 C9.41884014,10.5549073 10.4375575,9.50322053 10.518564,8.20825194 C10.540527,7.84721541 10.4913031,7.50085035 10.3840227,7.18262015 L10.3127927,6.99516591 Z M8.04680737,5.43354471 L7.83553237,5.43838762 C6.57870512,5.51948155 5.55998773,6.57116836 5.48143602,7.86867114 C5.44846975,8.4105842 5.57588582,8.91944277 5.81928166,9.34971766 L9.0279736,5.65882247 C8.72733903,5.52009627 8.39567569,5.44027885 8.04680737,5.43354471 L8.04680737,5.43354471 Z"/>
</svg>
