<svg xmlns="http://www.w3.org/2000/svg" xmlns:xlink="http://www.w3.org/1999/xlink" width="16" height="16" viewBox="0 0 16 16">
  <defs>
    <path id="info-a" d="M12.9497311,3.05026895 C15.683423,5.78396088 15.683423,10.2160391 12.9497311,12.9497311 C10.2160391,15.683423 5.78396088,15.683423 3.05026895,12.9497311 C0.316577017,10.2160391 0.316577017,5.78396088 3.05026895,3.05026895 C5.78396088,0.316577017 10.2160391,0.316577017 12.9497311,3.05026895 Z M3.87519249,3.87519249 C1.59709325,6.15329173 1.59709325,9.84670827 3.87519249,12.1248075 C6.15329173,14.4029068 9.84670827,14.4029068 12.1248075,12.1248075 C14.4029068,9.84670827 14.4029068,6.15329173 12.1248075,3.87519249 C9.84670827,1.59709325 6.15329173,1.59709325 3.87519249,3.87519249 Z M8.00233336,6.83099995 C8.32449961,6.83099995 8.58566675,7.09216703 8.58566675,7.41433328 L8.58566675,11.4976665 C8.58566675,11.7876162 8.37412141,12.0281565 8.09695314,12.073365 L8.00233339,12.0809999 C7.71238376,12.0809999 7.47184346,11.8694545 7.4266349,11.5922863 L7.41900005,11.4976665 L7.41900005,7.41433328 C7.41900005,7.12438365 7.63054539,6.88384335 7.90771365,6.83863479 L8.00233336,6.83099995 Z M8,3.91900005 C8.44607608,3.91900005 8.81418922,4.25279965 8.86818251,4.68424193 L8.875,4.79400002 C8.875,5.24007609 8.5412004,5.60818927 8.10975813,5.66218256 L8,5.66900005 C7.51675092,5.66900005 7.125,5.27724914 7.125,4.79400005 C7.125,4.31075097 7.51675092,3.91900005 8,3.91900005 Z"/>
  </defs>
  <use fill="#9B9B9B" xlink:href="#info-a"/>
</svg>
