<svg xmlns="http://www.w3.org/2000/svg" width="16" height="13" viewBox="0 0 16 13">
  <path fill-rule="evenodd" d="M10.0334176,7.81920094 L15.0071098,12.7928932 L13.5928963,14.2071068 L8.62671792,9.24092843 L6.80000305,11.0871582 L6.80000305,6 L11.8333893,6 L10.0334176,7.81920094 Z M14.8000031,9 L12.8000031,9 L12.8000031,4 L2.80000305,4 L2.80000305,12 L9.80000305,12 L9.80000305,14 L1.80000305,14 C1.2477183,14 0.800003052,13.5522847 0.800003052,13 L0.800003052,3 C0.800003052,2.44771525 1.2477183,2 1.80000305,2 L13.8000031,2 C14.3522878,2 14.8000031,2.44771525 14.8000031,3 L14.8000031,9 Z" transform="matrix(-1 0 0 1 15.807 -2)"/>
</svg>
