<svg xmlns="http://www.w3.org/2000/svg" width="24" height="24" viewBox="0 0 24 24">
  <g fill="none" fill-rule="evenodd">
    <polygon points="0 0 24 0 24 24 0 24"/>
    <path fill="#484C57" fill-rule="nonzero" d="M5.52,10.8 C4.464,10.8 3.6,11.61 3.6,12.6 C3.6,13.59 4.464,14.4 5.52,14.4 C6.576,14.4 7.44,13.59 7.44,12.6 C7.44,11.61 6.576,10.8 5.52,10.8 Z M18.48,10.8 C17.424,10.8 16.56,11.61 16.56,12.6 C16.56,13.59 17.424,14.4 18.48,14.4 C19.536,14.4 20.4,13.59 20.4,12.6 C20.4,11.61 19.536,10.8 18.48,10.8 Z M12,10.8 C10.944,10.8 10.08,11.61 10.08,12.6 C10.08,13.59 10.944,14.4 12,14.4 C13.056,14.4 13.92,13.59 13.92,12.6 C13.92,11.61 13.056,10.8 12,10.8 Z" transform="rotate(90 12 12.6)"/>
  </g>
</svg>
