<svg xmlns="http://www.w3.org/2000/svg" viewBox="0 0 5 15">
  <path fill-rule="evenodd" d="M2.5,4 C1.67157288,4 1,3.32842712 1,2.5 C1,1.67157288 1.67157288,1 2.5,1 C3.32842712,1 4,1.67157288 4,2.5 C4,3.32842712 3.32842712,4 2.5,4 Z M2.5,9 C1.67157288,9 1,8.32842712 1,7.5 C1,6.67157288 1.67157288,6 2.5,6 C3.32842712,6 4,6.67157288 4,7.5 C4,8.32842712 3.32842712,9 2.5,9 Z M2.5,14 C1.67157288,14 1,13.3284271 1,12.5 C1,11.6715729 1.67157288,11 2.5,11 C3.32842712,11 4,11.6715729 4,12.5 C4,13.3284271 3.32842712,14 2.5,14 Z"/>
</svg>
