<svg xmlns="http://www.w3.org/2000/svg" width="16" height="16" viewBox="0 0 16 16">
  <path fill-rule="evenodd" d="M10.9487924,9.73457887 L14.7982756,13.584062 L13.384062,14.9982756 L9.4977726,11.1119862 C8.63544819,11.6736414 7.60583666,12 6.5,12 C3.46243388,12 1,9.53756612 1,6.5 C1,3.46243388 3.46243388,1 6.5,1 C9.53756612,1 12,3.46243388 12,6.5 C12,7.70895984 11.6099351,8.82681515 10.9487924,9.73457887 L10.9487924,9.73457887 Z M6.5,10 C8.43299662,10 10,8.43299662 10,6.5 C10,4.56700338 8.43299662,3 6.5,3 C4.56700338,3 3,4.56700338 3,6.5 C3,8.43299662 4.56700338,10 6.5,10 Z"/>
</svg>
