<svg xmlns="http://www.w3.org/2000/svg" width="24" height="24" viewBox="0 0 24 24">
  <path fill-rule="evenodd" d="M3.6602,21.7 C3.2917,21.7 3,21.4226 3,21.0721 C3,17.7721 5.825,15.1 9.2794,15.1 L15.671,15.1 C19.1254,15.1 21.9504,17.7721 21.9504,21.0721 C21.9504,21.4226 21.6587,21.7 21.2902,21.7 L21.2902,21.7 L3.6602,21.7 Z M12.35,12.9 C9.6169,12.9 7.4,10.6645 7.4,7.9424 C7.4,5.2203 9.6169,3 12.35,3 C15.0831,3 17.3,5.2051 17.3,7.9424 C17.3,10.6797 15.0831,12.9 12.35,12.9 L12.35,12.9 Z"/>
</svg>
