<svg xmlns="http://www.w3.org/2000/svg" width="24" height="24" viewBox="0 0 24 24">
  <g fill="none">
    <rect width="24" height="24"/>
    <path fill="#000" d="M18.3639844,14.6360156 C17.3837227,13.6557891 16.216957,12.9301289 14.9439492,12.4908516 C16.3073789,11.551793 17.203125,9.98020312 17.203125,8.203125 C17.203125,5.33412891 14.8689961,3 12,3 C9.13100391,3 6.796875,5.33412891 6.796875,8.203125 C6.796875,9.98020312 7.69262109,11.551793 9.05608594,12.4908516 C7.78307812,12.9301289 6.6163125,13.6557891 5.63605078,14.6360156 C3.93617578,16.3359258 3,18.5960156 3,21 L4.40625,21 C4.40625,16.8127852 7.81278516,13.40625 12,13.40625 C16.1872148,13.40625 19.59375,16.8127852 19.59375,21 L21,21 C21,18.5960156 20.0638242,16.3359258 18.3639844,14.6360156 Z M12,12 C9.90641016,12 8.203125,10.29675 8.203125,8.203125 C8.203125,6.1095 9.90641016,4.40625 12,4.40625 C14.0935898,4.40625 15.796875,6.1095 15.796875,8.203125 C15.796875,10.29675 14.0935898,12 12,12 Z"/>
  </g>
</svg>
