<svg xmlns="http://www.w3.org/2000/svg" xmlns:xlink="http://www.w3.org/1999/xlink" width="220" height="69" viewBox="0 0 220 69">
    <defs>
        <filter id="prefix__a" width="101.8%" height="102.6%" x="-.9%" y="-1.3%" filterUnits="objectBoundingBox">
            <feOffset in="SourceAlpha" result="shadowOffsetOuter1"/>
            <feGaussianBlur in="shadowOffsetOuter1" result="shadowBlurOuter1" stdDeviation="4"/>
            <feColorMatrix in="shadowBlurOuter1" values="0 0 0 0 0 0 0 0 0 0 0 0 0 0 0 0 0 0 0.0045 0"/>
        </filter>
        <rect id="prefix__b" width="1342" height="921" x="47" y="47" rx="3"/>
    </defs>
    <g fill="none" fill-rule="evenodd" transform="translate(-1108 -433)">
        <path fill="#434343" d="M0 0H1440V1024H0z"/>
        <use fill="#000" filter="url(#prefix__a)" xlink:href="#prefix__b"/>
        <use fill="#FFF" xlink:href="#prefix__b"/>
        <g>
            <g transform="translate(1088 128) translate(0 290)">
                <rect width="261" height="125" x="-.5" y="-.5" fill="#FFF" stroke="#D3D3D3" rx="3"/>
                <path fill="#D8D8D8" d="M111.68 47.19c.616 0 .616 0 1.116.143.501.143.501.143.858.413.358.269.358.269.55.643.193.374.193.374.193.836 0 .363 0 .363-.116.66-.115.297-.115.297-.319.517-.203.22-.203.22-.467.358-.264.137-.264.137-.561.192v.066l.167.038c.247.065.247.065.466.177.291.148.291.148.506.379.214.231.214.231.335.544.121.314.121.314.121.71 0 .517 0 .517-.209.935-.209.418-.209.418-.594.715s-.385.297-.924.456c-.539.16-.539.16-1.188.16-.583 0-.583 0-1.034-.121-.451-.121-.451-.121-.787-.325-.335-.203-.335-.203-.583-.467-.247-.264-.247-.264-.434-.561l1.221-.946.106.182c.22.352.22.352.516.593.368.303.368.303.995.303.561 0 .561 0 .874-.28.314-.281.314-.281.314-.765v-.066l-.007-.13c-.044-.377-.044-.377-.35-.58-.358-.236-.358-.236-.985-.236h-.693v-1.375h.715l.17-.005c.486-.029.486-.029.727-.232.28-.236.28-.236.28-.588v-.077l-.007-.135c-.038-.325-.038-.325-.263-.536-.269-.253-.269-.253-.764-.253-.462 0-.462 0-.869.237-.407.236-.407.236-.693.676l-1.034-.968.15-.185c.154-.18.154-.18.323-.337.253-.237.253-.237.572-.407.319-.171.319-.171.715-.265.396-.093.396-.093.891-.093zm25.014.132v1.441h-3.487l-.165 2.431h.088l.076-.178c.08-.172.08-.172.172-.322.137-.226.137-.226.324-.386.187-.159.187-.159.451-.247s.264-.088.627-.088c.495 0 .495 0 .924.165.429.165.429.165.748.479.319.313.319.313.506.77.187.456.187.456.187 1.028 0 .583 0 .583-.193 1.084-.192.5-.192.5-.571.863-.38.363-.38.363-.93.566-.55.204-.55.204-1.254.204-.561 0-.561 0-.99-.121-.429-.121-.429-.121-.759-.325-.33-.203-.33-.203-.572-.467-.242-.264-.242-.264-.418-.561l1.199-.946.105.175c.218.339.218.339.5.59.352.313.352.313.946.313s.594 0 .897-.341c.302-.341.302-.341.302-.902v-.088l-.006-.146c-.038-.426-.038-.426-.302-.69-.308-.308-.308-.308-.847-.308-.451 0-.451 0-.743.181-.291.182-.291.182-.445.358l-1.353-.187.286-4.345h4.697zm-31.405-.132c.627 0 .627 0 1.111.176s.484.176.82.484c.335.308.335.308.511.731.176.424.176.424.176.919 0 .495 0 .495-.165.902-.165.407-.165.407-.446.764-.28.358-.28.358-.654.677-.374.319-.374.319-.781.649l-1.43 1.122h3.63V55h-5.434v-1.507l2.365-2.024.153-.134c.221-.197.221-.197.386-.367.22-.225.22-.225.357-.44.138-.214.138-.214.198-.423.061-.209.061-.209.061-.451V49.5l-.006-.107c-.016-.154-.016-.154-.082-.278-.088-.165-.088-.165-.231-.275-.143-.11-.143-.11-.325-.165-.181-.055-.181-.055-.368-.055-.275 0-.275 0-.479.088-.203.088-.203.088-.352.236-.148.149-.148.149-.247.341-.099.193-.099.193-.154.413l-1.441-.55.072-.196c.118-.29.118-.29.291-.557.231-.358.231-.358.578-.628.346-.269.346-.269.819-.423.473-.154.473-.154 1.067-.154zm12.298-.33v3.344h.066l.07-.176c.161-.341.161-.341.469-.605.385-.33.385-.33 1.067-.33.891 0 .891 0 1.347.594.457.594.457.594.457 1.694V55h-1.628v-3.487l-.005-.179c-.024-.427-.024-.427-.171-.652-.176-.269-.176-.269-.627-.269-.198 0-.198 0-.385.05-.187.049-.187.049-.335.159-.149.11-.149.11-.237.27-.088.159-.088.159-.088.368V55h-1.628v-8.14h1.628zm12.045.462v4.928h.968v1.276h-.968V55h-1.573v-1.474h-3.377v-1.408l2.992-4.796h1.958zm15.334 1.771c.836 0 .836 0 1.281.594.446.594.446.594.446 1.694V55h-1.628v-3.487l-.004-.152c-.053-.948-.053-.948-.788-.948-.363 0-.363 0-.66.209-.297.209-.297.209-.297.638V55h-1.628v-3.487l-.004-.152c-.053-.948-.053-.948-.788-.948-.176 0-.176 0-.346.05-.171.049-.171.049-.309.159-.137.11-.137.11-.22.27-.082.159-.082.159-.082.368V55h-1.628v-5.775h1.628v.979h.066l.07-.18c.159-.347.159-.347.458-.607.374-.324.374-.324 1.023-.324.594 0 .594 0 1.012.297.418.297.418.297.605.869h.033l.06-.158c.07-.155.07-.155.177-.298.159-.215.159-.215.39-.369s.231-.154.517-.247c.286-.094.286-.094.616-.094zm4.807.132V55h-1.628v-5.775h1.628zm4.818-.132c.891 0 .891 0 1.347.594.457.594.457.594.457 1.694V55h-1.628v-3.487l-.005-.179c-.024-.427-.024-.427-.171-.652-.176-.269-.176-.269-.627-.269-.198 0-.198 0-.385.05-.187.049-.187.049-.335.159-.149.11-.149.11-.237.27-.088.159-.088.159-.088.368V55h-1.628v-5.775h1.628v.979h.066l.07-.176c.161-.341.161-.341.469-.605.385-.33.385-.33 1.067-.33zm-26.532-.066h-.11l-1.947 3.223h2.057v-3.223zm20.9-2.266c.495 0 .495 0 .72.225.226.226.226.226.226.578v.242l-.009.136c-.036.261-.036.261-.216.441-.226.226-.226.226-.721.226s-.495 0-.72-.226c-.226-.225-.226-.225-.226-.577v-.242l.009-.136c.036-.261.036-.261.216-.441.226-.226.226-.226.721-.226z"/>
            </g>
        </g>
    </g>
</svg>
