<svg width="85" height="80" viewBox="0 0 85 80" fill="none" xmlns="http://www.w3.org/2000/svg">
<g id="IAM-identity">
<path id="Vector" fill-rule="evenodd" clip-rule="evenodd" d="M57.5243 16.0405L57.9516 16.0803L58.8432 16.2335L59.6947 16.4234L60.5089 16.7325L61.2857 17.1154L62.0227 17.5379L62.7193 18.0739L63.3386 18.6496L63.9206 19.2622L64.4251 19.9513L64.8895 20.6432L65.2393 21.4486L65.5489 22.2541L65.7811 23.0963L65.8988 23.9415L65.936 24.4009L65.9761 24.8603L65.936 25.3197L65.8988 25.7423L65.7811 26.6243L65.5489 27.4694L65.2393 28.2747L64.8895 29.0405L64.4251 29.7693L63.9206 30.4585L63.3386 31.0738L62.7193 31.6467L62.0227 32.1458L61.2857 32.6052L60.5089 32.9909L59.6947 33.2575L58.8432 33.4873L57.9516 33.6432H57.5243L57.0599 33.6801L56.5955 33.6432H56.1281L55.2365 33.4873L54.3851 33.2575L53.5709 32.9909L52.7967 32.6052L52.06 32.1458L51.4005 31.6467L50.7411 31.0738L50.1591 30.4585L49.6545 29.7693L49.2302 29.0405L48.8404 28.2747L48.5307 27.4694L48.3386 26.6243L48.1809 25.7423L48.1437 25.3197V24.4009L48.1809 23.9415L48.3386 23.0963L48.5307 22.2541L48.8404 21.4486L49.2302 20.6432L49.6545 19.9513L50.1591 19.2622L50.7411 18.6496L51.4005 18.0739L52.06 17.5379L52.7967 17.1154L53.5709 16.7325L54.3851 16.4234L55.2365 16.2335L56.1281 16.0803L56.5955 16.0405H57.5243V16.0405ZM49.0353 37.9738L46.3203 41.6179V67.1187H67.7967V41.6179L65.0846 37.9738H49.0353V37.9738Z" fill="#BBBCBC"/>
<path id="Vector_2" fill-rule="evenodd" clip-rule="evenodd" d="M37.5065 23.7412V12.8813H19.8715V23.7412H16.2712V42.2182H41.1068V23.7412H37.5065V23.7412ZM31.1486 30.6706V30.9644L31.098 31.2603L30.9989 31.5292L30.8999 31.7752L30.7504 32.021L30.5776 32.2419L30.3775 32.4379L30.1795 32.6358V36.0745L30.1542 36.2224V36.3704L30.0552 36.6393L29.9309 36.9102L29.7329 37.1061L29.5328 37.3041L29.2609 37.427L28.9871 37.525L28.8375 37.55H28.5405L28.3909 37.525L28.117 37.427L27.8685 37.3041L27.6452 37.1061L27.4724 36.9102L27.3229 36.6393L27.2491 36.3704L27.2239 36.2224L27.1985 36.0745V32.6358L27.0006 32.4379L26.8025 32.2419L26.6277 32.021L26.5034 31.7752L26.379 31.5292L26.3053 31.2603L26.2547 30.9644L26.2294 30.6706V30.4247L26.2801 30.1788L26.3306 29.9579L26.4297 29.7369L26.5287 29.516L26.653 29.3181L26.8025 29.1221L26.95 28.9492L27.1249 28.8034L27.3229 28.6554L27.5209 28.5324L27.7463 28.4345L27.9696 28.3594L28.193 28.2865L28.4416 28.2615L28.6901 28.2365L28.9366 28.2615L29.1852 28.2865L29.4337 28.3594L29.6571 28.4345L29.8573 28.5324L30.0806 28.6554L30.2533 28.8034L30.4282 28.9492L30.6009 29.1221L30.7252 29.3181L30.8495 29.516L30.9738 29.7369L31.0496 29.9579L31.098 30.1788L31.1486 30.4247V30.6706H31.1486ZM34.5508 17.8455V23.7412H22.8306V15.8053H34.5508V17.8455Z" fill="#FC5D0D"/>
</g>
</svg>
