<svg xmlns="http://www.w3.org/2000/svg" width="16" height="16" viewBox="0 0 16 16">
  <path fill-rule="evenodd" d="M12,13 L12,3 C12,2.44771525 11.5522848,2 11,2 L5,2 L5,1 C5,0.44771525 5.44771525,1.01453063e-16 6,0 L14,0 C14.5522848,8.7960173e-16 15,0.44771525 15,1 L15,12 C15,12.5522848 14.5522848,13 14,13 L12,13 Z M2,3 L10,3 C10.5522848,3 11,3.44771525 11,4 L11,15 C11,15.5522848 10.5522848,16 10,16 L2,16 C1.44771525,16 1,15.5522848 1,15 L1,4 C1,3.44771525 1.44771525,3 2,3 Z M3,6 L3,7 L9,7 L9,6 L3,6 Z M3,9 L3,10 L9,10 L9,9 L3,9 Z M3,12 L3,13 L9,13 L9,12 L3,12 Z"/>
</svg>
