<svg xmlns="http://www.w3.org/2000/svg" width="28" height="20" viewBox="0 0 28 20">
  <g fill="none" fill-rule="evenodd" transform="translate(-25 -591)">
    <rect width="865" height="780" fill="#FFF"/>
    <g fill-rule="nonzero" transform="translate(25 591)">
      <path fill="#6A727E" d="M0,0 L28,0 L28,20 L0,20 L0,0 Z M2,2 L2,18 L26,18 L26,2 L2,2 Z"/>
      <rect width="8" height="8" x="15.5" y="7.5" fill="#FFF" stroke="#9CA4B0"/>
      <rect width="13" height="2" x="4" y="4" fill="#9CA4B0"/>
      <rect width="9" height="8" x="4.5" y="7.5" fill="#FFF" stroke="#9CA4B0"/>
      <polyline stroke="#6A727E" points="6 13 8.489 10.566 9.857 12.303 12 10"/>
      <rect width="2" height="1" x="17" y="9" fill="#6A727E"/>
      <rect width="2" height="1" x="20" y="9" fill="#6A727E"/>
      <rect width="2" height="1" x="17" y="11" fill="#6A727E"/>
      <rect width="2" height="1" x="20" y="11" fill="#6A727E"/>
      <rect width="2" height="1" x="17" y="13" fill="#6A727E"/>
      <rect width="2" height="1" x="20" y="13" fill="#6A727E"/>
    </g>
  </g>
</svg>
