<svg xmlns="http://www.w3.org/2000/svg" width="28" height="20" viewBox="0 0 28 20">
  <g fill="none" fill-rule="evenodd" transform="translate(-23 -392)">
    <rect width="865" height="780" fill="#FFF"/>
    <g fill="#6A727E" fill-rule="nonzero" transform="translate(23 392)">
      <path d="M0,0 L28,0 L28,20 L0,20 L0,0 Z M2,2 L2,18 L26,18 L26,2 L2,2 Z"/>
      <path d="M4,4 L9,4 L9,6 L4,6 L4,4 Z M19,4 L24,4 L24,6 L19,6 L19,4 Z M11,4 L17,4 L17,6 L11,6 L11,4 Z M4,8 L9,8 L9,9 L4,9 L4,8 Z M4,10 L8,10 L8,11 L4,11 L4,10 Z M4,12 L9,12 L9,13 L4,13 L4,12 Z M4,14 L8,14 L8,15 L4,15 L4,14 Z M11,14 L17,14 L17,15 L11,15 L11,14 Z M19,14 L23,14 L23,15 L19,15 L19,14 Z M11,8 L16,8 L16,9 L11,9 L11,8 Z M11,10 L17,10 L17,11 L11,11 L11,10 Z M11,12 L16,12 L16,13 L11,13 L11,12 Z M19,8 L24,8 L24,9 L19,9 L19,8 Z M19,10 L23,10 L23,11 L19,11 L19,10 Z M19,12 L24,12 L24,13 L19,13 L19,12 Z"/>
    </g>
  </g>
</svg>
