<svg xmlns="http://www.w3.org/2000/svg" viewBox="0 0 143.6 74"><path d="M135.2.9H8.4C4.2.9.8 4.3.8 8.5v36c0 4.2 3.4 7.6 7.6 7.6h67.3v11.4l1.4-.6 8.2-3.4L90.5 72l.4.9.9-.4 6.7-2.7.9-.4-.4-.9-5.2-12.6 9.1-3.8h32.3c4.2 0 7.6-3.4 7.6-7.6v-36c0-4.2-3.4-7.6-7.6-7.6zm-82.9 31c0-.6.4-1 1-1h9.5c.6 0 1 .4 1 1s-.4 1-1 1h-9.5c-.5 0-1-.4-1-1zm15.6 11.4L61.2 50c-.2.2-.5.3-.7.3s-.5-.1-.7-.3c-.4-.4-.4-1 0-1.4l6.7-6.7c.4-.4 1-.4 1.4 0s.4 1 0 1.4zm0-21.3c-.2.2-.5.3-.7.3s-.5-.1-.7-.3l-6.7-6.7c-.4-.4-.4-1 0-1.4s1-.4 1.4 0l6.7 6.7c.4.4.4 1.1 0 1.4zm19.8-1.4l6.7-6.7c.4-.4 1-.4 1.4 0s.4 1 0 1.4L89.1 22c-.2.2-.5.3-.7.3s-.5-.1-.7-.3c-.4-.3-.4-1 0-1.4zm4.1 34.5l5.6 13.5-5.7 2.4-5.6-13.5-8.9 3.7V28.4l23.9 22.7-9.3 4zm-15-47.7c0-.6.4-1 1-1s1 .4 1 1v9.5c0 .6-.4 1-1 1s-1-.4-1-1V7.4zm25.5 25.5h-9.5c-.6 0-1-.4-1-1s.4-1 1-1h9.5c.6 0 1 .4 1 1s-.4 1-1 1zM123.8 44l-8.5-15.1h17L123.8 44zm-8.5-20l8.5-15.1 8.5 15.1h-17z" fill="#fff"/></svg>