<svg xmlns="http://www.w3.org/2000/svg" width="36" height="28" viewBox="0 0 36 28">
  <g fill="none">
    <path fill="#6A727E" d="M4,8 L4,4 L8,4 L8,0 L36,0 L36,20 L32,20 L32,24 L28,24 L28,28 L0,28 L0,8 L4,8 Z M6,8 L28,8 L28,22 L30,22 L30,6 L6,6 L6,8 Z M10,4 L32,4 L32,18 L34,18 L34,2 L10,2 L10,4 Z M2,10 L2,26 L26,26 L26,10 L2,10 Z"/>
    <rect width="8" height="8" x="15.5" y="15.5" fill="#FFF" stroke="#9CA4B0"/>
    <rect width="13" height="2" x="4" y="12" fill="#9CA4B0"/>
    <rect width="9" height="8" x="4.5" y="15.5" fill="#FFF" stroke="#9CA4B0"/>
    <polyline stroke="#6A727E" points="6 21 8.489 18.566 9.857 20.303 12 18"/>
    <rect width="2" height="1" x="17" y="17" fill="#6A727E"/>
    <rect width="2" height="1" x="20" y="17" fill="#6A727E"/>
    <rect width="2" height="1" x="17" y="19" fill="#6A727E"/>
    <rect width="2" height="1" x="20" y="19" fill="#6A727E"/>
    <rect width="2" height="1" x="17" y="21" fill="#6A727E"/>
    <rect width="2" height="1" x="20" y="21" fill="#6A727E"/>
  </g>
</svg>
