<svg xmlns="http://www.w3.org/2000/svg" width="28" height="20" viewBox="0 0 28 20">
  <g fill="none" fill-rule="evenodd">
    <path fill="#6A727E" fill-rule="nonzero" d="M0,0 L28,0 L28,20 L0,20 L0,0 Z M2,2 L2,18 L26,18 L26,2 L2,2 Z"/>
    <path fill="#9CA4B0" d="M14.576,11.204 L12.896,11.204 L12.896,9.368 C14.156,9.32 14.792,8.984 14.792,8.096 L14.792,7.928 C14.792,7.316 14.396,6.992 13.82,6.992 C13.196,6.992 12.776,7.424 12.632,8.012 L11.168,7.4 C11.444,6.44 12.248,5.48 13.88,5.48 C15.56,5.48 16.676,6.488 16.676,7.952 C16.676,9.296 15.704,10.16 14.576,10.34 L14.576,11.204 Z M13.76,14.144 C13.004,14.144 12.692,13.748 12.692,13.232 L12.692,12.944 C12.692,12.428 13.004,12.032 13.76,12.032 C14.516,12.032 14.828,12.428 14.828,12.944 L14.828,13.232 C14.828,13.748 14.516,14.144 13.76,14.144 Z"/>
  </g>
</svg>
