<svg xmlns="http://www.w3.org/2000/svg" width="32" height="24" viewBox="0 0 32 24">
  <g fill="#6A727E">
    <path d="M4,4 L4,0 L32,0 L32,20 L28,20 L28,24 L0,24 L0,4 L4,4 Z M6,4 L28,4 L28,18 L30,18 L30,2 L6,2 L6,4 Z M2,6 L2,22 L26,22 L26,6 L2,6 Z"/>
    <rect width="5" height="2" x="4" y="8"/>
    <rect width="5" height="2" x="19" y="8"/>
    <rect width="6" height="2" x="11" y="8"/>
    <rect width="5" height="1" x="4" y="12"/>
    <rect width="4" height="1" x="4" y="14"/>
    <rect width="5" height="1" x="4" y="16"/>
    <rect width="4" height="1" x="4" y="18"/>
    <rect width="6" height="1" x="11" y="18"/>
    <rect width="4" height="1" x="19" y="18"/>
    <rect width="5" height="1" x="11" y="12"/>
    <rect width="6" height="1" x="11" y="14"/>
    <rect width="5" height="1" x="11" y="16"/>
    <rect width="5" height="1" x="19" y="12"/>
    <rect width="4" height="1" x="19" y="14"/>
    <rect width="5" height="1" x="19" y="16"/>
  </g>
</svg>
