<svg xmlns="http://www.w3.org/2000/svg" width="28" height="20" viewBox="0 0 28 20">
  <title>Heatmap</title>
  <g fill="none">
    <path fill="#6A727E" d="M0,0 L28,0 L28,20 L0,20 L0,0 Z M2,2 L2,18 L26,18 L26,2 L2,2 Z"/>
    <path fill="#C2C8D1" d="M5.04539276,8.72778467 C5.42724028,5.50192744 8.17144191,3 11.5,3 C15.0898509,3 18,5.91014913 18,9.5 C18,13.0898509 15.0898509,16 11.5,16 C11.1366312,16 10.7802264,15.9701834 10.4330988,15.9128634 C9.6454065,16.5904458 8.62053151,17 7.5,17 C5.01471863,17 3,14.9852814 3,12.5 C3,10.9202996 3.81397807,9.53071405 5.04539276,8.72778467 Z M21.5,16 C20.1192881,16 19,14.8807119 19,13.5 C19,12.1192881 20.1192881,11 21.5,11 C22.8807119,11 24,12.1192881 24,13.5 C24,14.8807119 22.8807119,16 21.5,16 Z"/>
    <path fill="#6A727E" d="M8.18290758,10.6196237 C8.06429657,10.2680878 8,9.89155254 8,9.5 C8,7.56700338 9.56700338,6 11.5,6 C13.4329966,6 15,7.56700338 15,9.5 C15,11.4329966 13.4329966,13 11.5,13 C10.7545499,13 10.0635311,12.7669523 9.49582595,12.3697394 C9.49859442,12.4128028 9.5,12.4562373 9.5,12.5 C9.5,13.6045695 8.6045695,14.5 7.5,14.5 C6.3954305,14.5 5.5,13.6045695 5.5,12.5 C5.5,11.3954305 6.3954305,10.5 7.5,10.5 C7.7398379,10.5 7.96981562,10.5422164 8.18290758,10.6196237 Z M21.5,15 C20.6715729,15 20,14.3284271 20,13.5 C20,12.6715729 20.6715729,12 21.5,12 C22.3284271,12 23,12.6715729 23,13.5 C23,14.3284271 22.3284271,15 21.5,15 Z"/>
  </g>
</svg>
