<svg xmlns="http://www.w3.org/2000/svg" width="32" height="24" viewBox="0 0 32 24">
  <g fill="none" fill-rule="evenodd">
    <path fill="#6A727E" fill-rule="nonzero" d="M4,4 L4,0 L32,0 L32,20 L28,20 L28,24 L0,24 L0,4 L4,4 Z M6,4 L28,4 L28,18 L30,18 L30,2 L6,2 L6,4 Z M2,6 L2,22 L26,22 L26,6 L2,6 Z"/>
    <path fill="#9CA4B0" d="M14.54,18.376 L8.708,18.376 L8.708,16.924 L10.964,16.924 L10.964,11.308 L10.856,11.308 L9.152,13.54 L8,12.64 L10.004,10 L12.764,10 L12.764,16.924 L14.54,16.924 L14.54,18.376 Z M18.668,18.376 L16.772,18.376 L19.58,11.464 L16.964,11.464 L16.964,12.988 L15.44,12.988 L15.44,10 L21.368,10 L21.368,11.56 L18.668,18.376 Z"/>
  </g>
</svg>
