<svg xmlns="http://www.w3.org/2000/svg" width="32" height="24" viewBox="0 0 32 24">
  <g fill="none">
    <path fill="#6A727E" d="M4,4 L4,0 L32,0 L32,20 L28,20 L28,24 L0,24 L0,4 L4,4 Z M6,4 L28,4 L28,18 L30,18 L30,2 L6,2 L6,4 Z M2,6 L2,22 L26,22 L26,6 L2,6 Z"/>
    <rect width="3" height="4" x="4" y="16" fill="#9CA4B0"/>
    <rect width="3" height="8" x="8" y="12" fill="#9CA4B0"/>
    <rect width="3" height="5" x="12" y="15" fill="#9CA4B0"/>
    <rect width="3" height="7" x="16" y="13" fill="#9CA4B0"/>
    <rect width="3" height="12" x="20" y="8" fill="#9CA4B0"/>
  </g>
</svg>
