<svg xmlns="http://www.w3.org/2000/svg" width="28" height="20" viewBox="0 0 28 20">
  <title>number chart</title>
  <g fill="none" fill-rule="evenodd" transform="translate(-23 -345)">
    <g transform="translate(23 345)">
      <path fill="#6A727E" fill-rule="nonzero" d="M0,0 L28,0 L28,20 L0,20 L0,0 Z M2,2 L2,18 L26,18 L26,2 L2,2 Z"/>
      <path fill="#9CA4B0" d="M14.26,14 L8.428,14 L8.428,12.548 L10.684,12.548 L10.684,6.932 L10.576,6.932 L8.872,9.164 L7.72,8.264 L9.724,5.624 L12.484,5.624 L12.484,12.548 L14.26,12.548 L14.26,14 Z M18.388,14 L16.492,14 L19.3,7.088 L16.684,7.088 L16.684,8.612 L15.16,8.612 L15.16,5.624 L21.088,5.624 L21.088,7.184 L18.388,14 Z"/>
    </g>
  </g>
</svg>
