<svg xmlns="http://www.w3.org/2000/svg" width="404" height="275" fill="none"><path fill="#F4F4F4" d="M103.7 5.7a5.7 5.7 0 0 1 5.7-5.7h288.9a5.7 5.7 0 0 1 5.7 5.7v234.76a5.7 5.7 0 0 1-5.7 5.7H109.4a5.7 5.7 0 0 1-5.7-5.7V5.7Z"/><path fill="#E5E5E5" d="M103.7 13.68h72.37v38.74h-72.36V13.68Z"/><path fill="#8D8D8D" d="M109.97 21.37c0-1.1.9-2 2-2h50.14a2 2 0 0 1 0 4h-50.14a2 2 0 0 1-2-2Zm80.35 0c0-1.1.9-2 2-2h89.45a2 2 0 1 1 0 4h-89.46a2 2 0 0 1-2-2Zm-80.35 7.41c0-1.1.9-2 2-2h23.93a2 2 0 1 1 0 3.99h-23.93a2 2 0 0 1-2-2Zm80.35 0c0-1.1.9-2 2-2h44.44a2 2 0 0 1 0 3.99H192.3a2 2 0 0 1-2-2Z"/><path fill="#fff" d="M103.7 52.42h72.37v38.75h-72.36V52.42Z"/><path fill="#8D8D8D" d="M109.97 60.12c0-1.1.9-2 2-2h50.14a2 2 0 0 1 0 3.99h-50.14a2 2 0 0 1-2-2Zm0 7.4c0-1.1.9-2 2-2h23.93a2 2 0 1 1 0 4h-23.93a2 2 0 0 1-2-2Z"/><path fill="#fff" d="M103.7 91.17h72.37v38.75h-72.36V91.17Z"/><path fill="#8D8D8D" d="M109.97 98.86c0-1.1.9-2 2-2h50.14a2 2 0 0 1 0 4h-50.14a2 2 0 0 1-2-2Zm0 7.41c0-1.1.9-2 2-2h23.93a2 2 0 1 1 0 4h-23.93a2 2 0 0 1-2-2Z"/><path fill="#fff" d="M103.7 129.92h72.37v38.75h-72.36v-38.75Z"/><path fill="#8D8D8D" d="M109.97 137.61c0-1.1.9-2 2-2h50.14a2 2 0 0 1 0 4h-50.14a2 2 0 0 1-2-2Zm0 7.41c0-1.1.9-2 2-2h23.93a2 2 0 1 1 0 4h-23.93a2 2 0 0 1-2-2Z"/><path fill="#fff" d="M103.7 168.67h72.37v38.74h-72.36v-38.74Z"/><path fill="#8D8D8D" d="M109.97 176.36c0-1.1.9-2 2-2h50.14a2 2 0 0 1 0 4h-50.14a2 2 0 0 1-2-2Zm0 7.41c0-1.1.9-2 2-2h23.93a2 2 0 1 1 0 3.99h-23.93a2 2 0 0 1-2-2Z"/><path fill="#fff" d="M103.7 207.41h72.37v38.75h-72.36v-38.75Z"/><path fill="#8D8D8D" d="M109.97 215.1a2 2 0 0 1 2-1.99h50.14a2 2 0 0 1 0 3.99h-50.14a2 2 0 0 1-2-2Zm0 7.41c0-1.1.9-2 2-2h23.93a2 2 0 1 1 0 4h-23.93a2 2 0 0 1-2-2Z"/><path fill="#C6C6C6" d="M103.7 5.7a5.7 5.7 0 0 1 5.7-5.7h288.9a5.7 5.7 0 0 1 5.7 5.7v7.98H103.7V5.7Z"/><path fill="#0F62FE" d="M357.85 26.21a2.85 2.85 0 0 1 2.84-2.85h24.5a2.85 2.85 0 0 1 2.86 2.85v1.14a2.85 2.85 0 0 1-2.85 2.85h-24.5a2.85 2.85 0 0 1-2.85-2.85v-1.14Z"/><path fill="#fff" d="M191.46 41.6h196.59v204.56h-196.6V41.6Z"/><path fill="#F4F4F4" d="M0 87.18a5.7 5.7 0 0 1 5.7-5.7h288.9a5.7 5.7 0 0 1 5.7 5.7v181.77a5.7 5.7 0 0 1-5.7 5.7H5.7a5.7 5.7 0 0 1-5.7-5.7V87.18Z"/><path fill="#C6C6C6" d="M9.12 107.13a2.85 2.85 0 0 1 2.85-2.85h66.66a2.85 2.85 0 0 1 2.85 2.85v33.05a2.85 2.85 0 0 1-2.85 2.84H11.97a2.85 2.85 0 0 1-2.85-2.84v-33.05Z"/><path fill="#0F62FE" d="M15.38 134.48a2.85 2.85 0 0 1 2.85-2.85h24.5a2.85 2.85 0 0 1 2.86 2.85v1.14a2.85 2.85 0 0 1-2.85 2.84h-24.5a2.85 2.85 0 0 1-2.85-2.84v-1.14Z"/><path fill="#8D8D8D" d="M15.38 111.97c0-1.1.9-2 2-2h50.14a2 2 0 0 1 0 4H17.38a2 2 0 0 1-2-2Zm0 7.41c0-1.1.9-2 2-2H41.3a2 2 0 0 1 0 4H17.38a2 2 0 0 1-2-2Z"/><path fill="#C6C6C6" d="M88.32 107.13a2.85 2.85 0 0 1 2.85-2.85h66.67a2.85 2.85 0 0 1 2.85 2.85v33.05a2.85 2.85 0 0 1-2.85 2.84H91.17a2.85 2.85 0 0 1-2.85-2.84v-33.05Z"/><path fill="#0F62FE" d="M94.59 134.48a2.85 2.85 0 0 1 2.85-2.85h24.5a2.85 2.85 0 0 1 2.85 2.85v1.14a2.85 2.85 0 0 1-2.85 2.84h-24.5a2.85 2.85 0 0 1-2.85-2.84v-1.14Z"/><path fill="#8D8D8D" d="M94.59 111.97c0-1.1.9-2 2-2h50.14a2 2 0 0 1 0 4H96.58a2 2 0 0 1-1.99-2Zm0 7.41c0-1.1.9-2 2-2h23.93a2 2 0 1 1 0 4H96.58a2 2 0 0 1-1.99-2Z"/><path fill="#C6C6C6" d="M167.53 107.13a2.85 2.85 0 0 1 2.84-2.85h66.67a2.85 2.85 0 0 1 2.85 2.85v33.05a2.85 2.85 0 0 1-2.85 2.84h-66.66a2.85 2.85 0 0 1-2.85-2.84v-33.05Z"/><path fill="#0F62FE" d="M173.8 134.48a2.85 2.85 0 0 1 2.84-2.85h24.5a2.85 2.85 0 0 1 2.85 2.85v1.14a2.85 2.85 0 0 1-2.84 2.84h-24.5a2.85 2.85 0 0 1-2.86-2.84v-1.14Z"/><path fill="#8D8D8D" d="M173.8 111.97a2 2 0 0 1 1.99-2h50.14a2 2 0 1 1 0 4H175.8a2 2 0 0 1-2-2Zm0 7.41a2 2 0 0 1 1.99-2h23.93a2 2 0 0 1 0 4H175.8a2 2 0 0 1-2-2Z"/><path fill="#C6C6C6" d="M9.12 152.71a2.85 2.85 0 0 1 2.85-2.85h66.66a2.85 2.85 0 0 1 2.85 2.85v33.05a2.85 2.85 0 0 1-2.85 2.85H11.97a2.85 2.85 0 0 1-2.85-2.85v-33.05Z"/><path fill="#0F62FE" d="M15.38 180.06a2.85 2.85 0 0 1 2.85-2.85h24.5a2.85 2.85 0 0 1 2.86 2.85v1.14a2.85 2.85 0 0 1-2.85 2.85h-24.5a2.85 2.85 0 0 1-2.85-2.85v-1.14Z"/><path fill="#8D8D8D" d="M15.38 157.55a2 2 0 0 1 2-1.99h50.14a2 2 0 0 1 0 3.99H17.38a2 2 0 0 1-2-2Zm0 7.41c0-1.1.9-2 2-2H41.3a2 2 0 1 1 0 4H17.38a2 2 0 0 1-2-2Z"/><path fill="#C6C6C6" d="M88.32 152.71a2.85 2.85 0 0 1 2.85-2.85h66.67a2.85 2.85 0 0 1 2.85 2.85v33.05a2.85 2.85 0 0 1-2.85 2.85H91.17a2.85 2.85 0 0 1-2.85-2.85v-33.05Z"/><path fill="#0F62FE" d="M94.59 180.06a2.85 2.85 0 0 1 2.85-2.85h24.5a2.85 2.85 0 0 1 2.85 2.85v1.14a2.85 2.85 0 0 1-2.85 2.85h-24.5a2.85 2.85 0 0 1-2.85-2.85v-1.14Z"/><path fill="#8D8D8D" d="M94.59 157.55a2 2 0 0 1 2-1.99h50.14a2 2 0 0 1 0 3.99H96.58a2 2 0 0 1-1.99-2Zm0 7.41c0-1.1.9-2 2-2h23.93a2 2 0 1 1 0 4H96.58a2 2 0 0 1-1.99-2Z"/><path fill="#C6C6C6" d="M0 87.18a5.7 5.7 0 0 1 5.7-5.7h288.9a5.7 5.7 0 0 1 5.7 5.7v7.98H0v-7.98Z"/></svg>